<?xml version="1.0" encoding="utf-8" ?>
<!-- Generator: Adobe Illustrator 26.5.1, SVG Export Plug-In . SVG Version: 6.00 Build 0)  -->
<svg
  version="1.1"
  id="Calque_1"
  xmlns="http://www.w3.org/2000/svg"
  xmlns:xlink="http://www.w3.org/1999/xlink"
  x="0px"
  y="0px"
  viewBox="0 0 1000 1000"
  style="enable-background:new 0 0 1000 1000;"
  xml:space="preserve"
>
<style type="text/css">
	.st0{fill:#FFFFFF;stroke:#1D1D1B;stroke-width:5;stroke-miterlimit:10;}
	.st1{fill:#FC6541;}
	.st2{fill:none;stroke:#000000;stroke-width:5;stroke-miterlimit:10;}
	.st3{stroke:#000B13;stroke-width:2;stroke-miterlimit:10;}
	.st4{fill:#028283;stroke:#000B13;stroke-width:3;stroke-miterlimit:10;}
	.st5{fill:#000B13;stroke:#000B13;stroke-width:2;stroke-miterlimit:10;}
	.st6{fill:#FFFCFF;stroke:#FFFCFF;stroke-width:5;stroke-miterlimit:10;}
	.st7{fill:none;stroke:#FC6541;stroke-width:4;stroke-miterlimit:10;}
	.st8{opacity:0.5;}
	.st9{fill-rule:evenodd;clip-rule:evenodd;fill:#FC6541;}
	.st10{opacity:0.65;fill-rule:evenodd;clip-rule:evenodd;fill:#FFBC85;}
	.st11{fill-rule:evenodd;clip-rule:evenodd;fill:#FFE5C1;}
	.st12{fill-rule:evenodd;clip-rule:evenodd;fill:#028283;}
	.st13{opacity:0.8;fill-rule:evenodd;clip-rule:evenodd;fill:#F5A96C;}
	.st14{opacity:0.8;}
	.st15{fill-rule:evenodd;clip-rule:evenodd;fill:#F5A96C;}
	.st16{fill-rule:evenodd;clip-rule:evenodd;fill:#FED1A3;}
	.st17{fill-rule:evenodd;clip-rule:evenodd;fill:#FB2A39;}
	.st18{fill:#028283;}
	.st19{fill:#FFFCFF;}
	.st20{fill:#FFFFFF;}
</style>
<path class="st0" d="M561.7,69.7" />
<path class="st0" d="M528.3,87.3" />
<g>
	<g id="texte_posture">
		<path
        class="st1"
        d="M456.9,911.5c3,0.6,5.9,1.2,8.9,1.8c-1.6,8.4-3.3,16.7-5,25.1c-2.2,11.3-8.9,14.1-18.2,12.1
			c-2.2-0.5-5-1.5-6.8-2.5c0.9-2.3,1.9-4.6,2.8-6.9c1.2,0.7,2.8,1.4,4.6,1.8c4,0.9,6.8-0.3,8.2-6.4
			C453.4,928.1,455.1,919.8,456.9,911.5z"
      />
		<path
        class="st1"
        d="M483.5,915.7c-2.8,5.5-6.3,10.9-9.9,14.8c-1.9-0.2-3.8-0.3-5.7-0.5c2.8-4.7,5.4-10.2,7.1-15.2
			C477.9,915.2,480.7,915.5,483.5,915.7z"
      />
		<path
        class="st1"
        d="M491.3,946.6c-0.3,3.8,3.4,6.1,7.9,6.7c3.3,0.4,6,0.3,8.7-0.3c0.2,2.1,0.4,4.2,0.6,6.3
			c-3.4,0.9-7.4,1.1-11.6,0.6c-10.7-1.3-15.8-8.1-14.3-17.1c1.2-7.4,7.1-14.7,17.3-13.4c9.6,1.2,12.5,8.8,11.7,16.1
			c-0.2,1.6-0.5,2.9-0.7,3.6C504.4,948.3,497.8,947.5,491.3,946.6z M503.2,941.8c0.3-2.2-0.3-6-4.5-6.5c-3.9-0.5-6,2.8-6.6,5.1
			C495.8,940.9,499.5,941.4,503.2,941.8z"
      />
		<path
        class="st1"
        d="M517.8,941.3c0.3-3.6,0.5-6.7,0.6-9.4c2.7,0.2,5.4,0.5,8,0.7c0,1.4,0.1,2.7,0.1,4.1c0.1,0,0.1,0,0.2,0
			c1.4-1.8,4.6-4.4,9.6-4.1c6.1,0.4,10.5,4.5,10.2,13.1c-0.2,5.8-0.5,11.6-0.7,17.4c-3.3-0.1-6.5-0.3-9.8-0.5
			c0.3-5.4,0.6-10.8,0.9-16.3c0.2-3.8-1-6.4-4.4-6.6c-2.6-0.2-4.2,1.5-5,3.1c-0.3,0.6-0.4,1.4-0.5,2.2c-0.4,5.6-0.8,11.3-1.3,16.9
			c-3.3-0.2-6.5-0.5-9.8-0.8C516.6,954.6,517.2,947.9,517.8,941.3z"
      />
		<path
        class="st1"
        d="M566.6,955.6c1.8,1,5.5,2.2,8.3,2.1c2.9,0,4.2-1,4.1-2.5c0-1.5-1-2.2-4.6-3.3c-6.5-1.9-8.8-5.3-8.8-8.7
			c0-5.5,4.8-9.6,12.2-9.7c3.5-0.1,6.6,0.6,8.5,1.5c-0.5,2.1-0.9,4.2-1.4,6.3c-1.4-0.7-4-1.5-6.6-1.5c-2.3,0-3.6,0.9-3.6,2.4
			c0,1.4,1.2,2.1,5,3.3c5.8,1.8,8.4,4.5,8.6,8.8c0.2,5.5-4.2,9.7-13.3,9.8c-4.1,0.1-7.8-0.8-10.2-2
			C565.5,959.9,566.1,957.8,566.6,955.6z"
      />
		<path
        class="st1"
        d="M623.3,951.4c0.4,3.8,0.8,6.9,1.2,9.3c-2.8,0.3-5.6,0.5-8.5,0.8c-0.3-1.4-0.5-2.7-0.8-4.1c-0.1,0-0.1,0-0.2,0
			c-1.1,1.9-3.7,5.1-9.4,5.5c-6.4,0.4-11.3-3.1-11.7-12.1c-0.3-5.7-0.5-11.5-0.8-17.2c3.1-0.1,6.2-0.3,9.3-0.5
			c0.3,5.2,0.7,10.5,1,15.7c0.3,4.3,1.9,6.8,5.3,6.5c2.6-0.2,4-2,4.5-3.6c0.2-0.6,0.2-1.2,0.2-2c-0.5-5.8-1-11.6-1.4-17.4
			c3.1-0.3,6.2-0.5,9.3-0.8C622,938.2,622.6,944.8,623.3,951.4z"
      />
		<path
        class="st1"
        d="M637.2,921.5c0.3,2.5-1.3,4.8-4.3,5.1c-2.9,0.3-5-1.5-5.3-4c-0.3-2.6,1.4-4.7,4.3-5.1
			C634.7,917.3,636.8,918.9,637.2,921.5z M632.1,959.9c-1.1-9.7-2.3-19.5-3.4-29.2c3.1-0.3,6.2-0.7,9.2-1.1
			c1.3,9.7,2.6,19.4,3.9,29.1C638.6,959.2,635.3,959.6,632.1,959.9z"
      />
		<path
        class="st1"
        d="M648.4,949.8c1.9,0.8,5.8,1.4,8.5,0.9c2.9-0.5,4-1.6,3.7-3.1c-0.3-1.5-1.4-2.1-5-2.6c-6.7-1-9.5-4-10-7.4
			c-0.8-5.5,3.3-10.2,10.6-11.4c3.4-0.6,6.6-0.3,8.6,0.3c-0.2,2.2-0.3,4.3-0.5,6.5c-1.5-0.4-4.2-0.9-6.7-0.5
			c-2.3,0.4-3.4,1.5-3.2,2.9c0.2,1.4,1.5,1.9,5.4,2.6c6,0.9,9,3.3,9.8,7.5c1,5.4-2.7,10.2-11.7,11.6c-4.1,0.6-7.9,0.3-10.4-0.5
			C647.9,954.3,648.1,952.1,648.4,949.8z"
      />
		<path
        class="st1"
        d="M687.8,946c-0.7-3.2,1.1-5.8,4.3-6.6c3.3-0.7,6,0.9,6.8,4c0.7,3-0.9,5.8-4.3,6.6
			C691.3,950.8,688.5,949.1,687.8,946z M687.9,937.3c-2.4-8.8-4.8-17.5-7.2-26.3c3.1-0.7,6.2-1.4,9.2-2.1c1.7,8.9,3.3,17.9,5,26.8
			C692.6,936.3,690.3,936.8,687.9,937.3z"
      />
	</g>
</g>
<g>
	<g id="texte_picto_categorie">
		<path
        class="st1"
        d="M400.5,113.7c-1.3,1.5-4.7,4-9.5,6.3c-13.6,6.6-24.7,3.1-30.5-7c-7-11.9-0.5-24.5,12.8-31
			c5.2-2.5,9.6-3.4,11.7-3.4c0.3,2.5,0.7,5,1.1,7.5c-2.3,0.2-5.4,0.8-8.9,2.5c-7.7,3.7-11.5,10.8-7.2,18.7
			c3.9,7.2,10.9,9.1,19.1,5.2c2.8-1.3,5.6-3.3,7.2-4.8C397.6,109.7,399,111.7,400.5,113.7z"
      />
		<path
        class="st1"
        d="M431.4,86.8c3.4,10.2-2.9,17.4-10.8,20.5c-8.7,3.3-17.5,1-21.5-7.6c-3.9-8.6,0.3-17.2,10.7-21.2
			C419.8,74.7,428.5,78.4,431.4,86.8z M408.9,95.4c1.9,4.6,5.6,7.3,9.6,5.7c3.7-1.4,4.8-5.6,2.9-10.6c-1.5-4.1-4.9-7.6-9.4-5.9
			C407.2,86.5,407.2,91.4,408.9,95.4z"
      />
		<path
        class="st1"
        d="M435.9,80.1c-1.1-3.5-2.2-6.4-3.2-8.8c2.9-0.9,5.8-1.8,8.7-2.6c0.5,1.2,1.1,2.5,1.6,3.7c0.1,0,0.1,0,0.2-0.1
			c0.8-2.2,3-5.7,8.7-7.2c4.4-1.1,8.3-0.1,10.5,2.6c0,0,0.1,0,0.1,0c0.9-1.8,2.1-3.3,3.5-4.5c1.6-1.3,3.6-2.3,6.1-2.8
			c6.5-1.4,12.3,1.7,13.9,10.3c1.1,5.7,2.2,11.3,3.2,17c-3.2,0.6-6.4,1.2-9.6,1.9c-1.1-5.2-2.2-10.4-3.4-15.6
			c-0.9-4.2-3-6.3-6.4-5.5c-2.4,0.5-3.7,2.3-4,4.2c-0.1,0.7,0,1.6,0.2,2.3c1.4,5.6,2.7,11.1,4.1,16.7c-3.2,0.7-6.3,1.5-9.5,2.3
			c-1.4-5.3-2.9-10.6-4.3-15.9c-1-3.6-3.1-5.6-6.4-4.7c-2.6,0.7-3.7,2.9-3.8,4.5c-0.1,0.8,0.1,1.6,0.3,2.3
			c1.6,5.5,3.3,10.9,4.9,16.4c-3.1,0.9-6.2,1.8-9.3,2.8C440.1,92.8,438,86.4,435.9,80.1z"
      />
		<path
        class="st1"
        d="M493.8,66.5c-0.6-3.6-1.3-6.6-1.9-9.2c3-0.5,6-0.9,9-1.4c0.3,1.3,0.7,2.6,1,3.9c0.1,0,0.1,0,0.2,0
			c1.2-2,3.8-5.2,9.7-5.9c4.5-0.5,8.2,1.1,10,4.1c0,0,0.1,0,0.1,0c1.1-1.7,2.5-3,4.2-3.9c1.8-1.1,3.9-1.8,6.5-1.9
			c6.7-0.4,11.9,3.4,12.2,12.2c0.2,5.8,0.4,11.5,0.7,17.3c-3.2,0.1-6.5,0.3-9.7,0.5c-0.3-5.3-0.7-10.6-1-15.9
			c-0.3-4.2-2-6.6-5.5-6.4c-2.5,0.2-4,1.8-4.6,3.6c-0.2,0.7-0.2,1.6-0.2,2.3c0.5,5.7,1,11.4,1.5,17.1c-3.2,0.3-6.5,0.6-9.7,0.9
			c-0.6-5.5-1.3-10.9-1.9-16.4c-0.4-3.7-2.2-6-5.6-5.6c-2.7,0.3-4.1,2.3-4.5,3.9c-0.2,0.8-0.2,1.6-0.1,2.3
			c0.8,5.6,1.6,11.3,2.4,16.9c-3.2,0.4-6.4,0.9-9.6,1.4C496,79.6,494.9,73,493.8,66.5z"
      />
		<path
        class="st1"
        d="M584.5,72.6c-0.2,3.8-0.3,7-0.3,9.4c-2.9-0.2-5.8-0.3-8.7-0.4c-0.1-1.4-0.2-2.8-0.3-4.2c-0.1,0-0.1,0-0.2,0
			c-1.4,1.8-4.5,4.6-10.2,4.5c-6.5-0.1-11.3-3.7-11.5-12.7c-0.1-5.8-0.2-11.5-0.3-17.3c3.6-0.1,7.2-0.1,10.8,0
			c-0.1,5.3-0.1,10.5-0.2,15.8c0,4.3,1.5,6.9,5.1,7c2.8,0.1,4.5-1.6,5.2-3.1c0.3-0.5,0.4-1.2,0.4-1.9c0.2-5.8,0.4-11.7,0.7-17.5
			c3.6,0.1,7.2,0.3,10.8,0.5C585.3,59.3,584.9,65.9,584.5,72.6z"
      />
		<path
        class="st1"
        d="M593.6,62.6c0.3-3.6,0.5-6.7,0.5-9.4c3.1,0.3,6.2,0.5,9.3,0.9c0,1.4,0,2.7,0,4.1c0.1,0,0.1,0,0.2,0
			c1.6-1.7,5.4-4.2,11.2-3.4c7.1,0.9,11.7,5.7,10.2,14.3c-1,5.7-1.9,11.4-2.9,17.2c-3.3-0.5-6.6-1-9.9-1.5
			c0.8-5.4,1.5-10.7,2.3-16.1c0.5-3.7-0.6-6.5-4.5-7c-2.9-0.4-4.8,1.2-5.7,2.8c-0.3,0.5-0.5,1.4-0.6,2.2c-0.6,5.6-1.3,11.2-1.9,16.8
			c-3.3-0.4-6.7-0.7-10-0.9C592.4,75.9,593,69.3,593.6,62.6z"
      />
		<path
        class="st1"
        d="M648,91.2c0-1,0.1-2,0.1-3c-0.1,0-0.1,0-0.2,0c-2.6,1.8-6.1,2.3-9.8,1.6c-6.4-1.3-9.4-6.1-8.6-10.8
			c1.3-7.5,9.8-9.8,21.5-7.2c0-0.1,0.1-0.2,0.1-0.4c0.4-1.5-0.1-3.9-5.2-5c-3.4-0.7-7.2-0.4-9.7,0.3c-0.3-2-0.5-4.1-0.8-6.1
			c2.6-0.7,7.5-1.3,13.8,0c11.3,2.5,13.3,9.1,11.5,15.7c-0.9,3.3-1.8,6.6-2.6,9.9c-0.7,2.7-1.2,5.3-1.3,7
			C653.9,92.6,651,91.9,648,91.2z M650.1,77.4c-5.3-1.2-9.7-0.9-10.4,2.5c-0.5,2.3,1,3.8,3.2,4.3c2.4,0.5,4.8-0.5,5.9-2.2
			c0.3-0.4,0.4-1,0.5-1.5C649.6,79.5,649.8,78.5,650.1,77.4z"
      />
		<path
        class="st1"
        d="M696.1,95.6c-1.3,3.6-2.3,6.6-3,8.9c-2.7-1-5.4-1.9-8.2-2.9c0.3-1.4,0.6-2.7,0.9-4.1c-0.1,0-0.1,0-0.2-0.1
			c-1.8,1.3-5.6,3.2-11.1,1.5c-6.2-1.9-9.8-6.7-7.3-15.4c1.6-5.5,3.2-11.1,4.8-16.6c3.5,1,6.9,2,10.4,3c-1.6,5-3.2,10-4.8,15.1
			c-1.3,4.1-0.6,7,2.8,8.1c2.6,0.8,4.7-0.3,5.9-1.5c0.4-0.4,0.7-1,1-1.7c1.9-5.5,3.8-11,5.8-16.6c3.4,1.1,6.8,2.3,10.2,3.5
			C700.8,83.1,698.4,89.3,696.1,95.6z"
      />
		<path
        class="st1"
        d="M725.7,76.6c-1.1,2.6-2.3,5.1-3.4,7.7c2.4,1,4.7,2,7.1,3.1c-0.9,2-1.9,4.1-2.8,6.1c-2.3-1-4.6-2-7-3
			c-1.4,3.3-2.8,6.5-4.3,9.8c-1.4,3.3-1.1,5.1,1.6,6.3c1.2,0.5,2.2,0.8,2.9,1c-0.9,2.1-1.9,4.2-2.8,6.4c-1.4-0.1-3.7-0.8-6.2-1.8
			c-3-1.3-5.1-3.2-6-5.2c-1.1-2.3-0.9-5.2,0.7-9.1c1.5-3.7,3-7.4,4.5-11.2c-1.4-0.5-2.8-1.1-4.2-1.6c0.8-2.1,1.7-4.2,2.5-6.3
			c1.4,0.5,2.9,1.1,4.3,1.6c0.8-2,1.6-3.9,2.4-5.9C718.6,75.2,722.1,75.9,725.7,76.6z"
      />
		<path
        class="st1"
        d="M734.6,109.3c-1.4,3.5,1.5,7,5.7,9.1c3,1.6,5.7,2.5,8.5,3.1c-0.6,2-1.2,4.1-1.8,6.1
			c-3.5-0.5-7.3-1.9-11.1-3.8c-9.6-4.9-12.9-12.7-9.1-21c3.1-6.8,11.7-12.1,22.4-6.7c10,5.1,9.9,13.8,6.3,20.1
			c-0.8,1.4-1.6,2.5-2.1,3C747.2,115.7,741,112.4,734.6,109.3z M748.3,109.2c1.1-1.9,1.9-5.8-2.4-8c-4-2-7.2,0.4-8.5,2.4
			C741,105.5,744.7,107.3,748.3,109.2z M765.2,90.8c-4.1,1.2-8.1,2.6-12.1,3.9c-2.2-1.1-4.4-2.2-6.6-3.3c3.2-1.8,6.5-3.6,9.8-5.3
			C759.2,87.6,762.2,89.2,765.2,90.8z"
      />
	</g>
</g>
<path class="st2" d="M555.8,60.6" />
<path
    class="st2"
    d="M782.6,131.8c107.3,74.5,187.1,197.8,187.1,340.7c0,228.9-190.4,421-413.8,421c-143.9,0-279.6-82.7-351.3-198.7
	c-1.4-2.3-2.5-3.4-8.6-0.5c-17.1,8.2-92.7,43.8-97.9,45.7c-2,0.7-8.3-0.3-9.8-2.1c-6.1-7.3-19.2-32.5-33-67.4
	c-8.5-21.5-19.1-51.2-17.8-57.1c0.5-2.4,4.2-6.2,7.2-7.7c8-3.8,89.2-39.7,103.4-46.4c2.3-1.1,0.8-4.5,0.4-6.4
	c-3.5-19.2-4.3-46.7-4.3-77.6c0-144.3,79-271.4,188.2-345.6"
  />
<g>
	<path class="st2" d="M162.1,618.1" />
	<g>
		<path d="M142.3,629.3l6.2-9.7l4.9,3.1l-6.2,9.7L142.3,629.3z" />
		<path d="M124.6,621.4l3.7-10.9l5.5,1.9l-3.7,10.9L124.6,621.4z" />
		<path d="M105.5,607.5h5.8v11.5h-5.8V607.5z" />
		<path d="M82.9,612.3l5.5-1.9l3.7,10.9l-5.5,1.9L82.9,612.3z" />
		<path d="M63.3,622.6l4.9-3.1l6.2,9.7l-4.9,3.1L63.3,622.6z" />
		<path
        d="M156,655.5l1.5-1.9l-1.6-1.8c-0.2-0.2-5.3-6.1-13.7-12c-11.2-7.9-22.9-12.1-34-12.1c-11,0-22.8,4.2-33.9,12.1
			c-8.4,5.9-13.5,11.8-13.7,12l-1.6,1.9l1.6,1.9c0.2,0.2,5.3,6.1,13.7,12c11.2,7.9,22.9,12.1,33.9,12.1c5.5,0,11.2-1,16.9-3
			c0.4,0.7,0.9,1.3,1.4,1.9l14.3,14.3l12.2-12.2l-12-12C150.5,662.3,155.8,655.8,156,655.5L156,655.5z M118.5,658.1
			c-5.6,5.6-14.8,5.6-20.4,0c-2.7-2.7-4.2-6.3-4.2-10.2s1.5-7.5,4.2-10.2c2.8-2.8,6.5-4.2,10.2-4.2c3.7,0,7.4,1.4,10.2,4.2
			c2.7,2.7,4.2,6.3,4.2,10.2S121.3,655.4,118.5,658.1z M77.9,663c-5.1-3.6-8.9-7.2-11-9.3c2.1-2.1,5.9-5.7,11-9.3
			c3.6-2.5,8.2-5.3,13.5-7.4c-2.1,3.2-3.2,7-3.2,10.9c0,5.4,2.1,10.5,5.9,14.3c3.9,3.9,9.1,5.9,14.3,5.9c4.3,0,8.5-1.3,12.1-4
			l4.6,4.6c-0.3,0.7-0.6,1.4-0.7,2.2c-5.4,2-10.8,3.1-16,3.1C96,673.9,84.9,667.9,77.9,663L77.9,663z M141,684.6l-10.2-10.2
			c-1.1-1.1-1.1-3,0-4.1c1.1-1.1,3-1.1,4.1,0l10.2,10.2L141,684.6z M136.6,664.6c-2.4-1.2-5.2-1.2-7.6,0l-4.6-4.6
			c2.6-3.5,4-7.7,4-12.1c0-3.9-1.1-7.7-3.2-10.9c5.3,2.1,9.9,4.9,13.5,7.4c5.1,3.6,9,7.2,11,9.3C147.6,656.2,143,660.6,136.6,664.6z
			"
      />
	</g>
	<g>
		<g>
			<g>
				<path class="st3" d="M118.5,662.3l4.1-4.1l8.2,8.1l-4.1,4.1L118.5,662.3z" />
			</g>
		</g>
		<g id="Vision_1_">
			<g>
				<g>
					<path
              class="icon-cold-color"
              stroke-width="3"
              stroke-miterlimit="10"
              fill="#028283"
              stroke="#000B13"
              d="M141,692.8l-14.3-14.2c-2.8-2.7-3.8-8.4,0-12.2c3.1-3.1,8-3.4,11.4-0.7c12.4,12.3,15.7,15.5,15.1,14.9
						L141,692.8z"
            />
				</g>
			</g>
		</g>
		<g>
			<g>
				<g>
					<g>
						<path
                class="st5"
                d="M94,662.3c-7.9-7.9-7.9-20.6,0-28.5c7.6-7.6,21-7.6,28.6,0c7.9,7.9,7.9,20.6,0,28.5
							C114.7,670.2,101.9,670.2,94,662.3L94,662.3z"
              />
					</g>
				</g>
			</g>
		</g>
		<path
        class="st5"
        d="M108.3,628.1v40.1c5.2,0,10.4-2,14.3-5.9c7.9-7.9,7.9-20.6,0-28.5C118.8,630,113.6,628.1,108.3,628.1
			L108.3,628.1z"
      />
	</g>
	<ellipse class="st6" cx="108.6" cy="648.1" rx="11.8" ry="11.6" />
	<ellipse class="icon-hot-color-stroke" cx="108.6" cy="648.1" rx="5.9" ry="5.8" stroke="#FC6541"
      fill="none"
      stroke-width="4"
      stroke-miterlimit="10"/>
</g>
<g class="st8">
	<g>
		<path
        class="icon-hot-color"
        fill="#fc6541"
        d="M133.3,283.7l20.6,19.9l4,3.9l1.5,1.4c0.5,0.5,1.2,0.4,1.7,0l4.1-4.2l3.7-3.9c1.6-1.7,1.6-4.4-0.1-6.1
			l-3.6-3.5l-20-19.2c-1.7-1.6-4.4-1.6-6.1,0.1l-7.8,8.1c-0.5,0.5-0.4,1.2,0,1.7L133.3,283.7z"
      />
	</g>
	<g>
		<path
        class="st10"
        d="M104.7,285l-22.2,21.3c0.7,5.9,1.8,11.4,5.4,14.5l30.1,24.4l3.6,2.8c5.5,4.2,10.7-1.7,6.5-6
			c-0.1-0.1-0.1-0.1-0.2-0.2c1.4,1.2,3,1.5,4.4,1.3c3-0.5,5.1-3.7,2.3-6.7c5.5,4.4,10.1-2.6,5.9-6.4c4.8,1.5,10-4.7,5-9.9
			c0,0-0.1-0.1-0.1-0.1L133,301.4l-16.7-10.7L104.7,285z"
      />
	</g>
	<g>
		<path
        class="st11"
        d="M117.6,345.7c4.6-4.9-2.1-10.6-5.9-7.3l-4,3.8c0,0-0.1,0.1-0.1,0.1c-3.4,3.4,2.7,11,7.8,5.7L117.6,345.7z"
      />
	</g>
	<g>
		<path
        class="st11"
        d="M104.7,331.6l-4.2,4.4l0,0c-2.1,2.2-0.6,5.7,1.9,7c1.6,0.8,3.5,0.9,5.2-0.7l4.5-0.1l-0.4-3.9l0.6-0.5
			c4.5-4.3-2-11.7-7.1-6.8L104.7,331.6z"
      />
	</g>
	<g>
		<path
        class="st11"
        d="M97.2,325.6l-4,4.2l-0.6,0.6c-3.9,4.1,3.1,10.7,7.1,6.4l0.7-0.7c0.1-0.1,4.3-0.5,4.8-0.6l-0.1-4.4l1.4-1.4
			c4.7-4.9-2.6-11.3-7.1-6.6L97.2,325.6z"
      />
	</g>
	<g>
		<path
        class="st11"
        d="M87.9,320.8l-1.3,1.5c-4.1,4.5,2,11.6,6.6,7.5l3.8-0.6l0.2-3.6c3.7-4.2-2.8-11.8-7.9-6.2L87.9,320.8z"
      />
	</g>
	<g>
		<path
        class="icon-cold-color"
        fill="#028283"
        d="M93.6,272.4l-18.4,17.7l-5.2,5c-1.7,1.6-1.8,4.4-0.1,6.1l7.8,8.1c0.5,0.5,1.2,0.5,1.7,0l3.1-3l22.2-21.3
			l2.8-2.7c0.5-0.5,0.5-1.2,0-1.7l-7.8-8.1C98,270.8,95.3,270.8,93.6,272.4L93.6,272.4z"
      />
	</g>
	<g>
		<path
        class="st13"
        d="M128.5,303.1l-5.6,1.3l2.2,2.2l16.9,16.8l0.1,0.1c2,2.2,2.4,4.5,1.7,6.3c3.3-1.3,5.5-5.8,1.7-9.8l-0.1-0.1
			l-5.1-5L128.5,303.1z"
      />
	</g>
	<g class="st14">
		<path class="st15" d="M104.7,285l-3.6,3.4l11.1,5.5l4.1-3.2L104.7,285z" />
	</g>
	<g>
		<path
        class="st11"
        d="M116.3,290.7l-4.1,3.2l-3.8,3c-9.7,7.5-1.7,14.9,4.1,12.4l6.5-3.9l4-0.9l5.6-1.3l11.8,11.8l5.1,5
			c3.2-1.2,7.7-4.6,12.6-12.5l-24.7-23.7l-4.4,3.5c-0.7,0.6-0.5,0.5-1.4,0.4c-3.3-0.1-7.6,0.2-10,2.1L116.3,290.7z"
      />
	</g>
	<g>
		<path
        class="st16"
        d="M116.3,302.7l-6.5,3.9c-1.8,0.8-3.7,0.6-5.4-0.2c1.4,2.7,5,4.1,8,2.8l6.5-3.9l4-0.9l5.5-1.3
			c-2.6-2.2-3-2.5-8.2-1.3L116.3,302.7z"
      />
	</g>
	<g>
		<path
        class="st16"
        d="M154,303.6c-4.3,7-8.4,10.5-11.5,12c-0.3,0.2-0.7,0.3-1,0.4l3.9,3.9c3.2-1.2,7.7-4.6,12.6-12.5L154,303.6z"
      />
	</g>
	<!-- <g>
		<path
        class="st17"
        d="M163.7,289.7L163.7,289.7L163.7,289.7z M160.1,299.6l-4.1,4.2c-0.5,0.5-1.2,0.5-1.7,0l3.7,3.5l1.5,1.4
			c0.5,0.5,1.2,0.4,1.7,0l4.1-4.2l3.7-3.9c1.6-1.7,1.6-4.4-0.1-6.1l-4.6-4.4l0.4,0.4l-1-0.9c1.7,1.6,1.7,4.3,0.1,6L160.1,299.6z"
      />
	</g>
	<g>
		<path
        class="st12"
        d="M87.3,278.5c1.7-1.6,4.4-1.6,6,0.1l7.8,8.1c0.5,0.5,0.4,1.2,0,1.7l3.6-3.4l2.8-2.7c0.5-0.5,0.5-1.2,0-1.7
			l-7.8-8.1c-1.6-1.7-4.4-1.8-6.1-0.1L87.3,278.5z"
      />
	</g> -->
	<g>
		<path
        class="st16"
        d="M85.2,325.7c0,3.8,4.5,7.2,8,4.1l2.5-2.6l1.5-1.6c1.5-1.7,1.3-4.1,0.2-5.8c0,1-0.3,2-1.1,2.9l-2.6,2.8
			l-1.3,1.4C89.8,329.2,86.7,328,85.2,325.7L85.2,325.7z"
      />
	</g>
	<g>
		<path
        class="st16"
        d="M91.7,334.3c0.9,3.1,5.2,5.5,8.1,2.5l0.7-0.7c0,0,0,0,0,0l4.2-4.4c0.2-0.2,0.3-0.3,0.4-0.5l1.4-1.4
			c2.5-2.6,1.6-5.7-0.6-7.3c0.4,1.4,0.1,3.1-1.3,4.5l-1.4,1.4c-0.2,0.1-0.3,0.3-0.4,0.5v0l-4.2,4.4c0,0,0,0,0,0l-0.7,0.7
			C96,336.1,93.5,335.7,91.7,334.3L91.7,334.3z"
      />
	</g>
	<g>
		<path
        class="st16"
        d="M107.7,342.3l3.1-2.9l0.9-0.9l0.6-0.5c2.4-2.3,1.7-5.5-0.3-7.2c0.4,1.5,0.1,3.2-1.3,4.6l-0.6,0.5l-1.6,1.5
			l-2.4,2.3l-0.1,0.1c-1.7,1.6-3.7,1.5-5.2,0.7c-0.4-0.2-0.7-0.5-1.1-0.8c0.4,1.4,1.4,2.6,2.7,3.3c1.6,0.8,3.5,0.9,5.2-0.7
			L107.7,342.3z"
      />
	</g>
	<g>
		<path
        class="st16"
        d="M117.6,345.7c2.3-2.5,1.8-5.1,0.2-6.7c0,1.1-0.5,2.3-1.6,3.4l-2.2,2.3c-2.7,2.9-5.7,2-7.4,0.1
			c0,3.5,4.7,7.5,8.7,3.3L117.6,345.7z"
      />
	</g>
	<g>
		<path
        d="M128.2,343.6c-0.4,0-0.8-0.1-1-0.4l-3.1-2.9c-0.6-0.6-0.7-1.6-0.1-2.2c0.6-0.6,1.6-0.7,2.2-0.1l3.1,2.9
			c0.6,0.6,0.7,1.6,0.1,2.2C129,343.4,128.6,343.6,128.2,343.6z"
      />
	</g>
	<path
      d="M169.9,293.5l-23.6-22.7c-1.1-1.1-2.6-1.6-4.2-1.6c-1.6,0-3,0.7-4.1,1.8l-7.8,8.1c-1,1.1-1,2.8,0.1,3.9l0.6,0.6l-3.2,2.6
		c-0.1,0-0.2,0-0.3,0c-5-0.2-8.7,0.7-11,2.5l-0.4,0.3l-8.8-4.3l1.2-1.1c0.5-0.5,0.8-1.2,0.8-1.9c0-0.7-0.3-1.4-0.8-2l-7.8-8.1
		c-1.1-1.1-2.5-1.8-4.1-1.8c-1.6,0-3,0.5-4.2,1.6L69,294c-2.3,2.2-2.4,5.9-0.2,8.2l7.8,8.1c0.5,0.6,1.2,0.8,2,0.8
		c0.7,0,1.4-0.3,1.9-0.8l0.9-0.9c0.7,4.2,1.8,8.4,4.4,11.3l-0.3,0.4c-2.8,3-1.9,7.1,0.3,9.4c1.2,1.3,2.7,1.9,4.2,2
		c-0.2,1.9,0.7,3.9,2.1,5.2c1.3,1.2,2.9,1.9,4.6,1.9c0.4,0,0.8,0,1.3-0.1c0.2,1.4,1,2.7,1.9,3.7c1.2,1.2,2.8,2,4.6,2
		c0.2,0,0.4,0,0.5,0c0,0.3,0.1,0.7,0.2,1c0.6,2.4,2.6,4.5,4.9,5.1c0.4,0.1,0.9,0.2,1.5,0.2c1.4,0,3.1-0.5,4.9-2.3l1.7-1.8l2.5,1.9
		c1.6,1.3,3.3,1.8,4.7,1.8c1.8,0,3.4-0.8,4.4-2c1-1.1,1.5-2.7,1.3-4.4c1.9,0.1,3.7-0.6,4.9-1.9c0.9-0.9,1.4-2.2,1.4-3.5
		c2,0.2,3.7-0.6,4.8-1.9c1.2-1.5,1.8-3.7,1.1-5.8c1.8-0.4,3.5-1.6,4.6-3.3c1.2-2,1.7-4.9-0.2-7.8c2.8-1.5,6.4-4.6,10.4-10.6l0.1,0.1
		c0.5,0.5,1.2,0.8,1.9,0.8c0.7,0,1.4-0.3,2-0.8l7.8-8.1C172.3,299.5,172.2,295.8,169.9,293.5L169.9,293.5z M87.7,323.3l2.7-2.9
		c1.1-1.2,2.3-1.7,3.5-1.4c1.2,0.3,2.3,1.4,2.7,2.7c0.2,0.6,0.4,1.9-0.6,2.9c0,0,0,0,0,0l-3.8,4c-1.6,1.4-3.2,0.8-4.2-0.2
		C86.7,327.2,86.1,325,87.7,323.3L87.7,323.3z M94.3,335.5c-0.2-0.2-2.2-2.2-0.5-4.1l0,0l6.8-7.2c0.8-0.9,1.7-1.2,2.4-1.2
		c0.3,0,0.5,0,0.7,0.1c1.2,0.3,2.3,1.3,2.6,2.4c0.3,1.1,0,2.2-1,3.1l-1.4,1.5c-0.1,0.1-0.1,0.1-0.2,0.2l-5.1,5.3
		C97.1,337.4,95.2,336.4,94.3,335.5L94.3,335.5z M102.1,341c-0.9-0.9-1.7-2.7-0.5-3.9c0,0,0,0,0,0l4.2-4.4c0,0,0,0,0.1-0.1
		c0,0,0,0,0,0l0.3-0.3c1-1,2.2-1.4,3.3-1.2c1.2,0.3,2.3,1.3,2.7,2.6c0.2,0.8,0.2,2-0.9,3.1l-0.5,0.5c0,0,0,0,0,0
		c0,0-0.1,0.1-0.1,0.1l-3.9,3.7c0,0,0,0,0,0c0,0-0.1,0.1-0.1,0.1C104.5,343.2,102.5,341.4,102.1,341L102.1,341z M114.2,347
		c-1.1,1.1-2.2,1.6-3.3,1.3c-1.2-0.3-2.4-1.5-2.7-2.8c-0.1-0.6-0.2-1.4,0.4-2c0,0,0.1-0.1,0.1-0.1l4-3.8c1.2-1,2.9-0.5,3.9,0.5
		c0.5,0.5,1.9,2.3-0.2,4.6L114.2,347z M145.4,326.7c-0.8,1.3-2.4,2.3-4.1,1.9l-5.9-5.5c-0.6-0.6-1.6-0.5-2.2,0.1
		c-0.6,0.6-0.5,1.6,0.1,2.2l6.2,5.7c0,0,0,0,0,0c0,0,0,0,0,0c1.5,1.4,1.4,3.2,0.5,4.2c-1,1.2-2.6,1.2-4.3-0.2l-6.1-5.7
		c-0.6-0.6-1.6-0.5-2.2,0.1c-0.6,0.6-0.5,1.6,0.1,2.2l6.1,5.7c1.1,1.2,1.2,2.3,0.3,3.2c-1,1.1-3.1,1.4-4.9-0.1
		c-0.6-0.5-1.6-0.5-2.1,0.1c-0.6,0.6-0.5,1.6,0.1,2.1c1.7,1.6,1.4,3.2,0.6,4.1c-0.9,1.1-2.8,1.4-4.9-0.2l-2.5-1.9
		c1.3-2.6,0.5-5.2-1.2-6.9c-1-1-2.3-1.7-3.7-1.9c0.2-1,0.2-2,0-3.1c-0.6-2.4-2.6-4.3-4.9-4.8c-0.3-0.1-0.6-0.1-0.9-0.1
		c0.3-1.1,0.3-2.2,0-3.4c-0.7-2.2-2.6-4-4.8-4.5c-1.7-0.4-3.4-0.1-4.9,0.9c0-0.1,0-0.1-0.1-0.2c-0.7-2.4-2.7-4.3-5-4.8
		c-2.3-0.5-4.6,0.3-6.4,2.3l-0.2,0.3c-2.2-2.6-3.1-6.6-3.8-11.7l6.5-6.3c0.6-0.6,0.6-1.6,0-2.2c-0.6-0.6-1.6-0.6-2.2,0l-7,6.7
		c-0.1,0-0.1,0.1-0.2,0.1l-2.8,2.7l-7.5-7.9c-1-1.1-1-2.8,0.1-3.9l23.6-22.7c0.5-0.5,1.2-0.8,2-0.8c0.7,0,1.4,0.3,1.9,0.8l7.5,7.9
		l-12.7,12.3c-0.6,0.6-0.6,1.6,0,2.2c0.6,0.6,1.6,0.6,2.2,0l9.5-9.1l8.4,4.2l-6,4.6c-7.1,5.5-5,10.5-4.2,11.9c1.4,2.4,4,3.8,6.7,3.8
		c1,0,2.1-0.2,3.1-0.6c0.1,0,0.1-0.1,0.2-0.1l6.3-3.8l8.5-1.9l16.3,16.2C146.9,323.6,145.9,325.8,145.4,326.7L145.4,326.7z
		 M167.8,299.6l-7.5,7.9l-1.2-1.1c0,0-0.1-0.1-0.1-0.1l-10.6-10.2c-0.6-0.6-1.6-0.6-2.2,0c-0.6,0.6-0.6,1.6,0,2.2l9.8,9.4
		c-4.3,6.6-8,9.3-10.2,10.4l-16.1-16c0,0,0,0,0,0c0,0,0,0-0.1-0.1c0,0,0,0,0,0c0,0,0,0-0.1-0.1c0,0,0,0-0.1,0c0,0,0,0-0.1,0
		c0,0,0,0-0.1,0c0,0,0,0-0.1,0c0,0,0,0-0.1,0c0,0-0.1,0-0.1,0c0,0,0,0-0.1,0c0,0-0.1,0-0.1,0c0,0,0,0,0,0c0,0-0.1,0-0.1,0
		c0,0,0,0,0,0c0,0-0.1,0-0.1,0c0,0,0,0,0,0c0,0-0.1,0-0.1,0c0,0,0,0-0.1,0c0,0,0,0-0.1,0c0,0-0.1,0-0.1,0c0,0,0,0,0,0l-9.6,2.2
		c-0.2,0-0.3,0.1-0.5,0.2l-6.4,3.8c-2.1,0.9-4.7,0-5.9-1.9c-1.3-2.3-0.1-5.2,3.4-7.9l7.9-6.1c0,0,0,0,0,0l1.1-0.8
		c1.7-1.3,4.9-2,9-1.8c0.1,0,0.2,0,0.3,0c0.9,0.1,1.3-0.1,2-0.7l3.5-2.8l7.9,7.6c0.6,0.6,1.6,0.6,2.2,0c0.6-0.6,0.6-1.6,0-2.2
		L132.7,281l7.5-7.9c0.5-0.5,1.2-0.8,1.9-0.8c0,0,0,0,0.1,0c0.7,0,1.4,0.3,1.9,0.8l23.6,22.7C168.8,296.8,168.9,298.6,167.8,299.6
		L167.8,299.6z"
    />
</g>
<g class="st8">
	<path
      class="icon-cold-color"
      fill="#028283"
      d="M109,461.5v4.5c0,1.6-1.1,2.9-2.6,3.2l-8.2,1.6c-0.6,2-1.4,4-2.4,5.8l4.6,6.9c0.9,1.3,0.7,3-0.4,4.1l-3.1,3.1
		c-1.1,1.1-2.8,1.3-4.1,0.4l-6.9-4.6c-1.8,1-3.7,1.8-5.8,2.4l-1.6,8.2c-0.3,1.5-1.6,2.6-3.2,2.6h-4.5c-1.6,0-2.9-1.1-3.2-2.6
		l-1.6-8.2c-2-0.6-4-1.4-5.8-2.4l-6.9,4.6c-1.3,0.9-3,0.7-4.1-0.4l-3.1-3.1c-1.1-1.1-1.3-2.8-0.4-4.1l4.6-6.9
		c-1-1.8-1.8-3.7-2.4-5.8l-8.2-1.6c-1.5-0.3-2.6-1.6-2.6-3.2v-4.5c0-1.6,1.1-2.9,2.6-3.2l8.2-1.6c0.6-2,1.4-4,2.4-5.8l-4.6-6.9
		c-0.9-1.3-0.7-3,0.4-4.1l3.1-3.1c1.1-1.1,2.8-1.3,4.1-0.4l6.9,4.6c1.8-1,3.7-1.8,5.8-2.4l1.6-8.2c0.3-1.5,1.6-2.6,3.2-2.6h4.5
		c1.6,0,2.9,1.1,3.2,2.6l1.6,8.2c2,0.6,4,1.4,5.8,2.4l6.9-4.6c1.3-0.9,3-0.7,4.1,0.4l3.1,3.1c1.1,1.1,1.3,2.8,0.4,4.1l-4.6,6.9
		c1,1.8,1.8,3.7,2.4,5.8l8.2,1.6C107.9,458.6,109,459.9,109,461.5z"
    />
	<path
      class="st19"
      d="M88.8,463.7c0,8.7-7.1,15.8-15.8,15.8s-15.8-7.1-15.8-15.8s7.1-15.8,15.8-15.8S88.8,455,88.8,463.7z"
    />
	<path
      class="st19"
      d="M80.9,463.7c0,4.3-3.5,7.9-7.9,7.9c-4.3,0-7.9-3.5-7.9-7.9c0-4.3,3.5-7.9,7.9-7.9
		C77.4,455.9,80.9,459.4,80.9,463.7z"
    />
	<path
      class="st19"
      d="M76.1,463.7c0,3.5-2.3,6.5-5.5,7.5c-3.2-1-5.5-4-5.5-7.5s2.3-6.5,5.5-7.5C73.8,457.3,76.1,460.2,76.1,463.7z"
    />
	<path
      class="icon-hot-color"
      	fill="#fc6541"
      d="M131.6,497.2v2.9c0,1-0.7,1.9-1.7,2.1l-5.4,1.1c-0.4,1.3-0.9,2.6-1.6,3.8l3,4.5c0.6,0.9,0.5,2-0.3,2.7
		l-2.1,2.1c-0.7,0.7-1.9,0.8-2.7,0.3l-4.5-3c-1.2,0.7-2.4,1.2-3.8,1.6l-1.1,5.4c-0.2,1-1.1,1.7-2.1,1.7h-2.9c-1,0-1.9-0.7-2.1-1.7
		l-1.1-5.4c-1.3-0.4-2.6-0.9-3.8-1.6l-4.5,3c-0.9,0.6-2,0.5-2.7-0.3l-2.1-2.1c-0.7-0.7-0.8-1.9-0.3-2.7l3-4.5
		c-0.7-1.2-1.2-2.4-1.6-3.8l-5.4-1.1c-1-0.2-1.7-1.1-1.7-2.1v-2.9c0-1,0.7-1.9,1.7-2.1l5.4-1.1c0.4-1.3,0.9-2.6,1.6-3.8l-3-4.5
		c-0.6-0.9-0.5-2,0.3-2.7l2.1-2.1c0.7-0.7,1.9-0.8,2.7-0.3l4.5,3c1.2-0.7,2.4-1.2,3.8-1.6l1.1-5.4c0.2-1,1.1-1.7,2.1-1.7h2.9
		c1,0,1.9,0.7,2.1,1.7l1.1,5.4c1.3,0.4,2.6,0.9,3.8,1.6l4.5-3c0.9-0.6,2-0.5,2.7,0.3l2.1,2.1c0.7,0.7,0.8,1.9,0.3,2.7l-3,4.5
		c0.7,1.2,1.2,2.4,1.6,3.8l5.4,1.1C130.9,495.3,131.6,496.2,131.6,497.2z"
    />
	<path
      class="st19"
      d="M119.8,498.7c0,6.5-5.3,11.8-11.8,11.8s-11.8-5.3-11.8-11.8s5.3-11.8,11.8-11.8S119.8,492.2,119.8,498.7z"
    />
	<path
      class="st19"
      d="M115.1,498.7c0,3.9-3.2,7.1-7.1,7.1s-7.1-3.2-7.1-7.1s3.2-7.1,7.1-7.1S115.1,494.8,115.1,498.7z"
    />
	<path
      class="st19"
      d="M110.3,498.7c0,3.1-2,5.7-4.7,6.7c-2.8-1-4.7-3.6-4.7-6.7c0-3.1,2-5.7,4.7-6.7
		C108.4,493,110.3,495.6,110.3,498.7z"
    />
	<path
      d="M59.6,459.1c-0.5,1.5-0.8,3-0.8,4.6c0,7.9,6.4,14.3,14.3,14.3c3,0,5.9-0.9,8.3-2.7c0.7-0.5,1.7-0.3,2.2,0.3
		c0.5,0.7,0.3,1.7-0.3,2.2c-3,2.1-6.5,3.3-10.2,3.3c-9.6,0-17.3-7.8-17.3-17.3c0-1.9,0.3-3.8,0.9-5.6c0.3-0.8,1.2-1.2,2-1
		C59.4,457.4,59.8,458.3,59.6,459.1z M86.4,472.3c0.2,0.1,0.5,0.2,0.7,0.2c0.6,0,1.1-0.3,1.4-0.8c1.2-2.4,1.9-5.2,1.9-7.9
		c0-9.6-7.8-17.3-17.3-17.3c-4.5,0-8.8,1.7-12.1,4.9c-0.6,0.6-0.6,1.6,0,2.2c0.6,0.6,1.6,0.6,2.2,0c2.7-2.6,6.2-4,9.9-4
		c7.9,0,14.3,6.4,14.3,14.3c0,2.3-0.5,4.5-1.6,6.5C85.3,471,85.6,471.9,86.4,472.3z M85.6,486.7c-0.4-0.8-1.3-1.1-2.1-0.7
		c-1.3,0.6-2.6,1.1-3.9,1.5c-0.6,0.2-1,0.6-1.1,1.2l-1.6,8.2c-0.2,0.8-0.9,1.4-1.7,1.4h-4.5c-0.8,0-1.5-0.6-1.7-1.4l-1.6-8.2
		c-0.1-0.6-0.5-1-1.1-1.2c-1.9-0.5-3.7-1.3-5.4-2.2c-0.5-0.3-1.1-0.3-1.6,0.1l-6.9,4.6c-0.7,0.5-1.6,0.4-2.2-0.2l-3.1-3.1
		c-0.6-0.6-0.7-1.5-0.2-2.2l4.6-6.9c0.3-0.5,0.3-1.1,0.1-1.6c-1-1.7-1.7-3.5-2.2-5.4c-0.2-0.6-0.6-1-1.2-1.1l-8.2-1.6
		c-0.8-0.2-1.4-0.9-1.4-1.7v-4.5c0-0.8,0.6-1.5,1.4-1.7l8.2-1.6c0.6-0.1,1-0.5,1.2-1.1c0.5-1.9,1.3-3.7,2.2-5.4
		c0.3-0.5,0.3-1.1-0.1-1.6l-4.6-6.9c-0.5-0.7-0.4-1.6,0.2-2.2l3.1-3.1c0.6-0.6,1.5-0.7,2.2-0.2l6.9,4.6c0.5,0.3,1.1,0.3,1.6,0.1
		c1.7-1,3.5-1.7,5.4-2.2c0.6-0.2,1-0.6,1.1-1.2l1.6-8.2c0.2-0.8,0.9-1.4,1.7-1.4h4.5c0.8,0,1.5,0.6,1.7,1.4l1.6,8.2
		c0.1,0.6,0.5,1,1.1,1.2c1.9,0.5,3.7,1.3,5.4,2.2c0.5,0.3,1.1,0.3,1.6-0.1l6.9-4.6c0.7-0.5,1.6-0.4,2.2,0.2L99,441
		c0.6,0.6,0.7,1.5,0.2,2.2l-4.6,6.9c-0.3,0.5-0.3,1.1-0.1,1.6c1,1.7,1.7,3.5,2.2,5.4c0.2,0.6,0.6,1,1.2,1.1l8.2,1.6
		c0.8,0.2,1.4,0.9,1.4,1.7v4.5c0,0.8-0.6,1.5-1.4,1.7l-8.2,1.6c-0.6,0.1-1,0.5-1.2,1.1c-0.4,1.4-0.9,2.7-1.5,4
		c-0.4,0.8,0,1.7,0.7,2.1c0.8,0.4,1.7,0,2.1-0.7c0.6-1.2,1-2.4,1.4-3.6l7.2-1.4c2.2-0.4,3.9-2.4,3.9-4.7v-4.5c0-2.3-1.6-4.3-3.9-4.7
		l-7.2-1.4c-0.5-1.5-1.1-3-1.8-4.3l4.1-6.2c1.3-1.9,1-4.5-0.6-6.1l-3.1-3.1c-1.6-1.6-4.2-1.9-6.1-0.6l-6.2,4.1
		c-1.4-0.7-2.8-1.3-4.3-1.8l-1.4-7.2c-0.4-2.2-2.4-3.9-4.7-3.9h-4.5c-2.3,0-4.3,1.6-4.7,3.9l-1.4,7.2c-1.5,0.5-3,1.1-4.3,1.8
		l-6.1-4.1c-1.9-1.3-4.5-1-6.1,0.6l-3.1,3.1c-1.6,1.6-1.9,4.2-0.6,6.1l4.1,6.2c-0.7,1.4-1.3,2.8-1.8,4.3l-7.2,1.4
		c-2.2,0.4-3.9,2.4-3.9,4.7v4.5c0,2.3,1.6,4.3,3.9,4.7l7.2,1.4c0.5,1.5,1.1,3,1.8,4.3l-4.1,6.2c-1.3,1.9-1,4.5,0.6,6.1l3.1,3.1
		c1.6,1.6,4.2,1.9,6.1,0.6l6.2-4.1c1.4,0.7,2.8,1.3,4.3,1.8l1.4,7.2c0.4,2.2,2.4,3.9,4.7,3.9h4.5c2.3,0,4.3-1.6,4.7-3.9l1.4-7.2
		c1.2-0.4,2.4-0.8,3.5-1.4C85.7,488.4,86,487.5,85.6,486.7z M108,493.1c3.1,0,5.6,2.5,5.6,5.6c0,0.9,0.7,1.5,1.5,1.5
		c0.9,0,1.5-0.7,1.5-1.5c0-4.8-3.9-8.6-8.6-8.6c-4.8,0-8.6,3.9-8.6,8.6c0,4.8,3.9,8.6,8.6,8.6c1.9,0,3.8-0.6,5.3-1.8
		c0.7-0.5,0.8-1.5,0.3-2.2c-0.5-0.7-1.5-0.8-2.2-0.3c-1,0.8-2.2,1.2-3.4,1.2c-3.1,0-5.6-2.5-5.6-5.6
		C102.4,495.6,104.9,493.1,108,493.1z M73,473.1c-5.2,0-9.4-4.2-9.4-9.4c0-5.2,4.2-9.4,9.4-9.4c5.2,0,9.4,4.2,9.4,9.4
		C82.4,468.9,78.2,473.1,73,473.1z M73,470c3.5,0,6.3-2.8,6.3-6.3c0-3.5-2.8-6.3-6.3-6.3c-3.5,0-6.3,2.8-6.3,6.3
		C66.7,467.2,69.5,470,73,470z M130.2,493.6l-4.5-0.9c-0.3-0.8-0.6-1.6-1-2.4l2.5-3.8c1-1.5,0.8-3.4-0.5-4.7l-2.1-2.1
		c-1.2-1.2-3.2-1.4-4.7-0.5l-3.8,2.5c-0.8-0.4-1.6-0.7-2.4-1l-0.9-4.5c-0.3-1.7-1.9-3-3.6-3h-2.9c-1.8,0-3.3,1.2-3.6,3l-0.9,4.5
		c-0.8,0.3-1.6,0.6-2.4,1l-3.8-2.5c-1.5-1-3.4-0.8-4.7,0.5l-2.1,2.1c-1.2,1.2-1.4,3.2-0.5,4.7l2.5,3.8c-0.5,1-0.9,2.1-1.3,3.3
		c-0.2,0.8,0.2,1.7,1.1,1.9c0.8,0.2,1.7-0.2,1.9-1.1c0.3-1.2,0.8-2.4,1.4-3.4c0.3-0.5,0.3-1.1-0.1-1.6l-3-4.5
		c-0.2-0.2-0.1-0.6,0.1-0.8l2.1-2.1c0.2-0.2,0.5-0.2,0.8-0.1l4.5,3c0.5,0.3,1.1,0.3,1.6,0.1c1.1-0.6,2.2-1.1,3.4-1.4
		c0.6-0.2,1-0.6,1.1-1.2l1.1-5.4c0.1-0.3,0.3-0.5,0.6-0.5h2.9c0.3,0,0.5,0.2,0.6,0.5l1.1,5.4c0.1,0.6,0.5,1,1.1,1.2
		c1.2,0.3,2.4,0.8,3.4,1.4c0.5,0.3,1.1,0.3,1.6-0.1l4.5-3c0.2-0.2,0.6-0.1,0.8,0.1l2.1,2.1c0.2,0.2,0.2,0.5,0.1,0.8l-3,4.5
		c-0.3,0.5-0.3,1.1-0.1,1.6c0.6,1.1,1.1,2.2,1.4,3.4c0.2,0.6,0.6,1,1.2,1.1l5.4,1.1c0.3,0.1,0.5,0.3,0.5,0.6v2.9
		c0,0.3-0.2,0.5-0.5,0.6l-5.4,1.1c-0.6,0.1-1,0.5-1.2,1.1c-0.3,1.2-0.8,2.4-1.4,3.4c-0.3,0.5-0.3,1.1,0.1,1.6l3,4.5
		c0.2,0.2,0.1,0.6-0.1,0.8l-2.1,2.1c-0.2,0.2-0.5,0.2-0.8,0.1l-4.5-3c-0.5-0.3-1.1-0.3-1.6-0.1c-1.1,0.6-2.2,1.1-3.4,1.4
		c-0.6,0.2-1,0.6-1.1,1.2l-1.1,5.4c-0.1,0.3-0.3,0.5-0.6,0.5h-2.9c-0.3,0-0.5-0.2-0.6-0.5l-1.1-5.4c-0.1-0.6-0.5-1-1.1-1.2
		c-1.2-0.3-2.4-0.8-3.4-1.4c-0.5-0.3-1.1-0.3-1.6,0.1l-4.5,3c-0.2,0.2-0.6,0.1-0.8-0.1l-2.1-2.1c-0.2-0.2-0.2-0.5-0.1-0.8l3-4.5
		c0.3-0.5,0.3-1.1,0.1-1.6c-0.6-1.1-1.1-2.2-1.4-3.4c-0.2-0.6-0.6-1-1.2-1.1l-5.4-1.1c-0.3-0.1-0.5-0.3-0.5-0.6v-2.9
		c0-0.3,0.2-0.5,0.5-0.6l0.3-0.1c0.8-0.2,1.4-1,1.2-1.8c-0.2-0.8-1-1.4-1.8-1.2l-0.3,0.1c-1.7,0.3-3,1.9-3,3.6v2.9
		c0,1.8,1.2,3.3,3,3.6l4.5,0.9c0.3,0.8,0.6,1.6,1,2.4l-2.5,3.8c-1,1.5-0.8,3.4,0.5,4.7l2.1,2.1c1.2,1.2,3.2,1.4,4.7,0.5l3.8-2.5
		c0.8,0.4,1.6,0.7,2.4,1l0.9,4.5c0.3,1.7,1.9,3,3.6,3h2.9c1.8,0,3.3-1.2,3.6-3l0.9-4.5c0.8-0.3,1.6-0.6,2.4-1l3.8,2.5
		c1.5,1,3.4,0.8,4.7-0.5l2.1-2.1c1.2-1.2,1.4-3.2,0.5-4.7l-2.5-3.8c0.4-0.8,0.7-1.6,1-2.4l4.5-0.9c1.7-0.3,3-1.9,3-3.6v-2.9
		C133.2,495.5,131.9,494,130.2,493.6z"
    />
</g>
<g id="fond_categorie">
	<circle cx="555.8" cy="481.1" r="333.7" />
</g>
<g id="picto_titre_badge">
	<path
      d="M714,393c-1.3-12.6-11.2-22.3-23.4-23.2c-10.7-0.8-21.5-1.4-31.9-1.8c-18.6-0.8-37.4-1.1-56.1-1
		c1.2-27.4,0.4-55-2.5-82.2c-1.3-12.2-10.8-21.7-22.7-22.5c-40.5-2.9-81.6-3.5-122-1.8c-10.1,0.4-20.4,1-30.7,1.8
		c-11.8,0.9-21.4,10.3-22.7,22.5c-4,38.2-4,76.9,0,115c1.3,12.2,10.8,21.7,22.7,22.6l2.4,0.2c3.4,0.2,6,3.2,6,6.7V452
		c0,5.4,2.9,10.3,7.6,12.7c1.9,1,4,1.5,6.1,1.5c2.9,0,5.8-1,8.3-2.9c4.6-3.6,9-7.3,13.1-11c1.9-1.8,2.1-4.8,0.4-6.8
		c-1.7-2-4.6-2.2-6.6-0.4c-3.9,3.5-8.1,7.1-12.6,10.6c-1.3,1.1-3,1.2-4.6,0.5c-1.5-0.8-2.4-2.3-2.4-4v-22.9
		c0-8.6-6.5-15.7-14.7-16.3l-2.4-0.2c-7.3-0.5-13.3-6.4-14.1-14c-4-37.5-4-75.5,0-112.9c0.8-7.6,6.7-13.4,14.1-14
		c10.2-0.7,20.4-1.3,30.4-1.8c40.1-1.7,80.8-1.2,121,1.8c7.3,0.5,13.3,6.4,14.1,14c4,37.5,4,75.5,0,113c-0.2,1.5-0.5,3-1.1,4.5
		c-2.3,5.4-7.2,9.1-12.9,9.5c-26.8,2-54.2,2.9-81.2,2.7c0,0-0.1,0-0.1,0c-5.2,0-10,2.6-13,7c-2.1,3.1-4.6,6.3-7.5,9.6
		c-1.7,2-1.6,5,0.3,6.8c1.9,1.8,4.9,1.6,6.6-0.3c3.2-3.6,5.9-7.2,8.2-10.6c1.2-1.8,3.2-2.8,5.3-2.8h0c3.5,0,6.9,0,10.4,0
		c-1.4,29.1-0.6,58.5,2.5,87.6c0.3,2.6,0.9,5.1,1.9,7.4c3.8,9.1,12,15.1,21.5,15.8c28.2,2,56.8,3,85.2,2.9h0c2.3,0,4.4,1.1,5.7,3
		c9.6,14.3,25.1,27.9,36.4,36.8c2.5,2,5.5,3,8.5,3c2.1,0,4.2-0.5,6.2-1.5c4.8-2.5,7.8-7.4,7.8-13v-23.8c0-3.7,2.8-6.9,6.5-7.1l0.1,0
		c0.8-0.1,1.6-0.1,2.4-0.2c12.2-0.9,22.1-10.7,23.4-23.3c0.1-1.3,0.3-2.6,0.4-3.9c0.3-2.6-1.6-5-4.2-5.3c-2.6-0.3-4.9,1.6-5.1,4.3
		c-0.1,1.3-0.3,2.6-0.4,3.9c-0.8,8-7.1,14.2-14.8,14.7c-0.8,0.1-1.6,0.1-2.3,0.2l-0.1,0c-8.5,0.6-15.2,7.9-15.2,16.7V567
		c0,1.9-1,3.5-2.6,4.4c-1.6,0.8-3.5,0.7-4.9-0.5c-10.8-8.5-25.5-21.4-34.4-34.6c-3-4.5-8-7.2-13.3-7.2c0,0-0.1,0-0.1,0
		c-28.1,0.1-56.5-0.8-84.5-2.8c-6-0.4-11.2-4.3-13.6-10c-0.6-1.5-1-3-1.2-4.7c-3-28.7-3.9-57.9-2.4-86.6c20.8-0.3,41.7-1.2,62.2-2.7
		c9.2-0.7,17.2-6.5,20.8-15.3c1-2.3,1.6-4.7,1.8-7.2c0.8-7.7,1.5-15.5,2-23.2c18.7-0.2,37.6,0.2,56.2,1c10.4,0.4,21,1.1,31.6,1.8
		c7.7,0.6,14,6.7,14.8,14.7c3.3,31.4,4,63.3,1.9,94.7c-0.2,2.7,1.8,4.9,4.3,5.1c0.1,0,0.2,0,0.3,0c2.4,0,4.5-1.9,4.6-4.5
		C718.1,457.4,717.4,424.9,714,393L714,393z"
    />
	<path
      d="M671,462.3c0.1-3.8-1.3-7.4-3.9-10.1c-0.5-0.5-1-0.9-1.5-1.3c1.4-2.2,2.1-4.8,2.1-7.6c0-3.8-1.4-7.4-4-10
		c-2.6-2.7-6-4.2-9.7-4.2h-18.4l6.9-15.2c3.9-8.6,0.3-18.9-8-23c-2.2-1.1-4.6-1.6-7.1-1.6c-6.4,0-12.4,3.9-15.1,9.9l-4.3,9.4
		c-2.2,4.8-5.6,8.6-9.8,11.2c-4.1,2.5-7.4,6.2-9.5,10.6c-1.5-0.7-3.1-1.1-4.8-1.1h-14c-6.5,0-11.8,5.5-11.8,12.2V500
		c0,6.7,5.3,12.2,11.8,12.2h14c2.2,0,4.3-0.6,6.1-1.8c3.3,2.2,7.2,3.4,11.2,3.4h49.5c7.6,0,13.7-6.4,13.7-14.2
		c0-1.8-0.3-3.5-0.9-5.1c0,0,0-0.1,0-0.1c-0.3-0.8-0.7-1.6-1.1-2.3c3.3-2.6,5.4-6.7,5.4-11.2c0-2.7-0.7-5.3-2.1-7.6
		C668.8,470.7,670.9,466.7,671,462.3L671,462.3z M569.9,502.5c-1.4,0-2.5-1.1-2.5-2.5v-58.6c0-1.4,1.1-2.5,2.5-2.5h14
		c1.4,0,2.5,1.1,2.5,2.5V500c0,1.4-1.1,2.5-2.5,2.5H569.9z M657.2,466.6H654c-2.6,0-4.7,2.2-4.7,4.8s2.1,4.8,4.7,4.8
		c1.2,0,2.3,0.5,3.1,1.3c0.8,0.9,1.3,2,1.3,3.2c0,2.5-2,4.6-4.4,4.6h-3.3c-2.6,0-4.7,2.2-4.7,4.8s2.1,4.8,4.7,4.8
		c1.2,0,2.3,0.5,3.1,1.3c0.4,0.4,0.7,0.9,1,1.5c0,0,0,0,0,0.1c0.2,0.5,0.3,1.1,0.3,1.7c0,2.5-2,4.6-4.4,4.6h-49.5
		c-2.1,0-4-0.6-5.8-1.6c0.2-0.8,0.3-1.7,0.3-2.6c0,0,0-58.6,0-58.6c0-2.2,0.4-4.3,1.2-6.4c1.3-2.9,3.3-5.3,6-6.9
		c5.9-3.6,10.5-8.9,13.5-15.4l4.3-9.4c1.2-2.7,3.8-4.4,6.7-4.4c1.1,0,2.1,0.2,3.1,0.7c3.7,1.8,5.3,6.3,3.5,10.1l-10,21.9
		c-0.7,1.5-0.6,3.2,0.2,4.5c0.1,0.1,0.1,0.2,0.2,0.3c0.9,1.4,2.3,2.2,3.9,2.2H654c1.2,0,2.3,0.5,3.1,1.3c0.8,0.9,1.3,2,1.3,3.2
		c0,2.5-2,4.6-4.4,4.6c-2.6,0-4.7,2.2-4.7,4.8s2.1,4.8,4.7,4.8h3.1c1.3,0,2.5,0.5,3.4,1.5c0.8,0.9,1.3,2,1.3,3.2
		C661.6,464.5,659.6,466.6,657.2,466.6L657.2,466.6z"
    />
	<path
      d="M544.2,321.5c0-9.8-4.7-17.8-10.4-17.8c-5.7,0-10.4,8-10.4,17.8c0,9.8,4.7,17.8,10.4,17.8
		C539.5,339.3,544.2,331.3,544.2,321.5z"
    />
	<path
      d="M478.8,321.5c0-9.8-4.7-17.8-10.4-17.8c-5.7,0-10.4,8-10.4,17.8c0,9.8,4.7,17.8,10.4,17.8
		C474.2,339.3,478.8,331.3,478.8,321.5z"
    />
	<path
      d="M501.1,384.9c16.7,0,31.7-10.3,38.2-26.2c1-2.5-0.1-5.3-2.5-6.3c-2.4-1-5.1,0.1-6.1,2.6
		c-5,12.3-16.7,20.3-29.6,20.3c-13,0-24.6-8-29.6-20.3c-1-2.5-3.7-3.6-6.1-2.6c-2.4,1-3.5,3.9-2.5,6.3
		C469.4,374.6,484.4,384.9,501.1,384.9L501.1,384.9z"
    />
</g>
<g>
	<g id="texte_titre_badge">
		<path class="st20" d="M364.7,628.5h-9.8v-6.9h27.9v6.9h-9.9v29.4h-8.2V628.5z" />
		<path class="st20" d="M395.4,621.6v36.3h-8.2v-36.3H395.4z" />
		<path class="st20" d="M409.6,628.5h-9.8v-6.9h27.9v6.9h-9.9v29.4h-8.2V628.5z" />
		<path
        class="st20"
        d="M432.1,622.1c2.6-0.4,6.5-0.8,10.9-0.8c5.4,0,9.2,0.8,11.7,2.9c2.2,1.7,3.4,4.3,3.4,7.6
			c0,4.6-3.3,7.8-6.4,8.9v0.2c2.5,1,3.9,3.4,4.9,6.8c1.1,4.1,2.2,8.8,2.9,10.2h-8.4c-0.6-1.1-1.5-4-2.5-8.5c-1-4.5-2.5-5.8-5.9-5.8
			h-2.4v14.3h-8.1V622.1z M440.2,637.7h3.2c4.1,0,6.5-2.1,6.5-5.2c0-3.3-2.3-5-6-5c-2,0-3.1,0.1-3.7,0.3V637.7z"
      />
		<path
        class="st20"
        d="M485.6,642.6h-13.4v8.6h14.9v6.7H464v-36.3h22.4v6.7h-14.2v7.6h13.4V642.6z"
      />
		<path
        class="st20"
        d="M503.7,622.1c3-0.5,7-0.8,11.1-0.8c6.9,0,11.4,1.3,14.9,3.9c3.8,2.8,6.1,7.2,6.1,13.7c0,7-2.5,11.8-6,14.7
			c-3.8,3.2-9.7,4.7-16.7,4.7c-4.3,0-7.3-0.3-9.3-0.5V622.1z M511.9,651.7c0.7,0.1,1.9,0.1,2.9,0.1c7.4,0.1,12.3-4,12.3-12.7
			c0-7.5-4.4-11.5-11.5-11.5c-1.8,0-3,0.2-3.7,0.3V651.7z"
      />
		<path
        class="st20"
        d="M549.3,621.6v20.9c0,6.3,2.4,9.5,6.6,9.5c4.3,0,6.7-3,6.7-9.5v-20.9h8.2V642c0,11.2-5.7,16.5-15.2,16.5
			c-9.2,0-14.5-5.1-14.5-16.6v-20.3H549.3z"
      />
		<path
        class="st20"
        d="M588.8,622.1c2.2-0.4,6.5-0.8,10.6-0.8c5,0,8.1,0.5,10.7,2c2.5,1.4,4.3,3.8,4.3,7.2c0,3.2-1.9,6.2-6,7.7v0.1
			c4.1,1.1,7.2,4.2,7.2,8.9c0,3.3-1.5,5.9-3.8,7.7c-2.7,2.1-7,3.3-14.3,3.3c-4,0-7-0.3-8.9-0.5V622.1z M596.9,636h2.7
			c4.3,0,6.6-1.8,6.6-4.5c0-2.8-2.1-4.2-5.8-4.2c-1.8,0-2.8,0.1-3.5,0.3V636z M596.9,652.1c0.8,0.1,1.8,0.1,3.1,0.1
			c3.7,0,7-1.4,7-5.3c0-3.6-3.3-5.1-7.3-5.1h-2.8V652.1z"
      />
		<path
        class="st20"
        d="M629.7,648.6l-2.6,9.3h-8.5l11.1-36.3h10.7l11.3,36.3H643l-2.8-9.3H629.7z M639,642.5l-2.3-7.7
			c-0.6-2.1-1.3-4.9-1.8-7h-0.1c-0.5,2.1-1.1,4.9-1.7,7l-2.2,7.7H639z"
      />
		<path
        class="st20"
        d="M656.7,622.1c3-0.5,7-0.8,11.1-0.8c6.9,0,11.4,1.3,14.9,3.9c3.8,2.8,6.1,7.2,6.1,13.7c0,7-2.5,11.8-6,14.7
			c-3.8,3.2-9.7,4.7-16.7,4.7c-4.3,0-7.3-0.3-9.3-0.5V622.1z M664.9,651.7c0.7,0.1,1.9,0.1,2.9,0.1c7.4,0.1,12.3-4,12.3-12.7
			c0-7.5-4.4-11.5-11.5-11.5c-1.8,0-3,0.2-3.7,0.3V651.7z"
      />
		<path
        class="st20"
        d="M724.5,656.2c-2.5,0.9-7.3,2-12.1,2c-6.6,0-11.4-1.7-14.8-4.9c-3.3-3.2-5.2-7.9-5.1-13.2
			c0-12.1,8.8-18.9,20.7-18.9c4.7,0,8.3,0.9,10.1,1.7l-1.7,6.6c-2-0.9-4.5-1.5-8.4-1.5c-6.8,0-12,3.8-12,11.7
			c0,7.5,4.7,11.9,11.5,11.9c1.9,0,3.4-0.2,4-0.5v-7.6h-5.6v-6.4h13.5V656.2z"
      />
		<path
        class="st20"
        d="M752.5,642.6h-13.4v8.6H754v6.7h-23.1v-36.3h22.4v6.7h-14.2v7.6h13.4V642.6z"
      />
	</g>
</g>
</svg>
