<?xml version="1.0" encoding="utf-8"?>
<!-- Generator: Adobe Illustrator 27.0.0, SVG Export Plug-In . SVG Version: 6.00 Build 0)  -->
<svg version="1.1" id="Calque_1" xmlns="http://www.w3.org/2000/svg" xmlns:xlink="http://www.w3.org/1999/xlink" x="0px" y="0px"
	 viewBox="0 0 1000 1000" style="enable-background:new 0 0 1000 1000;" xml:space="preserve">
<style type="text/css">
	.st0{fill:#FFFFFF;stroke:#1D1D1B;stroke-width:5;stroke-miterlimit:10;}
	.st1{fill:#028283;}
	.st2{fill:#FFFFFF;}
	.st3{fill:none;stroke:#1D1D1B;stroke-width:5;stroke-miterlimit:10;}
	.st4{fill:#FDD5A6;}
	.st5{fill:#FC6541;}
	.st6{fill:#6F584B;}
	.st7{opacity:0.67;fill:#028283;enable-background:new    ;}
	.st8{opacity:0.5;}
	.st9{fill:none;stroke:#000000;stroke-width:5;stroke-miterlimit:10;}
	.st10{stroke:#000B13;stroke-width:2;stroke-miterlimit:10;}
	.st11{fill:#028283;stroke:#000B13;stroke-width:3;stroke-miterlimit:10;}
	.st12{fill:#000B13;stroke:#000B13;stroke-width:2;stroke-miterlimit:10;}
	.st13{fill:#FFFCFF;stroke:#FFFCFF;stroke-width:5;stroke-miterlimit:10;}
	.st14{fill:none;stroke:#FC6541;stroke-width:4;stroke-miterlimit:10;}
	.st15{fill-rule:evenodd;clip-rule:evenodd;fill:#FC6541;}
	.st16{opacity:0.65;fill-rule:evenodd;clip-rule:evenodd;fill:#FFBC85;}
	.st17{fill-rule:evenodd;clip-rule:evenodd;fill:#FFE5C1;}
	.st18{fill-rule:evenodd;clip-rule:evenodd;fill:#028283;}
	.st19{opacity:0.8;fill-rule:evenodd;clip-rule:evenodd;fill:#F5A96C;}
	.st20{opacity:0.8;}
	.st21{fill-rule:evenodd;clip-rule:evenodd;fill:#F5A96C;}
	.st22{fill-rule:evenodd;clip-rule:evenodd;fill:#FED1A3;}
	.st23{fill-rule:evenodd;clip-rule:evenodd;fill:#FB2A39;}
	.st24{fill:#FFFCFF;}
	.st25{fill:#FFFFFF;stroke:#000000;stroke-miterlimit:10;}
</style>
<path class="st0" d="M561.7,69.7"/>
<path class="st0" d="M528.3,87.3"/>
<path class="st1" d="M897.8,382c8.2,30.3,12.6,62.1,12.6,95c0,197.2-157.2,357.1-351.2,357.1S208,674.3,208,477
	c0-31.6,4-62.3,11.6-91.6"/>
<g>
	<path class="st2" d="M338.2,678.4c18.2-0.8,36.3-1.6,54.5-2.4c0,5.7,0,11.2,0,16.8c-16.9,0.9-37.9,2.5-55.1,3.5"/>
	<path class="st2" d="M338.2,522c6.3,0.3,12.7,0.5,19.2,0.8c0,16.2,0,32.2,0,48.5c6.5,0.1,13,0.1,19.5,0.2c0,5.4,0,10.6,0,15.9
		c-12.9,0-25.8,0-38.7,0"/>
	<path class="st2" d="M338.5,490.2c0,0,44,3,54.2,3.5c7.6,0.4,15.2,0.7,22.8,1c14.8,0.5,29.6,1.1,44.4,1.6
		c12.3,0.4,24.6,0.7,36.9,0.8c22.2,0.3,44.3,0.5,66.5,0.5c33.4,0,66.8-0.5,100.1-1.5c6.3-0.2,12.7-0.4,19-0.6
		c11.8-0.4,23.6-0.9,35.5-1.4c6.6-0.3,13.3-0.6,19.9-0.9c8.5-0.4,16.9-0.9,25.4-1.4c5.8-0.3,11.5-0.7,17.3-1.1
		c1.6-0.1,3.2-0.1,4.7-0.1c0,5.7,0,11.4,0,17c-0.4,0.1-0.7,0.2-1.1,0.2c-8.6,0.4-17.3,0.9-25.9,1.2c-12.5,0.6-25.1,1.1-37.6,1.6
		c-6.1,0.3-12.2,0.5-18.3,0.6c-17.1,0.5-34.1,1-51.2,1.4c-8.8,0.2-17.5,0.3-26.3,0.5c-30.1,0.5-60.1,0.7-90.2,0.4
		c-20.1-0.2-40.2-0.4-60.3-0.7c-15.1-0.3-30.2-0.7-45.3-1.1c-10.9-0.3-21.8-0.7-32.7-1.1c-12.1-0.5-24.2-1-36.3-1.6
		c-6.6-0.3-13.2-0.6-19.7-0.9c-0.6,0-1.2,0-1.8,0"/>
	<path class="st2" d="M785.2,489.5c0,0.1,0,0.3,0,0.5c-0.7,0-1.4-0.1-2.2-0.1"/>
	<path class="st2" d="M337.5,489.8"/>
	<path class="st2" d="M337.7,696.4"/>
	<path class="st2" d="M785.3,696.3c-16.8-0.9-37.5-2.8-54.4-3.7c0-5.5,0-11.1,0-16.6c0.2,0,0.3-0.1,0.5-0.1
		c7.1,0.3,14.1,0.6,21.2,0.9c4.9,0.2,9.7,0.4,14.6,0.7c5.7,0.3,11.4,0.6,17.1,0.9c0.4,0,0.7,0.2,1.1,0.3
		C785.4,684.6,785.4,690.4,785.3,696.3"/>
	<path class="st2" d="M785.2,587c-0.4,0-0.9,0.1-1.3,0.1c-12.9,0.1-25.8,0.1-38.7,0.2c-0.5,0-0.9,0-1.5,0c0-21.3,0-42.5,0-63.8
		c0.6,0,1.2-0.1,1.8-0.1c8.9-0.3,17.9-0.7,26.8-1c4.3-0.2,8.6-0.4,12.8-0.5c0,2.7,0,5.4,0,8.1c-1.1,2.8-2.1,5.5-3.2,8.4
		c-6.4,0.2-12.7,0.4-19,0.7c0,2.5,0,4.8,0,7.2c6.4-0.2,12.6-0.3,18.9-0.5c0,5.5,0,10.8,0,16.2c-6.4,0.1-12.6,0.3-18.9,0.4
		c0,3.1,0,5.9,0,8.9c0.7,0,1.3,0,2,0c6.7-0.1,13.5-0.2,20.2-0.2C785.2,576.3,785.2,581.6,785.2,587z"/>
	<path class="st2" d="M364.9,663.5c0-21.5,0-42.9,0-64.3c0.5,0,0.9-0.1,1.3-0.1c12.3,0,24.5-0.1,36.8-0.1c1.3,0,2.6,0.1,3.8,0.6
		c3,1.1,4.3,3.6,4.6,6.7c0,0.3,0,0.7,0,1c0,15.4,0,30.8,0,46.2c0,1.9-0.3,3.7-1.4,5.3c-1.4,1.9-3.2,3-5.6,3.2
		c-1.4,0.1-2.8,0.2-4.2,0.2c-10,0.3-20,0.7-30,1C368.5,663.3,366.8,663.4,364.9,663.5z M391.8,646.7c0.4-1.5,0.3-30.5,0-31.6
		c-2-0.2-6.6-0.1-7.5,0.2c-0.3,2.2-0.2,30.5,0.1,31.4C386.9,646.7,389.4,646.7,391.8,646.7z"/>
	<path class="st2" d="M732.1,563.9c1.4,3.5,2.6,7,4.1,10.4s2.3,6.8,2,10.5c-0.1,0.8,0,1.5,0,2.3c-1.1,0.3-17.2,0.4-19,0.1
		c-1.7-6.4-3.5-12.9-5.2-19.4c-1.3,0-2.5,0-3.9,0c-0.1,3.3,0,6.5,0,9.7s0,6.4,0,9.8c-6.5,0-12.9,0-19.2,0c-0.3-1-0.4-60.6-0.1-62.2
		c0.3,0,0.6-0.1,0.9-0.1c6.3-0.2,12.5-0.4,18.8-0.5c6-0.2,12-0.4,18-0.6c1.6-0.1,3.2,0,4.7,0.7c2.8,1.4,4,3.8,4.1,6.8
		c0.1,3.3,0,6.6,0,10c0,4.7-0.1,9.3,0,14C737.3,559.2,735.9,562.1,732.1,563.9z M710.1,551.9c2.6,0,5.1,0,7.5,0
		c0.3-2.2,0.2-10.8-0.1-11.6c-2.5,0-4.9,0-7.4,0C710.1,544.3,710.1,548.1,710.1,551.9z"/>
	<path class="st2" d="M710.4,661.6c-6.9-0.2-13.7-0.3-20.5-0.5c-3.1-9.7-6.1-19.2-9.2-28.8c-0.4,0-0.9-0.1-1.3-0.1
		c-0.1,0.2-0.2,0.4-0.1,0.6c0.2,2.2,0.5,4.4,0.7,6.6c0.5,4.4,1.2,8.8,1.6,13.2c0.2,2.7,0,5.5,0,8.4c-5.9-0.1-11.7-0.2-17.5-0.4
		c-0.3-1.2-0.4-59.9-0.1-61.7c6.8,0,13.6,0,20.5,0c3,9.6,6,19.2,9.1,28.8c0.5,0,1,0,1.6,0c-0.2-1.8-0.4-3.5-0.6-5.1
		c-0.6-5.1-1.4-10.1-1.8-15.2c-0.3-2.8,0-5.6,0-8.4c5.9,0,11.8,0,17.8,0C710.4,619.8,710.4,640.6,710.4,661.6z"/>
	<path class="st2" d="M537.7,526.8c6.8,0,13.5,0,20.4,0c3,9.3,6,18.6,9.1,28.1c0.5,0,1,0.1,1.6,0.1c-0.1-1.3-0.3-2.6-0.4-3.8
		c-0.7-5.6-1.5-11.2-2.1-16.7c-0.3-2.5,0-5,0-7.6c6,0,11.8,0,17.7,0c0,0,0.1,0,0.1,0.1l0.1,0.1c0,0.3,0.1,0.7,0.1,1
		c0,19.7,0,39.4,0,59c0,0.1-0.1,0.3-0.1,0.5c-6.8,0-13.5,0-20.4,0c-0.2-0.5-0.4-1.1-0.6-1.7c-2.7-8.4-5.5-16.7-8.2-25.1
		c-0.4-1.3-0.4-1.3-1.9-1.2c0,0.3,0,0.6,0,0.9c0.8,6.4,1.7,12.9,2.3,19.3c0.3,2.5,0,5.1,0,7.7c-6,0-11.8,0-17.5,0
		C537.5,586.5,537.4,528.7,537.7,526.8z"/>
	<path class="st2" d="M418.5,599c6.5,0,12.9,0,19.4,0c0.2,3.8,0.1,7.7,0.1,11.6c0,3.9,0,7.8,0,11.7c0,3.8,0,7.7,0,11.5
		c0,3.9,0,7.8,0,11.7c2.6,0,5.1,0,7.7,0c0-15.5,0-31,0-46.3c1.1-0.3,17-0.5,19.2-0.2c0.3,1,0.4,59.1,0.1,61.5
		c-0.3,0-0.6,0.1-0.9,0.1c-12.4,0.3-24.8,0.6-37.2,0.9c-1.4,0-2.8,0-4.1-0.6c-2.3-1-3.6-2.8-4.1-5.2c-0.2-0.8-0.2-1.6-0.2-2.4
		c0-17.5,0-35,0-52.5C418.5,600.1,418.5,599.7,418.5,599z"/>
	<path class="st2" d="M656.2,572.1c2.7,0,5.1,0,7.7,0c0.2-3.9,0-7.7,0.1-11.5c0-3.8,0-7.7,0-11.5s0-7.7,0-11.5s0-7.7,0-11.7
		c6.4-0.1,12.8-0.3,19.1-0.4c0.3,1.2,0.5,59.3,0.2,62.1c-0.4,0-0.8,0.1-1.2,0.1c-12.3,0-24.5,0.1-36.8,0.1c-1.5,0-3.1-0.1-4.5-0.8
		c-2.3-1.1-3.6-3-3.9-5.5c-0.1-0.7-0.1-1.3-0.1-2c0-17.1,0-34.2,0-51.2c0-0.5,0-1,0-1.8c6.5-0.1,12.8-0.2,19.4-0.4
		C656.2,541.3,656.2,556.6,656.2,572.1z"/>
	<path class="st2" d="M437.8,587.5c-6.4,0-12.8,0-19.3,0c-0.4-4.2-0.8-8.3-1.2-12.6c-2.9,0-5.6,0-8.5,0c-0.4,4.1-0.8,8.3-1.3,12.5
		c-6.5,0-12.8,0-19.2,0c0-0.5-0.1-0.9-0.1-1.3c-0.3-4.8,0.4-9.6,1.2-14.3c2.4-15.3,4.8-30.6,7.2-45.9c0.1-0.5,0.2-1,0.3-1.7
		c10.7,0.3,21.4,0.6,32.3,0.9c0.3,1.6,0.5,3.2,0.8,4.7c1.4,8.8,2.8,17.6,4.2,26.5c1.2,7.7,2.5,15.4,3.6,23.1
		C438.1,582,437.8,584.8,437.8,587.5z M412,540.5c-0.4,1.3-1.9,17.4-1.7,18.6c1.8,0,3.6,0,5.5,0c-0.6-6.3-1.2-12.4-1.8-18.6
		C413.2,540.5,412.6,540.5,412,540.5z"/>
	<path class="st2" d="M629.3,647.8c-0.4,4-0.8,8-1.2,11.9c-1.1,0.3-17.5,0.2-19.3-0.1c0-0.2-0.1-0.5-0.1-0.8
		c-0.2-4.3,0.2-8.5,1-12.8c1.5-8.6,2.8-17.2,4.2-25.7c1.1-6.9,2.2-13.8,3.4-20.6c0-0.3,0.1-0.6,0.2-0.9c10.7,0,21.4,0,32.2,0
		c0.1,0.4,0.2,0.7,0.3,1.1c2.4,14.7,4.8,29.4,7.2,44.1c0.5,2.8,1,5.6,1.3,8.4c0.2,2.6,0,5.3,0.1,8.1c-6.4-0.1-12.8-0.2-19.3-0.3
		c-0.4-4.1-0.8-8.1-1.2-12.3C635,647.8,632.2,647.8,629.3,647.8z M634.6,614.1c-0.8,0-1.5,0.1-2.2,0.1c-0.6,6.1-1.2,12.1-1.7,18.2
		c2,0.1,3.8,0.1,5.7,0C635.8,626.2,635.2,620.2,634.6,614.1z"/>
	<path class="st2" d="M476.1,587.6c-9.8,0-19.4,0-29.2,0c-0.3-1.4-0.5-2.8-0.8-4.2c-2.5-14.4-5-28.9-7.5-43.3
		c-0.5-2.8-1-5.7-1.5-8.5c-0.3-2-0.2-4-0.1-6.2c6.5,0.1,12.8,0.3,19.3,0.4c1.3,15.5,2.7,30.9,4,46.4c0.8,0,1.4,0,2.3,0
		c1.4-15.3,2.6-30.6,4-46.1c6.4-0.1,12.7,0.1,19.3,0.3c0,2,0.2,4-0.1,5.9c-1.8,10.7-3.7,21.3-5.6,32c-1.3,7.3-2.6,14.7-3.8,22
		C476.3,586.7,476.2,587.1,476.1,587.6z"/>
	<path class="st2" d="M512.7,598.8c6.5,0,12.8,0,19.3,0c0.1,1.8,0.2,3.7-0.1,5.4c-1.7,9.9-3.5,19.8-5.2,29.7c-1.4,8-2.8,16-4.2,24
		c-0.1,0.6-0.2,1.1-0.4,1.9c-9.7,0.1-19.4,0.2-29.2,0.3c-0.4-2.5-0.9-4.8-1.3-7.2c-1.8-10.1-3.6-20.3-5.4-30.4
		c-1.1-6.1-2.2-12.2-3.2-18.3c-0.3-1.7,0-3.4,0-5.3c6.4,0,12.8,0,19.3,0c1.3,15.2,2.7,30.4,4,45.7c0.7,0,1.4,0,2.3,0
		C510.1,629.3,511.4,614.1,512.7,598.8z"/>
	<path class="st2" d="M590.1,598.8c6.5,0,12.8,0,19.3,0c0,1.9,0.3,3.7,0,5.5c-1.9,11.1-3.9,22.2-5.8,33.2
		c-1.2,6.8-2.4,13.6-3.6,20.4c-0.1,0.5-0.2,1-0.3,1.7c-9.7,0-19.4,0-29.2,0c-0.3-1.8-0.7-3.5-1-5.3c-2.4-13.5-4.8-27.1-7.2-40.6
		c-0.6-3.2-1.2-6.4-1.7-9.7c-0.2-1.7,0-3.4,0-5.3c6.4,0,12.8,0,19.3,0c1.3,15.1,2.7,30.2,4,45.5c0.8,0,1.4,0,2.3,0
		C587.5,629.1,588.8,614,590.1,598.8z"/>
	<path class="st2" d="M528.9,564c-6.3,0-12.6,0-18.8,0c-0.3,1.1-0.4,6.6-0.1,8.4c7.3,0,14.5,0,21.8,0c0.4,1.2,0.5,12.6,0.2,15.1
		c-1,0.3-39.7,0.3-41.4,0c0-20.3,0-40.6,0-61.1c13.8,0.1,27.5,0.2,41.5,0.4c0,1.3-0.1,2.5,0,3.7c0.2,2.7-0.3,5.1-1.5,7.5
		c-0.6,1.2-1.1,2.6-1.6,4c-6.3,0-12.6,0-19.1,0c0,2.3,0,4.5,0,6.9c6.3,0,12.6,0,18.9,0.1C528.9,554,528.9,558.9,528.9,564z"/>
	<path class="st2" d="M746.1,662.8c-6.6-0.2-12.9-0.4-19.4-0.6c0-15.8,0-31.5,0-47.4c-3.9-0.1-7.7-0.1-11.5-0.2
		c-0.3-1.2-0.4-14.2-0.1-15.7c14.3,0,28.7,0,43,0c0.1,0.2,0.3,0.2,0.3,0.3c0,2.5,0.1,5,0.1,7.5c0,0.2,0,0.4-0.1,0.6
		c-1,2.6-1.9,5.1-3,7.7c-3.1,0-6.2,0-9.3,0C746.1,630.9,746.1,646.7,746.1,662.8z"/>
	<path class="st2" d="M619.8,541.8c0,7.8,0,15.4,0,23c0,7.5,0,15.1,0,22.7c-6.5,0-12.9,0-19.4,0c-0.1-2.5,0-5.1,0-7.6s0-5,0-7.5
		s0-5.1,0-7.6s0-5,0-7.5s0-5.1,0-7.6s0-5,0-7.7c-2-0.1-3.9,0-5.8,0c-1.9,0-3.7,0-5.6,0c-0.3-1.1-0.4-12.6-0.2-15
		c0.9-0.3,41.7-0.8,43.5-0.5c0,1.3-0.1,2.6,0,4c0.2,2.4-0.2,4.6-1.3,6.7c-0.6,1.2-1,2.4-1.4,3.6c-0.3,0.8-0.7,1-1.5,1
		c-2.2,0-4.4,0-6.6,0C620.9,541.8,620.5,541.8,619.8,541.8z"/>
	<path class="st2" d="M555.8,659.5c-6.3,0-12.6,0-18.9,0c-0.3-1.1-0.4-59-0.1-60.7c6.3,0,12.6,0,19,0
		C556,599.8,556.2,657.8,555.8,659.5z"/>
	<path class="st2" d="M367.7,523.2c5.7,0.2,11.4,0.4,17.1,0.6c0.1,0.5,0.1,0.8,0.1,1.2c0,3.7,0,7.3,0,11c0,0.4,0,0.8-0.1,1.1
		c-1.1,3.1-2.3,6.2-3.5,9.3c-1.2,0-2.4,0-3.5,0s-2.3-0.1-3.6-0.1c0-2.3,0-4.5,0-6.8c-2.3-0.1-4.4-0.2-6.5-0.3
		C367.5,538.3,367.4,525.1,367.7,523.2z"/>
	<path class="st2" d="M438.6,674.4c1.9,0,3.8,0,5.7,0c0.4,2,0.8,4.1,1.3,6.2c1-2,1-4.3,1.7-6.4c1.8,0,3.6,0,5.5,0
		c0.6,1.5,2,14.6,1.7,16.2c-1.5,0-3.1,0-4.8,0c0-2.5,0-5,0-7.5c-0.1,0-0.3,0-0.4,0c-0.7,2.5-0.8,5.1-1.4,7.7
		c-1.4,0.1-2.7,0.1-4.2,0.2c-0.5-2.7-0.9-5.2-1.3-7.8c-0.1,0-0.2,0-0.4,0c-0.2,2.5,0.1,5.1-0.2,7.8c-1.6,0-3.2,0-5,0
		C437.2,685.3,438.1,680,438.6,674.4z"/>
	<path class="st2" d="M699.9,674.7c3.6,0.1,7,0.2,10.4,0.4c1.1,0.1,1.8,0.8,1.9,2c0.1,2.2,0.1,4.4,0,6.6c0,0.7-0.7,1.4-1.1,2.3
		c0.4,1.7,1.9,3.4,1.3,5.8c-1.6-0.1-3.1-0.1-4.8-0.2c-0.4-1.5-0.8-2.9-1.2-4.3c-0.2-0.8-0.2-0.8-1.3-0.8c0,1.6,0,3.2,0,5
		c-1.8-0.1-3.4-0.2-5-0.2C699.9,685.8,699.9,680.4,699.9,674.7z M705,682.2c0.7,0,1.3,0,1.9,0c0-1,0-2,0-3c-0.7,0-1.3,0-1.9,0
		C705,680.2,705,681.1,705,682.2z"/>
	<path class="st2" d="M646.3,673.5c1.7,0,3.4,0,5.2,0c0.8,2.5,1.6,5,2.4,7.5c0.1,0,0.2,0,0.2,0c0-0.2,0.1-0.5,0.1-0.7
		c-0.2-1.4-0.4-2.9-0.5-4.3c-0.1-0.8,0-1.5,0-2.3c1.5,0,3,0,4.6,0c0,5.5,0,10.8,0,16.2c-1.8,0-3.5,0-5.3,0c-1-2.4-1.5-5-2.7-7.4
		c-0.2,2.4,0.7,4.8,0.3,7.3c-1.5,0-2.9,0-4.3,0C646.1,688.6,646,675.1,646.3,673.5z"/>
	<path class="st2" d="M641.7,689.5c-1.6,0-3.2,0-4.9,0c-0.4-1.5-0.8-2.9-1.2-4.3c-0.2-0.6-0.4-1-1.3-0.7c0,1.5,0,3.1,0,4.8
		c-1.7,0.1-3.4,0-4.9,0c-0.3-1.1-0.4-13.8-0.1-16.1c0.3,0,0.6-0.1,0.9-0.1c2.9,0,5.8,0.1,8.6,0.1c0.3,0,0.7,0,1,0.1
		c1.1,0.2,1.6,0.8,1.7,1.9c0,2.2,0.1,4.3,0,6.5c0,0.7-0.6,1.4-1.1,2.3C640.8,685.6,642.2,687.2,641.7,689.5z M634.4,677.3
		c0,1,0,2,0,3c0.7,0,1.2,0,1.9,0c0.1-1,0.2-2-0.1-3C635.6,677.3,635.1,677.3,634.4,677.3z"/>
	<path class="st2" d="M512.3,683.2c0.5,1.5,1.1,2.9,1.5,4.3c0.1,0.4,0,0.9,0,1.5c-1.7,0-3.4,0-5.1,0c-0.4-1.4-0.8-2.7-1.2-4.1
		c-0.2-0.6-0.5-0.9-1.3-0.5c0,1.5,0,3.1,0,4.8c-1.7,0-3.3,0-4.9,0c-0.3-0.9-0.4-14.3-0.1-16c0.3,0,0.6-0.1,1-0.1
		c2.9,0,5.8-0.1,8.7-0.1c2,0,2.6,0.6,2.6,2.6c0,1.6,0,3.3,0,4.9C513.7,681.6,513.4,682.5,512.3,683.2z M506.5,677.1c0,1.1,0,2,0,2.9
		c0.7,0,1.3,0,1.9,0c0-1,0-2,0-2.9C507.7,677.1,507.1,677.1,506.5,677.1z"/>
	<path class="st2" d="M545.3,672.6c3.4,0,6.8,0,10.2,0c1.3,0,2,0.7,2,2.1c0,2,0,3.9,0,5.9c0,1-0.5,1.6-1.3,2.2
		c0.4,0.9,0.7,1.9,1.1,2.8c0.4,0.9,0.6,1.9,0.4,3c-1.6,0-3.2,0-4.9,0c-0.4-1.4-0.8-2.7-1.2-4.1c-0.2-0.6-0.4-1-1.2-0.7
		c0,1.5,0,3.1,0,4.9c-1.7,0.1-3.3,0-4.9,0.1C545.1,687.7,545,674.7,545.3,672.6z M550.4,676.7c0,1.1,0,2,0,3c0.7,0,1.3-0.1,1.9-0.1
		c0-1.1,0-1.9,0-2.9C551.6,676.7,551.1,676.7,550.4,676.7z"/>
	<path class="st2" d="M573.6,672.7c1.8,0,3.4,0,5.3,0c0.8,2.4,1.6,4.9,2.4,7.4c0.1,0,0.2,0,0.3,0c0-0.2,0.1-0.5,0.1-0.7
		c-0.2-1.5-0.4-3-0.5-4.4c-0.1-0.7,0-1.4,0-2.2c1.6,0,3,0,4.4,0c0.3,1,0.4,13.9,0.1,16c-1.7,0-3.4,0-5.3,0c-0.8-2.4-1.6-4.8-2.4-7.3
		c-0.1,0-0.2,0-0.3,0.1c0,2.4,0.8,4.7,0.4,7.2c-1.5,0-2.9,0-4.3,0C573.4,687.7,573.3,674.8,573.6,672.7z"/>
	<path class="st2" d="M685.2,674.4c1.7,0,3.3,0,5,0c0,4.2,0,8.2,0,12.4c0.8,0,1.4,0,2.1,0c0-4,0-8.1,0-12.3c1.7-0.1,3.3,0,4.9,0.1
		c0.3,1.1,0.4,14.6,0.1,16.5c-0.3,0-0.7,0.1-1.1,0.1c-2.7-0.1-5.5-0.2-8.2-0.3c-0.2,0-0.5,0-0.7,0c-1.6-0.2-2.2-0.8-2.2-2.4
		c0-1.5,0-3.1,0-4.6c0-2.7,0-5.4,0-8.1C685.2,675.3,685.2,674.9,685.2,674.4z"/>
	<path class="st2" d="M588.2,688.7c0-5.3,0-10.6,0-16c0.4,0,0.8-0.1,1.1-0.1c2.7,0,5.5,0,8.2,0c0.4,0,0.9,0,1.3,0.1
		c0.9,0.1,1.4,0.8,1.6,1.6c0.1,0.3,0,0.7,0,1c0,3.6,0,7.2,0,10.8c0,2-0.6,2.6-2.6,2.6c-3,0-6-0.1-8.9-0.1
		C588.7,688.8,588.5,688.8,588.2,688.7z M595.2,684.8c0-2.7,0-5.3,0-7.9c-0.4,0-0.7-0.1-1.1-0.1c-0.3,0-0.5,0.1-0.9,0.1
		c0,2.7,0,5.3,0,7.9C594,684.8,594.6,684.8,595.2,684.8z"/>
	<path class="st2" d="M670.7,673.9c1.1,3.7,2.6,14.9,2.3,16.3c-1.6,0-3.2,0-4.9,0c-0.1-1.1-0.3-2.1-0.4-3.2c-0.7,0-1.4-0.1-2.2-0.1
		c-0.1,1.1-0.3,2.1-0.4,3.1c-1.6,0-3.2,0-5,0c0-0.9-0.1-1.7,0-2.5c0.7-4.4,1.4-8.8,2.1-13.2c0-0.1,0.1-0.3,0.2-0.4
		C665.2,673.9,668,673.9,670.7,673.9z M667.3,682.7c0-1.6-0.2-3.2-0.5-5c-0.7,1-1,3.2-0.8,5C666.4,682.7,666.8,682.7,667.3,682.7z"
		/>
	<path class="st2" d="M622.1,673.1c1.8,0,3.3,0,5,0c0,5.4,0,10.7,0,16.1c-0.5,0-0.9,0.1-1.3,0.1c-2.8,0-5.6-0.1-8.4-0.2
		c-2-0.1-2.6-0.6-2.6-2.6c0-4,0-8.1,0-12.1c0-0.4,0-0.8,0.1-1.4c1.6,0,3.2,0,4.9,0c0.4,1.3,0.1,2.7,0.2,4c0,1.3,0,2.6,0,3.9
		c0,1.3,0,2.7,0,4.2c0.7,0,1.3,0.1,2.1,0.1c0.2-1.4,0.1-2.7,0.1-4.1c0-1.3,0-2.7,0-4C622.1,675.8,622.1,674.4,622.1,673.1z"/>
	<path class="st2" d="M542.9,672.8c0.3,1.8,0.2,2.1-0.8,3.9c-1.9,0-3.9,0-6.1,0c0,2.7,0,5.3,0,8c0.6,0,1.2,0,1.9,0
		c0-1.7,0.1-3.5,0.1-5.3c1.7,0,3.3,0,5,0c0.1,3,0,6.1,0,9.2c-0.4,0.1-0.7,0.1-1,0.1c-2.9,0-5.9,0.1-8.8,0c-1.9,0-2.5-0.6-2.5-2.5
		c0-3.8,0-7.5,0-11.3c0-1.6,0.7-2.4,2.2-2.4c3.2-0.1,6.3,0,9.5,0C542.7,672.7,542.8,672.7,542.9,672.8z"/>
	<path class="st2" d="M564.3,685.6c-0.1,1-0.3,2-0.4,3c-1.6,0-3.2,0-5,0c0-0.7-0.1-1.4,0-2.1c0.7-4.4,1.4-8.8,2.2-13.2
		c0-0.2,0.1-0.4,0.2-0.6c2.8,0,5.5,0,8.5,0c0.8,5.3,1.9,10.5,2.4,16c-1.8,0.2-3.4,0.1-5.1,0.1c-0.2-1-0.3-2-0.5-3.1
		C565.8,685.6,565.1,685.6,564.3,685.6z M566.1,681.4c-0.1-1-0.1-1.7-0.2-2.5c-0.1-0.7,0-1.6-0.8-2.2c-0.2,1.5-0.3,3.1-0.5,4.7
		C565.2,681.4,565.6,681.4,566.1,681.4z"/>
	<path class="st2" d="M456.6,674c2.2,0.3,3.7-0.8,4.9-2.3c0.3-0.4,0.7-0.7,1.1-1c0.7,0.7,1.3,1.4,1.9,2.1c-0.1,0.1-0.3,0.4-0.5,0.7
		c0,0.1,0.1,0.2,0.1,0.2c1.1,0,2.2,0,3.3,0c0.4,1.6,0,2.8-0.8,4.2c-1.6,0-3.2,0-4.9,0c0,0.7,0,1.2,0,1.8c1.6,0,3.2,0,4.9,0
		c0,1.4,0,2.6,0,4c-1.6,0.1-3.2,0.2-4.8,0.3c0,0.7,0,1.4,0,2.2c1.9,0,3.7,0,5.7,0c0,1.3,0,2.5,0,4c-3.6,0.1-7.2,0.2-10.8,0.3
		C456.6,684.8,456.6,679.5,456.6,674z"/>
	<path class="st2" d="M410.2,675.4c3.5-0.1,7-0.3,10.6-0.4c0.5,1.5,0,2.7-0.6,4.1c-1.6,0.1-3.2,0.2-4.9,0.3c0,0.6,0,1.1,0,1.7
		c1.6,0,3.2,0,4.8,0c0.3,1.3,0.2,2.6,0.1,4c-1.6,0.1-3.2,0.2-4.9,0.3c0,0.7,0,1.4,0,2.2c1.9,0,3.7,0,5.7,0c0,1.3,0,2.6,0,4
		c-3.6,0.2-7.1,0.3-10.6,0.5C410,691,409.9,677.1,410.2,675.4z"/>
	<path class="st2" d="M724.8,675.6c0.4,1.6,0,2.8-0.7,4.1c-1.6,0-3.2,0-5,0c0,0.6,0,1.1,0,1.8c1.7,0.1,3.3,0.2,4.9,0.3
		c0,1.4,0,2.6,0,4c-1.6,0-3.2,0-4.9,0c0,0.7,0,1.4,0,2.2c1.8,0.4,3.8,0.1,5.7,0.4c0.2,1.3,0.1,2.6,0,4.1c-3.6-0.2-7.2-0.3-10.7-0.5
		c-0.4-1.1-0.4-15.1-0.1-16.7C717.6,675.3,721.2,675.5,724.8,675.6z"/>
	<path class="st2" d="M499.4,685.3c0,1.4,0,2.6,0,4c-3.7,0-7.2,0-10.9,0c0-5.3,0-10.6,0-16.1c3.6,0,7.2,0,10.8,0
		c0.4,1.2,0,2.3-0.5,3.4c-0.2,0.5-0.6,0.5-1.1,0.5c-1.3,0-2.7,0-4.1,0c0,0.7,0,1.2,0,1.8c1.6,0,3.2,0,4.9,0c0,1.4,0,2.6,0,4
		c-1.6,0-3.2,0-4.9,0c0,0.8,0,1.5,0,2.3C495.5,685.3,497.4,685.3,499.4,685.3z"/>
	<path class="st2" d="M613.2,672.9c0.4,1.5,0,2.7-0.7,3.9c-1.6,0-3.2,0-5,0c0,0.6-0.1,1.1-0.1,1.8c1.7,0,3.3,0,5,0c0,1.4,0,2.6,0,4
		c-1.6,0-3.2,0-4.9,0c0,0.8,0,1.5,0,2.3c1.9,0,3.7,0,5.6,0c0.4,1.4,0.2,2.6,0.2,3.8c-1.1,0.3-8.7,0.3-10.8,0.1
		c-0.3-1-0.4-14.4-0.1-15.9C606.1,672.9,609.7,672.9,613.2,672.9z"/>
	<path class="st2" d="M422.2,691.6c0-1.5,0-2.7,0-4.1c1.9-0.1,3.8-0.2,5.6-0.3c0.4-0.7,0.1-1.2-0.4-1.5c-1.2-0.7-2.3-1.5-3.5-2.2
		s-1.8-1.7-1.7-3.1c0-1.1,0-2.1,0-3.2c0-1.5,0.6-2.2,2-2.3c2.9-0.2,5.8-0.2,8.8-0.3c0.5,1.6,0,2.8-0.7,4.1c-1.7,0.2-3.4-0.1-5.3,0.4
		c0.6,0.5,0.8,0.9,1.2,1.1c1.2,0.8,2.3,1.5,3.5,2.3c1.1,0.6,1.5,1.5,1.5,2.8s0,2.5,0,3.8c0,1.2-0.7,2.1-1.7,2.1
		C428.4,691.3,425.3,691.4,422.2,691.6z"/>
	<path class="st2" d="M515.2,688.9c0-1.3,0-2.5,0-3.8c1.9,0,3.8,0,5.5,0c0.5-0.8,0.2-1.2-0.4-1.6c-1.1-0.7-2.2-1.5-3.4-2.2
		c-1.4-0.8-1.9-1.9-1.8-3.5c0.1-1,0-2,0-3c0.1-1.1,0.6-1.8,1.6-1.9c3.1-0.1,6.1,0,9.2,0c0.4,1.3,0,2.5-0.7,3.8
		c-1.6,0.1-3.3,0.1-4.9,0.2c-0.3,0.7,0.1,0.9,0.5,1.1c1.2,0.8,2.3,1.5,3.5,2.3c1.2,0.7,1.8,1.7,1.7,3.1c-0.1,1.2,0,2.3,0,3.5
		c0,1.3-0.6,2-1.8,2C521.4,689,518.4,688.9,515.2,688.9z"/>
	<path class="st2" d="M476.5,689.8c-1.8,0-3.4,0-5.1,0c0-4,0-7.9,0-12.1c-1.1,0-2,0-3,0c0-1.4,0-2.7,0-4.1c3.8,0,7.5,0,11.3,0
		c0.5,1.4-0.1,2.6-0.8,3.8c-0.7,0.1-1.5,0.1-2.4,0.2C476.5,681.7,476.5,685.7,476.5,689.8z"/>
	<path class="st2" d="M398.6,675.8c1.7,0,3.3,0,5,0c0,4.1,0,8.1,0,12.3c1.8,0,3.4,0,5.2,0c0,1.4,0,2.6,0,4
		c-3.4,0.2-6.7,0.3-10.2,0.5C398.6,686.9,398.6,681.4,398.6,675.8z"/>
	<path class="st2" d="M680.9,690.7c-1.8-0.1-3.3-0.2-5.1-0.2c-0.1-4.1,0-8.1-0.1-12.3c-1-0.1-1.9-0.1-3-0.2c0-1.3,0-2.5,0-3.9
		c3.7-0.2,7.5,0.1,11.3,0.2c0.5,1.5,0,2.7-0.7,4c-0.7,0-1.5,0.1-2.5,0.1c0,2.1,0,4.1,0,6.2C680.9,686.5,680.9,688.5,680.9,690.7z"/>
	<path class="st2" d="M481.2,673.4c1.7,0,3.2,0,4.9,0c0,5.4,0,10.7,0,16.2c-1.6,0-3.2,0-4.8,0C481,688.6,480.9,675.8,481.2,673.4z"
		/>
</g>
<g>
	<circle class="st2" cx="556" cy="298.8" r="160.6"/>
	<circle class="st3" cx="556" cy="298.8" r="141.6"/>
	<g id="layer1" transform="translate(0 -280.067)">
		<path id="path3700" class="st4" d="M495.2,597.5c6.2-6.2,12.5-12.5,25-12.5h65.6c6,0,11,4.2,12.1,9.8l27.6-27.7
			c4.6-4.6,11.9-4.6,16.5,0s3.7,11.2,0,16.5c-5.9,8.4-19.3,27.8-26.5,38.2c-5.9,8.6-13.7,13.2-23.5,13.2h-53.1
			c-6.2,0-9.4,3.1-12.5,6.2l-37.5-37.5L495.2,597.5z"/>
		<path id="path3702" class="st5" d="M463.9,616.2l18.7-18.7l50,50l-18.7,18.7L463.9,616.2z"/>
		<path id="path3780" class="st6" d="M520.2,585h65.6c6,0,11,4.2,12.1,9.8l14.7-14.7c-7.2-7.3-23.1-20.1-45.5-20.1
			c-31.2,0-50,25.2-50,25.2C518.1,585.1,519.1,585,520.2,585L520.2,585z"/>
		<path id="path3872" class="st1" d="M598.3,485c-20.8,0-37.5,16.7-37.5,37.5v37.8c2-0.2,4.1-0.4,6.2-0.4c2.2,0,4.2,0.2,6.2,0.4
			v-37.8h15.7c20.8,0,37.5-16.7,37.5-37.5H598.3z"/>
		<path id="path3874" class="st7" d="M507.7,485c0,20.8,16.7,37.5,37.5,37.5h15.6c0-6.6,1.7-12.8,4.7-18.2
			c-6.4-11.5-18.6-19.3-32.8-19.3H507.7z"/>
		<path id="path4034-7-6" vector-effect="none" d="M507.6,481.9c-1.7,0-3.1,1.4-3.1,3.1c0,22.4,18.2,40.6,40.6,40.6h12.5v21.9
			c0,4.2,6.3,4.1,6.3,0v-25c0-19.1,15.3-34.4,34.4-34.4h24.9c-1.6,17.6-16.2,31.2-34.2,31.2h-15.6c-1.7,0-3.1,1.4-3.1,3.1v25
			c0,4.2,6.3,4.1,6.2,0v-21.9h12.4c22.3,0,40.4-18,40.6-40.5c0-1.9-1.4-3.3-3.1-3.3h-28.2c-21.4,0-38.8,16.5-40.4,37.5h-12.6
			c-18,0-32.7-13.6-34.2-31.2h21.7c8.2,0,15.6,2.8,21.4,7.5c3.3,3,7.6-2.3,3.9-4.9c-6.9-5.5-15.8-8.9-25.3-8.9L507.6,481.9z
			 M525.1,494.4c-2.5,0.2-3.9,2.8-2.6,4.8c2.9,4.7,6.7,8.8,11.7,11.4c3.8,2.2,6.8-3.8,2.8-5.6c-3.7-1.9-6.8-5.2-9.2-9.1
			C527.3,495,526.3,494.4,525.1,494.4z M608.7,494.4c-1.2,0.1-2.1,0.6-2.7,1.5c-2.4,4-5.5,7.2-9.2,9.1c-4,1.8-1,7.7,2.8,5.6
			c5-2.6,8.8-6.7,11.7-11.4C612.7,497.1,611.3,494.5,608.7,494.4L608.7,494.4z M567,556.9c-16.5,0-29.6,6.6-38.5,13.1
			c-3.5,2.4,0.3,7.7,3.7,5.1c8.2-6,20.1-11.9,34.9-11.9c14.1,0,25.5,5.4,33.7,11c3.4,2.5,7.1-2.8,3.6-5.1
			C595.3,562.9,582.7,556.9,567,556.9L567,556.9z M633.7,560.6c-3.8,0-7.6,1.5-10.5,4.3l-18.3,18.4c-3,3,1.5,7.4,4.4,4.4l18.3-18.3
			c3.4-3.4,8.7-3.4,12.1,0c1.7,1.7,2.3,3.5,2.2,5.7s-1,4.6-2.5,6.8c-6,8.5-19.3,27.8-26.5,38.2c-5.5,7.9-12.1,11.8-20.9,11.8h-53.1
			c-4.8,0-9.5,3.1-12.3,5.2l4.4,4.4c2-1.5,4.8-3.3,7.9-3.3H592c10.7,0,19.7-5.3,26.1-14.5c7.2-10.4,20.6-29.8,26.5-38.1
			c2.2-3.1,3.5-6.6,3.7-10.2c0.1-3.6-1.1-7.4-4-10.3C641.3,562.1,637.5,560.6,633.7,560.6L633.7,560.6z M520.1,581.9
			c-13.5,0-20.9,7.1-27.2,13.4l-4,4.1l-4-4c-0.7-0.7-1.6-1-2.6-0.9c-0.7,0.1-1.4,0.4-1.9,0.9l-18.7,18.8c-1.2,1.2-1.2,3.2,0,4.4
			l40.6,40.6c3,3.1,7.5-1.5,4.4-4.4l-38.4-38.4l14.3-14.3l45.6,45.6l-16.5,16.5c-3.2,2.9,1.5,7.6,4.4,4.4l18.7-18.8
			c1.2-1.2,1.2-3.2,0-4.4l-41.5-41.5l4-4c6.2-6.2,11.3-11.6,22.8-11.6h65.6c5.2,0,9.4,4.1,9.4,9.4c0,5.2-4.1,9.4-9.4,9.4h-34.4
			c-4.2,0-4.2,6.2,0,6.2h34.4c8.6,0,15.6-7,15.6-15.6s-7-15.6-15.6-15.6L520.1,581.9z"/>
	</g>
</g>
<g>
	<g>
		<path class="st5" d="M406.7,908.8c3,0.4,6,0.9,9,1.3c-1.2,9-2.5,17.9-3.7,26.9c-1.6,12.1-7.9,15.6-17,14.2c-2.2-0.3-5-1.1-6.7-2.1
			c0.8-2.5,1.5-5,2.3-7.5c1.2,0.6,2.8,1.2,4.6,1.5c3.9,0.6,6.6-0.9,7.6-7.5C404.1,926.6,405.4,917.7,406.7,908.8z"/>
		<path class="st5" d="M426,942.1c-0.2,4,3.4,6.4,7.7,6.9c3.2,0.4,5.8,0.2,8.4-0.4c0.2,2.2,0.4,4.4,0.6,6.6c-3.3,1-7.1,1.2-11.1,0.7
			c-10.2-1.2-15.3-8.1-14-17.7c1.1-7.9,6.8-15.9,16.9-14.7c9.5,1.1,12.2,9.2,11.4,16.9c-0.2,1.7-0.5,3.1-0.7,3.8
			C438.8,943.6,432.4,942.9,426,942.1z M437.7,936.8c0.3-2.3-0.3-6.4-4.4-6.9c-3.9-0.5-5.9,3.1-6.5,5.6
			C430.4,936,434,936.4,437.7,936.8z"/>
		<path class="st5" d="M485,959.5c-1.7,0.7-4.9,1.1-8.5,0.9c-9.8-0.7-15.5-7.5-14.6-17.2c0.8-9.1,7.4-15.9,18.3-15.1
			c2.4,0.2,5,0.8,6.9,1.7c-0.6,2.4-1.3,4.7-1.9,7.1c-1.1-0.6-2.7-1.2-5.1-1.4c-4.9-0.4-8.3,3-8.6,8.1c-0.5,5.7,3,9,7.5,9.4
			c2.2,0.2,4-0.1,5.5-0.6C484.6,954.7,484.8,957.1,485,959.5z"/>
		<path class="st5" d="M520.6,946.1c-0.4,11.4-8.4,16.3-16.5,15.9c-8.8-0.4-15.3-6.9-14.6-16.9c0.7-10,7.3-16,16.7-15.6
			C515.1,930,520.9,936.7,520.6,946.1z M499,945.5c-0.3,5.3,1.7,9.5,5.7,9.7c3.7,0.2,6.1-3.5,6.4-9.1c0.2-4.6-1.3-9.4-5.4-9.6
			C501.2,936.2,499.2,940.9,499,945.5z"/>
		<path class="st5" d="M526.5,941c0.1-3.9,0.1-7.2,0-10c2.6,0.1,5.3,0.1,7.9,0.2c0.1,1.4,0.2,2.9,0.3,4.3c0.1,0,0.1,0,0.2,0
			c1.2-2,4.3-4.9,9.2-4.9c6,0.1,10.5,4.3,10.5,13.5c0,6.1,0,12.3,0,18.4c-3.1,0-6.3,0-9.4-0.1c0.1-5.8,0.1-11.5,0.2-17.3
			c0-4-1.3-6.8-4.6-6.8c-2.5,0-4.1,1.8-4.7,3.6c-0.2,0.6-0.4,1.5-0.4,2.4c-0.1,6-0.2,12-0.4,18c-3.1-0.1-6.3-0.1-9.4-0.2
			C526.1,955.1,526.3,948.1,526.5,941z"/>
		<path class="st5" d="M572.1,922.5c0,3,0.1,5.9,0.1,8.9c2.2,0,4.4-0.1,6.6-0.1c0.1,2.4,0.1,4.8,0.2,7.1c-2.2,0-4.4,0.1-6.6,0.1
			c0.1,3.8,0.1,7.5,0.2,11.3c0.1,3.8,1,5.5,3.8,5.4c1.2,0,2.1-0.2,2.8-0.3c0.1,2.5,0.2,4.9,0.2,7.4c-1.2,0.5-3.5,0.9-6.1,0.9
			c-3,0-5.6-1-7.1-2.6c-1.8-1.8-2.6-4.8-2.7-9.2c0-4.2-0.1-8.5-0.1-12.7c-1.3,0-2.6,0-3.9,0c0-2.4,0-4.8,0-7.1c1.3,0,2.6,0,3.9,0
			c0-2.2,0-4.5,0-6.7C566.2,924,569.1,923.3,572.1,922.5z"/>
		<path class="st5" d="M584.3,941.4c-0.1-4.6-0.3-7.6-0.5-10.3c2.6-0.1,5.2-0.1,7.9-0.2c0.2,1.9,0.4,3.8,0.5,5.8c0.1,0,0.2,0,0.2,0
			c1.4-4.6,4.9-6.6,7.7-6.8c0.8,0,1.3,0,2,0.1c0.1,3,0.3,6.1,0.4,9.1c-0.7-0.1-1.5-0.2-2.5-0.2c-3.4,0.1-5.6,2.1-6.1,5.2
			c-0.1,0.6-0.1,1.4-0.1,2.2c0.2,5.2,0.4,10.5,0.6,15.7c-3.1,0.1-6.3,0.2-9.4,0.3C584.7,955.3,584.5,948.3,584.3,941.4z"/>
		<path class="st5" d="M615.8,921.1c0.2,2.7-1.6,4.9-4.6,5.1c-2.9,0.2-4.9-1.9-5-4.6c-0.1-2.8,1.7-4.9,4.5-5.1
			C613.7,916.4,615.6,918.4,615.8,921.1z M608.4,961.4c-0.5-10.4-1-20.7-1.5-31.1c3.1-0.1,6.1-0.3,9.2-0.5
			c0.6,10.4,1.2,20.7,1.8,31.1C614.7,961.1,611.5,961.2,608.4,961.4z"/>
		<path class="st5" d="M625.1,960.4c0-2.1-0.1-5.8-0.3-9.3c-0.8-11.9-1.5-23.9-2.3-35.8c3-0.2,6-0.4,9-0.6
			c0.4,5.9,0.9,11.8,1.3,17.7c0,0,0.1,0,0.1,0c1.6-2.8,4.5-4.8,8.5-5.1c7-0.6,12.7,5.1,13.6,14.6c1.1,11.2-5.3,17.4-12.3,17.9
			c-3.5,0.3-7-0.8-9.4-4.3c0,0-0.1,0-0.1,0c0,1.5-0.1,2.9-0.1,4.4C630.4,960.1,627.8,960.3,625.1,960.4z M633.8,946.6
			c0,0.6,0.1,1.2,0.3,1.7c0.8,2.5,3.1,4.4,5.8,4.2c4-0.3,6.2-3.7,5.7-9.3c-0.4-4.8-2.8-8.5-7-8.1c-2.5,0.2-4.7,2.3-5.1,5.2
			c-0.1,0.6-0.1,1.2-0.1,1.8C633.6,943.5,633.7,945.1,633.8,946.6z"/>
		<path class="st5" d="M689.5,944.3c0.5,4,1,7.3,1.5,9.9c-2.7,0.3-5.4,0.7-8.1,1c-0.3-1.4-0.6-2.9-0.9-4.3c-0.1,0-0.1,0-0.2,0
			c-0.9,2-3.4,5.5-8.8,6.1c-6.1,0.7-11-2.8-11.9-12.4c-0.6-6.1-1.2-12.1-1.8-18.2c3-0.3,6.1-0.6,9.1-0.9c0.6,5.5,1.2,11.1,1.8,16.6
			c0.5,4.5,2.2,7.1,5.5,6.7c2.5-0.3,3.8-2.3,4.2-3.9c0.2-0.6,0.2-1.3,0.1-2.1c-0.7-6.1-1.4-12.3-2.1-18.4c3-0.4,6.1-0.7,9.1-1.1
			C687.7,930.3,688.6,937.3,689.5,944.3z"/>
		<path class="st5" d="M703.7,940c0.8,3.9,4.9,5.3,9.2,4.7c3.1-0.5,5.7-1.3,8-2.5c0.8,2.1,1.5,4.2,2.3,6.3c-2.9,1.8-6.6,3-10.6,3.6
			c-10.2,1.5-16.9-3.9-18.1-13.5c-1-7.9,2.5-17.1,12.6-18.6c9.4-1.4,14.2,5.8,15.5,13.4c0.3,1.7,0.3,3.1,0.3,3.8
			C716.4,938.1,710.1,939.1,703.7,940z M713.6,931.8c-0.3-2.3-1.9-6.1-6.1-5.5c-3.9,0.6-4.9,4.5-4.8,7.1
			C706.3,932.9,709.9,932.4,713.6,931.8z"/>
	</g>
</g>
<g>
	<g>
		<path class="st5" d="M401.3,116.6c-1.4,1.4-4.9,3.7-9.8,5.7c-14,5.7-24.8,1.3-29.7-9.1c-6-12.5,1.4-24.5,14.9-29.9
			c5.2-2.1,9.6-2.8,11.6-2.6c0.2,2.5,0.4,5,0.5,7.5c-2.3,0-5.4,0.4-8.9,1.8c-7.9,3.2-12.1,9.9-8.4,18.1c3.3,7.4,10.2,9.9,18.5,6.6
			c2.9-1.2,5.8-2.9,7.4-4.3C398.7,112.5,400,114.5,401.3,116.6z"/>
		<path class="st5" d="M433.3,91.5c2.9,10.3-3.7,17.3-11.7,19.9c-8.8,2.8-17.4,0-20.8-8.9c-3.3-8.9,1.3-17.1,11.8-20.5
			C422.5,78.8,430.9,83,433.3,91.5z M410.7,98.8c1.6,4.7,5.1,7.6,9.1,6.3c3.7-1.2,5-5.3,3.5-10.4c-1.3-4.1-4.4-7.9-8.9-6.4
			C409.6,89.9,409.2,94.7,410.7,98.8z"/>
		<path class="st5" d="M438.1,85c-1-3.5-1.9-6.5-2.7-9c2.9-0.8,5.7-1.5,8.6-2.2c0.5,1.2,0.9,2.5,1.4,3.8c0.1,0,0.1,0,0.2-0.1
			c0.9-2.1,3.2-5.6,8.8-6.8c4.3-1,8.1,0.3,10.1,3c0,0,0.1,0,0.1,0c0.9-1.8,2.1-3.2,3.6-4.4c1.6-1.3,3.6-2.2,6-2.6
			c6.4-1.1,11.9,2,13.3,10.7c0.9,5.7,1.8,11.4,2.7,17.1c-3.2,0.5-6.3,1-9.5,1.6c-0.9-5.2-1.9-10.5-2.8-15.7c-0.8-4.2-2.7-6.4-6-5.7
			c-2.4,0.4-3.7,2.2-4.1,4c-0.1,0.7,0,1.6,0.1,2.3c1.1,5.6,2.3,11.2,3.4,16.8c-3.1,0.6-6.3,1.3-9.4,2c-1.2-5.4-2.4-10.7-3.6-16.1
			c-0.8-3.6-2.8-5.7-6.1-5c-2.6,0.6-3.7,2.7-3.9,4.3c-0.1,0.8,0,1.6,0.2,2.3c1.4,5.5,2.8,11.1,4.1,16.6c-3.1,0.8-6.2,1.6-9.3,2.4
			C441.6,97.9,439.8,91.4,438.1,85z"/>
		<path class="st5" d="M495.3,73.5c-0.5-3.6-1.1-6.7-1.6-9.3c2.9-0.4,5.9-0.8,8.8-1.1c0.3,1.3,0.6,2.6,0.9,3.9c0.1,0,0.1,0,0.2,0
			c1.2-2,3.9-5.1,9.6-5.7c4.4-0.4,8,1.3,9.6,4.2c0,0,0.1,0,0.1,0c1.1-1.6,2.5-2.9,4.1-3.9c1.8-1.1,3.8-1.7,6.3-1.8
			c6.5-0.3,11.6,3.5,11.8,12.3c0.2,5.8,0.4,11.5,0.5,17.3c-3.2,0.1-6.4,0.2-9.6,0.4c-0.3-5.3-0.6-10.6-0.8-15.9
			c-0.2-4.2-1.9-6.6-5.3-6.4c-2.4,0.1-4,1.7-4.5,3.5c-0.2,0.7-0.3,1.6-0.2,2.3c0.4,5.7,0.9,11.4,1.3,17.1c-3.2,0.2-6.4,0.5-9.6,0.8
			c-0.5-5.5-1.1-10.9-1.6-16.4c-0.4-3.7-2.1-6.1-5.4-5.7c-2.7,0.3-4,2.2-4.5,3.8c-0.2,0.7-0.2,1.6-0.1,2.3c0.7,5.7,1.3,11.3,2,17
			c-3.2,0.4-6.4,0.8-9.5,1.2C497.1,86.7,496.2,80.1,495.3,73.5z"/>
		<path class="st5" d="M584,80.4c-0.2,3.8-0.3,7-0.3,9.4c-2.8-0.2-5.7-0.3-8.5-0.4c-0.1-1.4-0.2-2.8-0.3-4.2c-0.1,0-0.1,0-0.2,0
			c-1.3,1.8-4.4,4.7-10,4.6c-6.4-0.1-11.1-3.7-11.3-12.8c-0.1-5.8-0.2-11.5-0.2-17.3c3.5,0,7-0.1,10.5,0c0,5.3-0.1,10.5-0.1,15.8
			c0,4.3,1.5,6.9,5,6.9c2.7,0.1,4.4-1.6,5.1-3.1c0.3-0.5,0.4-1.2,0.4-1.9c0.2-5.8,0.4-11.7,0.6-17.5c3.5,0.1,7,0.3,10.5,0.4
			C584.7,67.1,584.4,73.7,584,80.4z"/>
		<path class="st5" d="M592.8,70.3c0.3-3.6,0.4-6.7,0.4-9.4c3,0.2,6.1,0.5,9.1,0.7c0,1.4,0.1,2.7,0.1,4.1c0.1,0,0.1,0,0.2,0
			c1.5-1.8,5.2-4.3,10.9-3.7c6.9,0.8,11.5,5.5,10.3,14c-0.8,5.7-1.6,11.5-2.4,17.2c-3.3-0.4-6.5-0.9-9.8-1.2
			c0.6-5.4,1.3-10.8,1.9-16.2c0.5-3.8-0.8-6.5-4.5-6.9c-2.8-0.3-4.7,1.3-5.6,2.9c-0.3,0.5-0.5,1.4-0.6,2.2
			c-0.5,5.6-1.1,11.2-1.6,16.9c-3.3-0.3-6.6-0.6-9.8-0.8C591.9,83.6,592.3,77,592.8,70.3z"/>
		<path class="st5" d="M646.9,97.7c0-1,0-2,0-3c-0.1,0-0.1,0-0.2,0c-2.5,1.9-5.9,2.5-9.6,1.9c-6.3-1.1-9.4-5.9-8.7-10.5
			c1.1-7.6,9.4-10.1,20.9-7.8c0-0.1,0-0.2,0.1-0.4c0.3-1.5-0.2-3.9-5.3-4.8c-3.4-0.6-7.1-0.2-9.5,0.6c-0.3-2-0.6-4-1-6.1
			c2.5-0.8,7.3-1.5,13.4-0.4c11.1,2.1,13.3,8.6,11.8,15.3c-0.7,3.3-1.5,6.7-2.2,10c-0.6,2.7-1,5.4-1,7.1
			C652.8,98.8,649.9,98.2,646.9,97.7z M648.5,83.8c-5.3-1.1-9.6-0.6-10.2,2.8c-0.4,2.3,1.1,3.8,3.3,4.2c2.4,0.4,4.7-0.6,5.7-2.4
			c0.2-0.4,0.4-1,0.5-1.5C648.1,85.9,648.3,84.9,648.5,83.8z"/>
		<path class="st5" d="M694.5,99.9c-1.1,3.6-2,6.7-2.6,9.1c-2.7-0.8-5.5-1.7-8.2-2.5c0.2-1.4,0.5-2.7,0.7-4.1c-0.1,0-0.1,0-0.2-0.1
			c-1.7,1.4-5.4,3.4-10.9,2c-6.2-1.6-9.9-6.3-7.9-15.1c1.3-5.6,2.7-11.2,4-16.8c3.4,0.8,6.8,1.6,10.2,2.5c-1.3,5.1-2.7,10.2-4,15.3
			c-1.1,4.2-0.3,7,3.1,7.9c2.6,0.7,4.7-0.5,5.7-1.8c0.4-0.4,0.7-1.1,0.9-1.8c1.6-5.6,3.2-11.2,4.9-16.8c3.4,1,6.8,2,10.1,3
			C698.5,87.2,696.5,93.6,694.5,99.9z"/>
		<path class="st5" d="M722.6,79.4c-1,2.6-1.9,5.3-2.9,7.9c2.4,0.8,4.8,1.7,7.1,2.6c-0.8,2.1-1.6,4.2-2.4,6.3
			c-2.3-0.9-4.7-1.7-7-2.6c-1.2,3.3-2.4,6.7-3.6,10c-1.2,3.3-0.8,5.2,2,6.2c1.2,0.4,2.2,0.7,2.9,0.8c-0.8,2.2-1.6,4.4-2.4,6.5
			c-1.4-0.1-3.7-0.5-6.3-1.5c-3-1.1-5.2-2.9-6.2-4.9c-1.2-2.2-1.2-5.2,0.2-9.1c1.3-3.8,2.5-7.6,3.8-11.4c-1.4-0.5-2.8-0.9-4.2-1.4
			c0.7-2.1,1.4-4.3,2.1-6.4c1.4,0.5,2.9,0.9,4.3,1.4c0.7-2,1.3-4,2-6C715.5,78.3,719,78.8,722.6,79.4z"/>
		<path class="st5" d="M733.4,111.4c-1.2,3.6,2,6.9,6.3,8.7c3.1,1.4,5.8,2.1,8.7,2.5c-0.4,2.1-0.9,4.1-1.3,6.2
			c-3.5-0.3-7.4-1.3-11.4-3c-9.9-4.2-13.7-11.8-10.4-20.4c2.6-7,10.7-12.8,21.6-8.2c10.2,4.4,10.8,13,7.7,19.5
			c-0.7,1.4-1.4,2.6-1.9,3.1C746.3,116.9,739.9,114,733.4,111.4z M746.9,110.3c0.9-2,1.4-5.9-3-7.8c-4.1-1.7-7.1,0.9-8.3,3
			C739.5,107.1,743.2,108.7,746.9,110.3z M762.2,90.7c-3.9,1.6-7.8,3.2-11.6,4.8c-2.2-1-4.5-1.9-6.7-2.9c3-2,6.1-4,9.2-6
			C756.1,87.9,759.2,89.3,762.2,90.7z"/>
	</g>
</g>
<g class="st8">
	<path class="st9" d="M172.1,618.1"/>
	<g>
		<path d="M152.3,629.3l6.2-9.7l4.9,3.1l-6.2,9.7L152.3,629.3z"/>
		<path d="M134.6,621.4l3.7-10.9l5.5,1.9l-3.7,10.9L134.6,621.4z"/>
		<path d="M115.5,607.5h5.8v11.5h-5.8L115.5,607.5z"/>
		<path d="M92.9,612.3l5.5-1.9l3.7,10.9l-5.5,1.9L92.9,612.3z"/>
		<path d="M73.3,622.6l4.9-3.1l6.2,9.7l-4.9,3.1L73.3,622.6z"/>
		<path d="M166,655.5l1.5-1.9l-1.6-1.8c-0.2-0.2-5.3-6.1-13.7-12c-11.2-7.9-22.9-12.1-34-12.1c-11,0-22.8,4.2-33.9,12.1
			c-8.4,5.9-13.5,11.8-13.7,12l-1.6,1.9l1.6,1.9c0.2,0.2,5.3,6.1,13.7,12c11.2,7.9,22.9,12.1,33.9,12.1c5.5,0,11.2-1,16.9-3
			c0.4,0.7,0.9,1.3,1.4,1.9l14.3,14.3l12.2-12.2l-12-12C160.5,662.3,165.8,655.8,166,655.5L166,655.5z M128.5,658.1
			c-5.6,5.6-14.8,5.6-20.4,0c-2.7-2.7-4.2-6.3-4.2-10.2s1.5-7.5,4.2-10.2c2.8-2.8,6.5-4.2,10.2-4.2c3.7,0,7.4,1.4,10.2,4.2
			c2.7,2.7,4.2,6.3,4.2,10.2S131.3,655.4,128.5,658.1z M87.9,663c-5.1-3.6-8.9-7.2-11-9.3c2.1-2.1,5.9-5.7,11-9.3
			c3.6-2.5,8.2-5.3,13.5-7.4c-2.1,3.2-3.2,7-3.2,10.9c0,5.4,2.1,10.5,5.9,14.3c3.9,3.9,9.1,5.9,14.3,5.9c4.3,0,8.5-1.3,12.1-4
			l4.6,4.6c-0.3,0.7-0.6,1.4-0.7,2.2c-5.4,2-10.8,3.1-16,3.1C106,673.9,94.9,667.9,87.9,663L87.9,663z M151,684.6l-10.2-10.2
			c-1.1-1.1-1.1-3,0-4.1c1.1-1.1,3-1.1,4.1,0l10.2,10.2L151,684.6z M146.6,664.6c-2.4-1.2-5.2-1.2-7.6,0l-4.6-4.6
			c2.6-3.5,4-7.7,4-12.1c0-3.9-1.1-7.7-3.2-10.9c5.3,2.1,9.9,4.9,13.5,7.4c5.1,3.6,9,7.2,11,9.3C157.6,656.2,153,660.6,146.6,664.6z
			"/>
	</g>
	<g>
		<g>
			<g>
				<path class="st10" d="M128.5,662.3l4.1-4.1l8.2,8.1l-4.1,4.1L128.5,662.3z"/>
			</g>
		</g>
		<g id="Vision_1_">
			<g>
				<g>
					<path class="st11" d="M151,692.8l-14.3-14.2c-2.8-2.7-3.8-8.4,0-12.2c3.1-3.1,8-3.4,11.4-0.7c12.4,12.3,15.7,15.5,15.1,14.9
						L151,692.8z"/>
				</g>
			</g>
		</g>
		<g>
			<g>
				<g>
					<g>
						<path class="st12" d="M104,662.3c-7.9-7.9-7.9-20.6,0-28.5c7.6-7.6,21-7.6,28.6,0c7.9,7.9,7.9,20.6,0,28.5
							C124.7,670.2,111.9,670.2,104,662.3L104,662.3z"/>
					</g>
				</g>
			</g>
		</g>
		<path class="st12" d="M118.3,628.1v40.1c5.2,0,10.4-2,14.3-5.9c7.9-7.9,7.9-20.6,0-28.5C128.8,630,123.6,628.1,118.3,628.1
			L118.3,628.1z"/>
	</g>
	<ellipse class="st13" cx="118.6" cy="648.1" rx="11.8" ry="11.6"/>
	<ellipse class="st14" cx="118.6" cy="648.1" rx="5.9" ry="5.8"/>
</g>
<g class="st8">
	<g>
		<path class="st15" d="M133.3,283.7l20.6,19.9l4,3.9l1.5,1.4c0.5,0.5,1.2,0.4,1.7,0l4.1-4.2l3.7-3.9c1.6-1.7,1.6-4.4-0.1-6.1
			l-3.6-3.5l-20-19.2c-1.7-1.6-4.4-1.6-6.1,0.1l-7.8,8.1c-0.5,0.5-0.4,1.2,0,1.7L133.3,283.7z"/>
	</g>
	<g>
		<path class="st16" d="M104.7,285l-22.2,21.3c0.7,5.9,1.8,11.4,5.4,14.5l30.1,24.4l3.6,2.8c5.5,4.2,10.7-1.7,6.5-6
			c-0.1-0.1-0.1-0.1-0.2-0.2c1.4,1.2,3,1.5,4.4,1.3c3-0.5,5.1-3.7,2.3-6.7c5.5,4.4,10.1-2.6,5.9-6.4c4.8,1.5,10-4.7,5-9.9
			c0,0-0.1-0.1-0.1-0.1L133,301.4l-16.7-10.7L104.7,285z"/>
	</g>
	<g>
		<path class="st17" d="M117.6,345.7c4.6-4.9-2.1-10.6-5.9-7.3l-4,3.8c0,0-0.1,0.1-0.1,0.1c-3.4,3.4,2.7,11,7.8,5.7L117.6,345.7z"/>
	</g>
	<g>
		<path class="st17" d="M104.7,331.6l-4.2,4.4l0,0c-2.1,2.2-0.6,5.7,1.9,7c1.6,0.8,3.5,0.9,5.2-0.7l4.5-0.1l-0.4-3.9l0.6-0.5
			c4.5-4.3-2-11.7-7.1-6.8L104.7,331.6z"/>
	</g>
	<g>
		<path class="st17" d="M97.2,325.6l-4,4.2l-0.6,0.6c-3.9,4.1,3.1,10.7,7.1,6.4l0.7-0.7c0.1-0.1,4.3-0.5,4.8-0.6l-0.1-4.4l1.4-1.4
			c4.7-4.9-2.6-11.3-7.1-6.6L97.2,325.6z"/>
	</g>
	<g>
		<path class="st17" d="M87.9,320.8l-1.3,1.5c-4.1,4.5,2,11.6,6.6,7.5l3.8-0.6l0.2-3.6c3.7-4.2-2.8-11.8-7.9-6.2L87.9,320.8z"/>
	</g>
	<g>
		<path class="st18" d="M93.6,272.4l-18.4,17.7l-5.2,5c-1.7,1.6-1.8,4.4-0.1,6.1l7.8,8.1c0.5,0.5,1.2,0.5,1.7,0l3.1-3l22.2-21.3
			l2.8-2.7c0.5-0.5,0.5-1.2,0-1.7l-7.8-8.1C98,270.8,95.3,270.8,93.6,272.4L93.6,272.4z"/>
	</g>
	<g>
		<path class="st19" d="M128.5,303.1l-5.6,1.3l2.2,2.2l16.9,16.8l0.1,0.1c2,2.2,2.4,4.5,1.7,6.3c3.3-1.3,5.5-5.8,1.7-9.8l-0.1-0.1
			l-5.1-5L128.5,303.1z"/>
	</g>
	<g class="st20">
		<path class="st21" d="M104.7,285l-3.6,3.4l11.1,5.5l4.1-3.2L104.7,285z"/>
	</g>
	<g>
		<path class="st17" d="M116.3,290.7l-4.1,3.2l-3.8,3c-9.7,7.5-1.7,14.9,4.1,12.4l6.5-3.9l4-0.9l5.6-1.3l11.8,11.8l5.1,5
			c3.2-1.2,7.7-4.6,12.6-12.5l-24.7-23.7l-4.4,3.5c-0.7,0.6-0.5,0.5-1.4,0.4c-3.3-0.1-7.6,0.2-10,2.1L116.3,290.7z"/>
	</g>
	<g>
		<path class="st22" d="M116.3,302.7l-6.5,3.9c-1.8,0.8-3.7,0.6-5.4-0.2c1.4,2.7,5,4.1,8,2.8l6.5-3.9l4-0.9l5.5-1.3
			c-2.6-2.2-3-2.5-8.2-1.3L116.3,302.7z"/>
	</g>
	<g>
		<path class="st22" d="M154,303.6c-4.3,7-8.4,10.5-11.5,12c-0.3,0.2-0.7,0.3-1,0.4l3.9,3.9c3.2-1.2,7.7-4.6,12.6-12.5L154,303.6z"
			/>
	</g>
	<g>
		<path class="st23" d="M163.7,289.7L163.7,289.7L163.7,289.7z M160.1,299.6l-4.1,4.2c-0.5,0.5-1.2,0.5-1.7,0l3.7,3.5l1.5,1.4
			c0.5,0.5,1.2,0.4,1.7,0l4.1-4.2l3.7-3.9c1.6-1.7,1.6-4.4-0.1-6.1l-4.6-4.4l0.4,0.4l-1-0.9c1.7,1.6,1.7,4.3,0.1,6L160.1,299.6z"/>
	</g>
	<g>
		<path class="st18" d="M87.3,278.5c1.7-1.6,4.4-1.6,6,0.1l7.8,8.1c0.5,0.5,0.4,1.2,0,1.7l3.6-3.4l2.8-2.7c0.5-0.5,0.5-1.2,0-1.7
			l-7.8-8.1c-1.6-1.7-4.4-1.8-6.1-0.1L87.3,278.5z"/>
	</g>
	<g>
		<path class="st22" d="M85.2,325.7c0,3.8,4.5,7.2,8,4.1l2.5-2.6l1.5-1.6c1.5-1.7,1.3-4.1,0.2-5.8c0,1-0.3,2-1.1,2.9l-2.6,2.8
			l-1.3,1.4C89.8,329.2,86.7,328,85.2,325.7L85.2,325.7z"/>
	</g>
	<g>
		<path class="st22" d="M91.7,334.3c0.9,3.1,5.2,5.5,8.1,2.5l0.7-0.7c0,0,0,0,0,0l4.2-4.4c0.2-0.2,0.3-0.3,0.4-0.5l1.4-1.4
			c2.5-2.6,1.6-5.7-0.6-7.3c0.4,1.4,0.1,3.1-1.3,4.5l-1.4,1.4c-0.2,0.1-0.3,0.3-0.4,0.5v0l-4.2,4.4c0,0,0,0,0,0l-0.7,0.7
			C96,336.1,93.5,335.7,91.7,334.3L91.7,334.3z"/>
	</g>
	<g>
		<path class="st22" d="M107.7,342.3l3.1-2.9l0.9-0.9l0.6-0.5c2.4-2.3,1.7-5.5-0.3-7.2c0.4,1.5,0.1,3.2-1.3,4.6l-0.6,0.5l-1.6,1.5
			l-2.4,2.3l-0.1,0.1c-1.7,1.6-3.7,1.5-5.2,0.7c-0.4-0.2-0.7-0.5-1.1-0.8c0.4,1.4,1.4,2.6,2.7,3.3c1.6,0.8,3.5,0.9,5.2-0.7
			L107.7,342.3z"/>
	</g>
	<g>
		<path class="st22" d="M117.6,345.7c2.3-2.5,1.8-5.1,0.2-6.7c0,1.1-0.5,2.3-1.6,3.4l-2.2,2.3c-2.7,2.9-5.7,2-7.4,0.1
			c0,3.5,4.7,7.5,8.7,3.3L117.6,345.7z"/>
	</g>
	<g>
		<path d="M128.2,343.6c-0.4,0-0.8-0.1-1-0.4l-3.1-2.9c-0.6-0.6-0.7-1.6-0.1-2.2c0.6-0.6,1.6-0.7,2.2-0.1l3.1,2.9
			c0.6,0.6,0.7,1.6,0.1,2.2C129,343.4,128.6,343.6,128.2,343.6z"/>
	</g>
	<path d="M169.9,293.5l-23.6-22.7c-1.1-1.1-2.6-1.6-4.2-1.6c-1.6,0-3,0.7-4.1,1.8l-7.8,8.1c-1,1.1-1,2.8,0.1,3.9l0.6,0.6l-3.2,2.6
		c-0.1,0-0.2,0-0.3,0c-5-0.2-8.7,0.7-11,2.5l-0.4,0.3l-8.8-4.3l1.2-1.1c0.5-0.5,0.8-1.2,0.8-1.9c0-0.7-0.3-1.4-0.8-2l-7.8-8.1
		c-1.1-1.1-2.5-1.8-4.1-1.8c-1.6,0-3,0.5-4.2,1.6L69,294c-2.3,2.2-2.4,5.9-0.2,8.2l7.8,8.1c0.5,0.6,1.2,0.8,2,0.8
		c0.7,0,1.4-0.3,1.9-0.8l0.9-0.9c0.7,4.2,1.8,8.4,4.4,11.3l-0.3,0.4c-2.8,3-1.9,7.1,0.3,9.4c1.2,1.3,2.7,1.9,4.2,2
		c-0.2,1.9,0.7,3.9,2.1,5.2c1.3,1.2,2.9,1.9,4.6,1.9c0.4,0,0.8,0,1.3-0.1c0.2,1.4,1,2.7,1.9,3.7c1.2,1.2,2.8,2,4.6,2
		c0.2,0,0.4,0,0.5,0c0,0.3,0.1,0.7,0.2,1c0.6,2.4,2.6,4.5,4.9,5.1c0.4,0.1,0.9,0.2,1.5,0.2c1.4,0,3.1-0.5,4.9-2.3l1.7-1.8l2.5,1.9
		c1.6,1.3,3.3,1.8,4.7,1.8c1.8,0,3.4-0.8,4.4-2c1-1.1,1.5-2.7,1.3-4.4c1.9,0.1,3.7-0.6,4.9-1.9c0.9-0.9,1.4-2.2,1.4-3.5
		c2,0.2,3.7-0.6,4.8-1.9c1.2-1.5,1.8-3.7,1.1-5.8c1.8-0.4,3.5-1.6,4.6-3.3c1.2-2,1.7-4.9-0.2-7.8c2.8-1.5,6.4-4.6,10.4-10.6l0.1,0.1
		c0.5,0.5,1.2,0.8,1.9,0.8c0.7,0,1.4-0.3,2-0.8l7.8-8.1C172.3,299.5,172.2,295.8,169.9,293.5L169.9,293.5z M87.7,323.3l2.7-2.9
		c1.1-1.2,2.3-1.7,3.5-1.4c1.2,0.3,2.3,1.4,2.7,2.7c0.2,0.6,0.4,1.9-0.6,2.9c0,0,0,0,0,0l-3.8,4c-1.6,1.4-3.2,0.8-4.2-0.2
		C86.7,327.2,86.1,325,87.7,323.3L87.7,323.3z M94.3,335.5c-0.2-0.2-2.2-2.2-0.5-4.1l0,0l6.8-7.2c0.8-0.9,1.7-1.2,2.4-1.2
		c0.3,0,0.5,0,0.7,0.1c1.2,0.3,2.3,1.3,2.6,2.4c0.3,1.1,0,2.2-1,3.1l-1.4,1.5c-0.1,0.1-0.1,0.2-0.2,0.2l-5.1,5.3
		C97.1,337.4,95.2,336.4,94.3,335.5L94.3,335.5z M102.1,341c-0.9-0.9-1.7-2.7-0.5-3.9c0,0,0,0,0,0l4.2-4.4c0,0,0,0,0.1-0.1
		c0,0,0,0,0,0l0.3-0.3c1-1,2.2-1.4,3.3-1.2c1.2,0.3,2.3,1.3,2.7,2.6c0.2,0.8,0.2,2-0.9,3.1l-0.5,0.5c0,0,0,0,0,0
		c0,0-0.1,0.1-0.1,0.1l-3.9,3.7c0,0,0,0,0,0c0,0-0.1,0.1-0.1,0.1C104.5,343.2,102.5,341.4,102.1,341L102.1,341z M114.2,347
		c-1.1,1.1-2.2,1.6-3.3,1.3c-1.2-0.3-2.4-1.5-2.7-2.8c-0.1-0.6-0.2-1.4,0.4-2c0,0,0.1-0.1,0.1-0.1l4-3.8c1.2-1,2.9-0.5,3.9,0.5
		c0.5,0.5,1.9,2.3-0.2,4.6L114.2,347z M145.4,326.7c-0.8,1.3-2.4,2.3-4.1,1.9l-5.9-5.5c-0.6-0.6-1.6-0.5-2.2,0.1
		c-0.6,0.6-0.5,1.6,0.1,2.2l6.2,5.7c0,0,0,0,0,0c0,0,0,0,0,0c1.5,1.4,1.4,3.2,0.5,4.2c-1,1.2-2.6,1.2-4.3-0.2l-6.1-5.7
		c-0.6-0.6-1.6-0.5-2.2,0.1c-0.6,0.6-0.5,1.6,0.1,2.2l6.1,5.7c1.1,1.2,1.2,2.3,0.3,3.2c-1,1.1-3.1,1.4-4.9-0.1
		c-0.6-0.5-1.6-0.5-2.1,0.1c-0.6,0.6-0.5,1.6,0.1,2.1c1.7,1.6,1.4,3.2,0.6,4.1c-0.9,1.1-2.8,1.4-4.9-0.2l-2.5-1.9
		c1.3-2.6,0.5-5.2-1.2-6.9c-1-1-2.3-1.7-3.7-1.9c0.2-1,0.2-2,0-3.1c-0.6-2.4-2.6-4.3-4.9-4.8c-0.3-0.1-0.6-0.1-0.9-0.1
		c0.3-1.1,0.3-2.2,0-3.4c-0.7-2.2-2.6-4-4.8-4.5c-1.7-0.4-3.4-0.1-4.9,0.9c0-0.1,0-0.1-0.1-0.2c-0.7-2.4-2.7-4.3-5-4.8
		c-2.3-0.5-4.6,0.3-6.4,2.3l-0.2,0.3c-2.2-2.6-3.1-6.6-3.8-11.7l6.5-6.3c0.6-0.6,0.6-1.6,0-2.2c-0.6-0.6-1.6-0.6-2.2,0l-7,6.7
		c-0.1,0-0.1,0.1-0.2,0.1l-2.8,2.7l-7.5-7.9c-1-1.1-1-2.8,0.1-3.9l23.6-22.7c0.5-0.5,1.2-0.8,2-0.8c0.7,0,1.4,0.3,1.9,0.8l7.5,7.9
		l-12.7,12.3c-0.6,0.6-0.6,1.6,0,2.2c0.6,0.6,1.6,0.6,2.2,0l9.5-9.1l8.4,4.2l-6,4.6c-7.1,5.5-5,10.5-4.2,11.9c1.4,2.4,4,3.8,6.7,3.8
		c1,0,2.1-0.2,3.1-0.6c0.1,0,0.1-0.1,0.2-0.1l6.3-3.8l8.5-1.9l16.3,16.2C146.9,323.6,145.9,325.8,145.4,326.7L145.4,326.7z
		 M167.8,299.6l-7.5,7.9l-1.2-1.1c0,0-0.1-0.1-0.1-0.1l-10.6-10.2c-0.6-0.6-1.6-0.6-2.2,0c-0.6,0.6-0.6,1.6,0,2.2l9.8,9.4
		c-4.3,6.6-8,9.3-10.2,10.4l-16.1-16c0,0,0,0,0,0c0,0,0,0-0.1-0.1c0,0,0,0,0,0c0,0,0,0-0.1-0.1c0,0,0,0-0.1,0c0,0,0,0-0.1,0
		c0,0,0,0-0.1,0c0,0,0,0-0.1,0c0,0,0,0-0.1,0c0,0-0.1,0-0.1,0c0,0,0,0-0.1,0c0,0-0.1,0-0.1,0c0,0,0,0,0,0c0,0-0.1,0-0.1,0
		c0,0,0,0,0,0c0,0-0.1,0-0.1,0c0,0,0,0,0,0c0,0-0.1,0-0.1,0c0,0,0,0-0.1,0c0,0,0,0-0.1,0c0,0-0.1,0-0.1,0c0,0,0,0,0,0l-9.6,2.2
		c-0.2,0-0.3,0.1-0.5,0.2l-6.4,3.8c-2.1,0.9-4.7,0-5.9-1.9c-1.3-2.3-0.1-5.2,3.4-7.9l7.9-6.1c0,0,0,0,0,0l1.1-0.8
		c1.7-1.3,4.9-2,9-1.8c0.1,0,0.2,0,0.3,0c0.9,0.1,1.3-0.1,2-0.7l3.5-2.8l7.9,7.6c0.6,0.6,1.6,0.6,2.2,0c0.6-0.6,0.6-1.6,0-2.2
		L132.7,281l7.5-7.9c0.5-0.5,1.2-0.8,1.9-0.8c0,0,0,0,0.1,0c0.7,0,1.4,0.3,1.9,0.8l23.6,22.7C168.8,296.8,168.9,298.6,167.8,299.6
		L167.8,299.6z"/>
</g>
<g>
	<path class="st1" d="M113,461.5v4.5c0,1.6-1.1,2.9-2.6,3.2l-8.2,1.6c-0.6,2-1.4,4-2.4,5.8l4.6,6.9c0.9,1.3,0.7,3-0.4,4.1l-3.1,3.1
		c-1.1,1.1-2.8,1.3-4.1,0.4l-6.9-4.6c-1.8,1-3.7,1.8-5.8,2.4l-1.6,8.2c-0.3,1.5-1.6,2.6-3.2,2.6h-4.5c-1.6,0-2.9-1.1-3.2-2.6
		l-1.6-8.2c-2-0.6-4-1.4-5.8-2.4l-6.9,4.6c-1.3,0.9-3,0.7-4.1-0.4l-3.1-3.1c-1.1-1.1-1.3-2.8-0.4-4.1l4.6-6.9
		c-1-1.8-1.8-3.7-2.4-5.8l-8.2-1.6c-1.5-0.3-2.6-1.6-2.6-3.2v-4.5c0-1.6,1.1-2.9,2.6-3.2l8.2-1.6c0.6-2,1.4-4,2.4-5.8l-4.6-6.9
		c-0.9-1.3-0.7-3,0.4-4.1l3.1-3.1c1.1-1.1,2.8-1.3,4.1-0.4l6.9,4.6c1.8-1,3.7-1.8,5.8-2.4l1.6-8.2c0.3-1.5,1.6-2.6,3.2-2.6h4.5
		c1.6,0,2.9,1.1,3.2,2.6l1.6,8.2c2,0.6,4,1.4,5.8,2.4l6.9-4.6c1.3-0.9,3-0.7,4.1,0.4l3.1,3.1c1.1,1.1,1.3,2.8,0.4,4.1l-4.6,6.9
		c1,1.8,1.8,3.7,2.4,5.8l8.2,1.6C111.9,458.6,113,459.9,113,461.5z"/>
	<path class="st24" d="M92.8,463.7c0,8.7-7.1,15.8-15.8,15.8s-15.8-7.1-15.8-15.8s7.1-15.8,15.8-15.8S92.8,455,92.8,463.7z"/>
	<path class="st24" d="M84.9,463.7c0,4.3-3.5,7.9-7.9,7.9s-7.9-3.5-7.9-7.9c0-4.3,3.5-7.9,7.9-7.9S84.9,459.4,84.9,463.7z"/>
	<path class="st24" d="M80.1,463.7c0,3.5-2.3,6.5-5.5,7.5c-3.2-1-5.5-4-5.5-7.5c0-3.5,2.3-6.5,5.5-7.5
		C77.8,457.3,80.1,460.2,80.1,463.7z"/>
	<path class="st5" d="M135.6,497.2v2.9c0,1-0.7,1.9-1.7,2.1l-5.4,1.1c-0.4,1.3-0.9,2.6-1.6,3.8l3,4.5c0.6,0.9,0.5,2-0.3,2.7
		l-2.1,2.1c-0.7,0.7-1.9,0.8-2.7,0.3l-4.5-3c-1.2,0.7-2.4,1.2-3.8,1.6l-1.1,5.4c-0.2,1-1.1,1.7-2.1,1.7h-2.9c-1,0-1.9-0.7-2.1-1.7
		l-1.1-5.4c-1.3-0.4-2.6-0.9-3.8-1.6l-4.5,3c-0.9,0.6-2,0.5-2.7-0.3l-2.1-2.1c-0.7-0.7-0.8-1.9-0.3-2.7l3-4.5
		c-0.7-1.2-1.2-2.4-1.6-3.8l-5.4-1.1c-1-0.2-1.7-1.1-1.7-2.1v-2.9c0-1,0.7-1.9,1.7-2.1l5.4-1.1c0.4-1.3,0.9-2.6,1.6-3.8l-3-4.5
		c-0.6-0.9-0.5-2,0.3-2.7l2.1-2.1c0.7-0.7,1.9-0.8,2.7-0.3l4.5,3c1.2-0.7,2.4-1.2,3.8-1.6l1.1-5.4c0.2-1,1.1-1.7,2.1-1.7h2.9
		c1,0,1.9,0.7,2.1,1.7l1.1,5.4c1.3,0.4,2.6,0.9,3.8,1.6l4.5-3c0.9-0.6,2-0.5,2.7,0.3l2.1,2.1c0.7,0.7,0.8,1.9,0.3,2.7l-3,4.5
		c0.7,1.2,1.2,2.4,1.6,3.8l5.4,1.1C134.9,495.3,135.6,496.2,135.6,497.2z"/>
	<path class="st24" d="M123.8,498.7c0,6.5-5.3,11.8-11.8,11.8s-11.8-5.3-11.8-11.8s5.3-11.8,11.8-11.8S123.8,492.2,123.8,498.7z"/>
	<path class="st24" d="M119.1,498.7c0,3.9-3.2,7.1-7.1,7.1c-3.9,0-7.1-3.2-7.1-7.1s3.2-7.1,7.1-7.1
		C115.9,491.6,119.1,494.8,119.1,498.7z"/>
	<path class="st24" d="M114.3,498.7c0,3.1-2,5.7-4.7,6.7c-2.8-1-4.7-3.6-4.7-6.7c0-3.1,2-5.7,4.7-6.7
		C112.4,493,114.3,495.6,114.3,498.7z"/>
	<path d="M63.6,459.1c-0.5,1.5-0.8,3-0.8,4.6c0,7.9,6.4,14.3,14.3,14.3c3,0,5.9-0.9,8.3-2.7c0.7-0.5,1.7-0.3,2.2,0.3
		s0.3,1.7-0.3,2.2c-3,2.1-6.5,3.3-10.2,3.3c-9.6,0-17.3-7.8-17.3-17.3c0-1.9,0.3-3.8,0.9-5.6c0.3-0.8,1.2-1.2,2-1
		C63.4,457.4,63.8,458.3,63.6,459.1z M90.4,472.3c0.2,0.1,0.5,0.2,0.7,0.2c0.6,0,1.1-0.3,1.4-0.8c1.2-2.4,1.9-5.2,1.9-7.9
		c0-9.6-7.8-17.3-17.3-17.3c-4.5,0-8.8,1.7-12.1,4.9c-0.6,0.6-0.6,1.6,0,2.2s1.6,0.6,2.2,0c2.7-2.6,6.2-4,9.9-4
		c7.9,0,14.3,6.4,14.3,14.3c0,2.3-0.5,4.5-1.6,6.5C89.3,471,89.6,471.9,90.4,472.3z M89.6,486.7c-0.4-0.8-1.3-1.1-2.1-0.7
		c-1.3,0.6-2.6,1.1-3.9,1.5c-0.6,0.2-1,0.6-1.1,1.2l-1.6,8.2c-0.2,0.8-0.9,1.4-1.7,1.4h-4.5c-0.8,0-1.5-0.6-1.7-1.4l-1.6-8.2
		c-0.1-0.6-0.5-1-1.1-1.2c-1.9-0.5-3.7-1.3-5.4-2.2c-0.5-0.3-1.1-0.3-1.6,0.1l-6.9,4.6c-0.7,0.5-1.6,0.4-2.2-0.2l-3.1-3.1
		c-0.6-0.6-0.7-1.5-0.2-2.2l4.6-6.9c0.3-0.5,0.3-1.1,0.1-1.6c-1-1.7-1.7-3.5-2.2-5.4c-0.2-0.6-0.6-1-1.2-1.1l-8.2-1.6
		c-0.8-0.2-1.4-0.9-1.4-1.7v-4.5c0-0.8,0.6-1.5,1.4-1.7l8.2-1.6c0.6-0.1,1-0.5,1.2-1.1c0.5-1.9,1.3-3.7,2.2-5.4
		c0.3-0.5,0.3-1.1-0.1-1.6l-4.6-6.9c-0.5-0.7-0.4-1.6,0.2-2.2l3.1-3.1c0.6-0.6,1.5-0.7,2.2-0.2l6.9,4.6c0.5,0.3,1.1,0.3,1.6,0.1
		c1.7-1,3.5-1.7,5.4-2.2c0.6-0.2,1-0.6,1.1-1.2l1.6-8.2c0.2-0.8,0.9-1.4,1.7-1.4h4.5c0.8,0,1.5,0.6,1.7,1.4l1.6,8.2
		c0.1,0.6,0.5,1,1.1,1.2c1.9,0.5,3.7,1.3,5.4,2.2c0.5,0.3,1.1,0.3,1.6-0.1l6.9-4.6c0.7-0.5,1.6-0.4,2.2,0.2l3.1,3.1
		c0.6,0.6,0.7,1.5,0.2,2.2l-4.6,6.9c-0.3,0.5-0.3,1.1-0.1,1.6c1,1.7,1.7,3.5,2.2,5.4c0.2,0.6,0.6,1,1.2,1.1l8.2,1.6
		c0.8,0.2,1.4,0.9,1.4,1.7v4.5c0,0.8-0.6,1.5-1.4,1.7l-8.2,1.6c-0.6,0.1-1,0.5-1.2,1.1c-0.4,1.4-0.9,2.7-1.5,4
		c-0.4,0.8,0,1.7,0.7,2.1c0.8,0.4,1.7,0,2.1-0.7c0.6-1.2,1-2.4,1.4-3.6l7.2-1.4c2.2-0.4,3.9-2.4,3.9-4.7v-4.5c0-2.3-1.6-4.3-3.9-4.7
		l-7.2-1.4c-0.5-1.5-1.1-3-1.8-4.3l4.1-6.2c1.3-1.9,1-4.5-0.6-6.1l-3.1-3.1c-1.6-1.6-4.2-1.9-6.1-0.6l-6.2,4.1
		c-1.4-0.7-2.8-1.3-4.3-1.8l-1.4-7.2c-0.4-2.2-2.4-3.9-4.7-3.9h-4.5c-2.3,0-4.3,1.6-4.7,3.9l-1.4,7.2c-1.5,0.5-3,1.1-4.3,1.8
		l-6.1-4.1c-1.9-1.3-4.5-1-6.1,0.6l-3.1,3.1c-1.6,1.6-1.9,4.2-0.6,6.1l4.1,6.2c-0.7,1.4-1.3,2.8-1.8,4.3l-7.2,1.4
		c-2.2,0.4-3.9,2.4-3.9,4.7v4.5c0,2.3,1.6,4.3,3.9,4.7l7.2,1.4c0.5,1.5,1.1,3,1.8,4.3l-4.1,6.2c-1.3,1.9-1,4.5,0.6,6.1l3.1,3.1
		c1.6,1.6,4.2,1.9,6.1,0.6l6.2-4.1c1.4,0.7,2.8,1.3,4.3,1.8l1.4,7.2c0.4,2.2,2.4,3.9,4.7,3.9h4.5c2.3,0,4.3-1.6,4.7-3.9l1.4-7.2
		c1.2-0.4,2.4-0.8,3.5-1.4C89.7,488.4,90,487.5,89.6,486.7z M112,493.1c3.1,0,5.6,2.5,5.6,5.6c0,0.9,0.7,1.5,1.5,1.5
		c0.9,0,1.5-0.7,1.5-1.5c0-4.8-3.9-8.6-8.6-8.6s-8.6,3.9-8.6,8.6c0,4.8,3.9,8.6,8.6,8.6c1.9,0,3.8-0.6,5.3-1.8
		c0.7-0.5,0.8-1.5,0.3-2.2c-0.5-0.7-1.5-0.8-2.2-0.3c-1,0.8-2.2,1.2-3.4,1.2c-3.1,0-5.6-2.5-5.6-5.6S108.9,493.1,112,493.1z
		 M77,473.1c-5.2,0-9.4-4.2-9.4-9.4c0-5.2,4.2-9.4,9.4-9.4c5.2,0,9.4,4.2,9.4,9.4C86.4,468.9,82.2,473.1,77,473.1z M77,470
		c3.5,0,6.3-2.8,6.3-6.3c0-3.5-2.8-6.3-6.3-6.3s-6.3,2.8-6.3,6.3C70.7,467.2,73.5,470,77,470z M134.2,493.6l-4.5-0.9
		c-0.3-0.8-0.6-1.6-1-2.4l2.5-3.8c1-1.5,0.8-3.4-0.5-4.7l-2.1-2.1c-1.2-1.2-3.2-1.4-4.7-0.5l-3.8,2.5c-0.8-0.4-1.6-0.7-2.4-1
		l-0.9-4.5c-0.3-1.7-1.9-3-3.6-3h-2.9c-1.8,0-3.3,1.2-3.6,3l-0.9,4.5c-0.8,0.3-1.6,0.6-2.4,1l-3.8-2.5c-1.5-1-3.4-0.8-4.7,0.5
		l-2.1,2.1c-1.2,1.2-1.4,3.2-0.5,4.7l2.5,3.8c-0.5,1-0.9,2.1-1.3,3.3c-0.2,0.8,0.2,1.7,1.1,1.9c0.8,0.2,1.7-0.2,1.9-1.1
		c0.3-1.2,0.8-2.4,1.4-3.4c0.3-0.5,0.3-1.1-0.1-1.6l-3-4.5c-0.2-0.2-0.1-0.6,0.1-0.8l2.1-2.1c0.2-0.2,0.5-0.2,0.8-0.1l4.5,3
		c0.5,0.3,1.1,0.3,1.6,0.1c1.1-0.6,2.2-1.1,3.4-1.4c0.6-0.2,1-0.6,1.1-1.2l1.1-5.4c0.1-0.3,0.3-0.5,0.6-0.5h2.9
		c0.3,0,0.5,0.2,0.6,0.5l1.1,5.4c0.1,0.6,0.5,1,1.1,1.2c1.2,0.3,2.4,0.8,3.4,1.4c0.5,0.3,1.1,0.3,1.6-0.1l4.5-3
		c0.2-0.2,0.6-0.1,0.8,0.1l2.1,2.1c0.2,0.2,0.2,0.5,0.1,0.8l-3,4.5c-0.3,0.5-0.3,1.1-0.1,1.6c0.6,1.1,1.1,2.2,1.4,3.4
		c0.2,0.6,0.6,1,1.2,1.1l5.4,1.1c0.3,0.1,0.5,0.3,0.5,0.6v2.9c0,0.3-0.2,0.5-0.5,0.6l-5.4,1.1c-0.6,0.1-1,0.5-1.2,1.1
		c-0.3,1.2-0.8,2.4-1.4,3.4c-0.3,0.5-0.3,1.1,0.1,1.6l3,4.5c0.2,0.2,0.1,0.6-0.1,0.8l-2.1,2.1c-0.2,0.2-0.5,0.2-0.8,0.1l-4.5-3
		c-0.5-0.3-1.1-0.3-1.6-0.1c-1.1,0.6-2.2,1.1-3.4,1.4c-0.6,0.2-1,0.6-1.1,1.2l-1.1,5.4c-0.1,0.3-0.3,0.5-0.6,0.5h-2.9
		c-0.3,0-0.5-0.2-0.6-0.5l-1.1-5.4c-0.1-0.6-0.5-1-1.1-1.2c-1.2-0.3-2.4-0.8-3.4-1.4c-0.5-0.3-1.1-0.3-1.6,0.1l-4.5,3
		c-0.2,0.2-0.6,0.1-0.8-0.1l-2.1-2.1c-0.2-0.2-0.2-0.5-0.1-0.8l3-4.5c0.3-0.5,0.3-1.1,0.1-1.6c-0.6-1.1-1.1-2.2-1.4-3.4
		c-0.2-0.6-0.6-1-1.2-1.1l-5.4-1.1c-0.3-0.1-0.5-0.3-0.5-0.6v-2.9c0-0.3,0.2-0.5,0.5-0.6l0.3-0.1c0.8-0.2,1.4-1,1.2-1.8
		c-0.2-0.8-1-1.4-1.8-1.2l-0.3,0.1c-1.7,0.3-3,1.9-3,3.6v2.9c0,1.8,1.2,3.3,3,3.6l4.5,0.9c0.3,0.8,0.6,1.6,1,2.4l-2.5,3.8
		c-1,1.5-0.8,3.4,0.5,4.7l2.1,2.1c1.2,1.2,3.2,1.4,4.7,0.5l3.8-2.5c0.8,0.4,1.6,0.7,2.4,1l0.9,4.5c0.3,1.7,1.9,3,3.6,3h2.9
		c1.8,0,3.3-1.2,3.6-3l0.9-4.5c0.8-0.3,1.6-0.6,2.4-1l3.8,2.5c1.5,1,3.4,0.8,4.7-0.5l2.1-2.1c1.2-1.2,1.4-3.2,0.5-4.7l-2.5-3.8
		c0.4-0.8,0.7-1.6,1-2.4l4.5-0.9c1.7-0.3,3-1.9,3-3.6v-2.9C137.2,495.5,135.9,494,134.2,493.6z"/>
</g>
<circle class="st25" cx="109" cy="30.9" r="1.3"/>
<path class="st9" d="M782.7,131.8C890,206.4,960.5,332.3,960.5,475.2c0,228.9-181.1,414.5-404.6,414.5
	c-204.8,0-369.3-132.7-396.1-335c-0.2-1.7,2-8.3-9.3-8.3c-11.2,0-80.8-0.1-124.9,0.1c-4.4,0-7.4-6.8-8-8.5
	c-2.4-6.1-3.9-30.6-3.9-68.5c0-39.7,0.5-45.7,1.5-54.5c0.6-5.1,4.7-11,10.5-11c38.8,0.1,110,0,126-0.5c2-0.1,5.9-1.2,6.3-3.1
	c20.1-112.9,84.8-209.9,174.8-271"/>
<path class="st9" d="M556,60.6"/>
</svg>
