<?xml version="1.0" encoding="utf-8" ?>
<!-- Generator: Adobe Illustrator 27.0.0, SVG Export Plug-In . SVG Version: 6.00 Build 0)  -->
<svg
  version="1.1"
  id="Calque_1"
  xmlns="http://www.w3.org/2000/svg"
  xmlns:xlink="http://www.w3.org/1999/xlink"
  x="0px"
  y="0px"
  viewBox="0 0 1000 1000"
  style="enable-background:new 0 0 1000 1000;"
  xml:space="preserve"
>
<style type="text/css">
	.st0{fill:none;stroke:#000000;stroke-width:5;stroke-miterlimit:10;}
	.st1{opacity:0.5;}
	.st2{stroke:#000B13;stroke-width:2;stroke-miterlimit:10;}
	.st3{fill:#028283;stroke:#000B13;stroke-width:3;stroke-miterlimit:10;}
	.st4{fill:#000B13;stroke:#000B13;stroke-width:2;stroke-miterlimit:10;}
	.st5{fill:#FFFCFF;stroke:#FFFCFF;stroke-width:5;stroke-miterlimit:10;}
	.st6{fill:none;stroke:#FC6541;stroke-width:4;stroke-miterlimit:10;}
	.st7{fill-rule:evenodd;clip-rule:evenodd;fill:#FC6541;}
	.st8{opacity:0.65;fill-rule:evenodd;clip-rule:evenodd;fill:#FFBC85;}
	.st9{fill-rule:evenodd;clip-rule:evenodd;fill:#FFE5C1;}
	.st10{fill-rule:evenodd;clip-rule:evenodd;fill:#028283;}
	.st11{opacity:0.8;fill-rule:evenodd;clip-rule:evenodd;fill:#F5A96C;}
	.st12{opacity:0.8;}
	.st13{fill-rule:evenodd;clip-rule:evenodd;fill:#F5A96C;}
	.st14{fill-rule:evenodd;clip-rule:evenodd;fill:#FED1A3;}
	.st15{fill-rule:evenodd;clip-rule:evenodd;fill:#FB2A39;}
	.st16{fill:#028283;}
	.st17{fill:#FFFCFF;}
	.st18{fill:#FC6541;}
	.st19{fill:#FFFFFF;}
	.st20{fill:none;stroke:#DADADA;stroke-width:3;stroke-miterlimit:10;}
</style>
<path
    class="st0"
    d="M652.6,124.1c47.7,0,158.8,0,177.2,0c6.1,0,38.5,0.6,64.6,26.8c16.5,16.5,26.8,39.4,26.8,64.6v521.1
	c0,96.6-40.9,137.5-91.4,137.5H262.6c-50.5,0-91.4-40.9-91.4-91.4V408.9c0-0.6-0.5-1-1-1.1c-1.6-0.1-4.9-0.2-7.3-0.1
	c-7.7,0.1-111.2-0.1-117.6-0.1c-5.4-0.1-13.6-4.4-13.5-13.6c0.3-13.3-0.2-102.3-0.2-122c0-8.4,4.5-13.5,14.4-13.5
	c13.9,0,80.8-0.1,112.9-0.1c3.7,0,12.3,0,12.3-0.3c0-0.8,0-7.6,0-7.7c0-8.5,0,13.2,0-34.9c0-13.1,5.1-43,26.8-64.6
	c16.5-16.5,39.4-26.8,64.6-26.8c20.1,0,70.7,0,90.8,0c26.4,0,51.3,0,75.3,0"
  />
<path class="st0" d="M169.2,718.2" />
<g class="st1">
	<path class="st0" d="M154.7,635.1" />
	<g>
		<path d="M134.8,646.3l6.2-9.7l4.9,3.1l-6.2,9.7L134.8,646.3z" />
		<path d="M117.2,638.4l3.7-10.9l5.5,1.9l-3.7,10.9L117.2,638.4z" />
		<path d="M98,624.5h5.8v11.5H98V624.5z" />
		<path d="M75.5,629.3l5.5-1.9l3.7,10.9l-5.5,1.9L75.5,629.3z" />
		<path d="M55.9,639.6l4.9-3.1l6.2,9.7l-4.9,3.1L55.9,639.6z" />
		<path
        d="M148.6,672.5l1.5-1.9l-1.6-1.8c-0.2-0.2-5.3-6.1-13.7-12c-11.2-7.9-22.9-12.1-34-12.1c-11,0-22.8,4.2-33.9,12.1
			c-8.4,5.9-13.5,11.8-13.7,12l-1.6,1.9l1.6,1.9c0.2,0.2,5.3,6.1,13.7,12c11.2,7.9,22.9,12.1,33.9,12.1c5.5,0,11.2-1,16.9-3
			c0.4,0.7,0.9,1.3,1.4,1.9l14.3,14.3l12.2-12.2l-12-12C143,679.3,148.4,672.8,148.6,672.5L148.6,672.5z M111.1,675.1
			c-5.6,5.6-14.8,5.6-20.4,0c-2.7-2.7-4.2-6.3-4.2-10.2s1.5-7.5,4.2-10.2c2.8-2.8,6.5-4.2,10.2-4.2s7.4,1.4,10.2,4.2
			c2.7,2.7,4.2,6.3,4.2,10.2S113.8,672.4,111.1,675.1z M70.4,680c-5.1-3.6-8.9-7.2-11-9.3c2.1-2.1,5.9-5.7,11-9.3
			c3.6-2.5,8.2-5.3,13.5-7.4c-2.1,3.2-3.2,7-3.2,10.9c0,5.4,2.1,10.5,5.9,14.3c3.9,3.9,9.1,5.9,14.3,5.9c4.3,0,8.5-1.3,12.1-4
			l4.6,4.6c-0.3,0.7-0.6,1.4-0.7,2.2c-5.4,2-10.8,3.1-16,3.1C88.5,690.9,77.5,684.9,70.4,680L70.4,680z M133.5,701.6l-10.2-10.2
			c-1.1-1.1-1.1-3,0-4.1c1.1-1.1,3-1.1,4.1,0l10.2,10.2L133.5,701.6z M129.2,681.6c-2.4-1.2-5.2-1.2-7.6,0l-4.6-4.6
			c2.6-3.5,4-7.7,4-12.1c0-3.9-1.1-7.7-3.2-10.9c5.3,2.1,9.9,4.9,13.5,7.4c5.1,3.6,9,7.2,11,9.3
			C140.1,673.2,135.6,677.6,129.2,681.6z"
      />
	</g>
	<g>
		<g>
			<g>
				<path class="st2" d="M111.1,679.3l4.1-4.1l8.2,8.1l-4.1,4.1L111.1,679.3z" />
			</g>
		</g>
		<g id="Vision_1_">
			<g>
				<g>
					<path
              class="icon-cold-color"
              stroke-width="3"
              stroke-miterlimit="10"
              fill="#028283"
              stroke="#000B13"
              d="M133.6,709.8l-14.3-14.2c-2.8-2.7-3.8-8.4,0-12.2c3.1-3.1,8-3.4,11.4-0.7c12.4,12.3,15.7,15.5,15.1,14.9
						L133.6,709.8z"
            />
				</g>
			</g>
		</g>
		<g>
			<g>
				<g>
					<g>
						<path
                class="st4"
                d="M86.6,679.3c-7.9-7.9-7.9-20.6,0-28.5c7.6-7.6,21-7.6,28.6,0c7.9,7.9,7.9,20.6,0,28.5
							C107.3,687.2,94.5,687.2,86.6,679.3L86.6,679.3z"
              />
					</g>
				</g>
			</g>
		</g>
		<path
        class="st4"
        d="M100.9,645.1v40.1c5.2,0,10.4-2,14.3-5.9c7.9-7.9,7.9-20.6,0-28.5C111.4,647,106.1,645.1,100.9,645.1
			L100.9,645.1z"
      />
	</g>
	<ellipse class="st5" cx="101.1" cy="665.1" rx="11.8" ry="11.6" />
	<ellipse
      class="icon-hot-color-stroke"
      cx="101.1"
      cy="665.1"
      rx="5.9"
      ry="5.8"
      stroke="#FC6541"
      fill="none"
      stroke-width="4"
      stroke-miterlimit="10"
    />
</g>
<g>
	<g>
		<path
        class="icon-hot-color"
        fill="#fc6541"
        d="M117.1,306.9l20.6,19.9l4,3.9l1.5,1.4c0.5,0.5,1.2,0.4,1.7,0l4.1-4.2l3.7-3.9c1.6-1.7,1.6-4.4-0.1-6.1
			l-3.6-3.5l-20-19.2c-1.7-1.6-4.4-1.6-6.1,0.1l-7.8,8.1c-0.5,0.5-0.4,1.2,0,1.7L117.1,306.9z"
      />
	</g>
	<g>
		<path
        class="st8"
        d="M88.4,308.2l-22.2,21.3c0.7,5.9,1.8,11.4,5.4,14.5l30.1,24.4l3.6,2.8c5.5,4.2,10.7-1.7,6.5-6
			c-0.1-0.1-0.1-0.1-0.2-0.2c1.4,1.2,3,1.5,4.4,1.3c3-0.5,5.1-3.7,2.3-6.7c5.5,4.4,10.1-2.6,5.9-6.4c4.8,1.5,10-4.7,5-9.9
			c0,0-0.1-0.1-0.1-0.1l-12.4-18.5l-16.7-10.7L88.4,308.2z"
      />
	</g>
	<g>
		<path
        class="st9"
        d="M101.3,368.9c4.6-4.9-2.1-10.6-5.9-7.3l-4,3.8c0,0-0.1,0.1-0.1,0.1c-3.4,3.4,2.7,11,7.8,5.7L101.3,368.9z"
      />
	</g>
	<g>
		<path
        class="st9"
        d="M88.5,354.8l-4.2,4.4l0,0c-2.1,2.2-0.6,5.7,1.9,7c1.6,0.8,3.5,0.9,5.2-0.7l4.5-0.1l-0.4-3.9l0.6-0.5
			c4.5-4.3-2-11.7-7.1-6.8L88.5,354.8z"
      />
	</g>
	<g>
		<path
        class="st9"
        d="M81,348.7l-4,4.2l-0.6,0.6c-3.9,4.1,3.1,10.7,7.1,6.4l0.7-0.7c0.1-0.1,4.3-0.5,4.8-0.6l-0.1-4.4l1.4-1.4
			c4.7-4.9-2.6-11.3-7.1-6.6L81,348.7z"
      />
	</g>
	<g>
		<path
        class="st9"
        d="M71.7,344l-1.3,1.5c-4.1,4.5,2,11.6,6.6,7.5l3.8-0.6l0.2-3.6c3.7-4.2-2.8-11.8-7.9-6.2L71.7,344z"
      />
	</g>
	<g>
		<path
        class="icon-cold-color"
        fill="#028283"
        d="M77.4,295.6L59,313.3l-5.2,5c-1.7,1.6-1.8,4.4-0.1,6.1l7.8,8.1c0.5,0.5,1.2,0.5,1.7,0l3.1-3l22.2-21.3
			l2.8-2.7c0.5-0.5,0.5-1.2,0-1.7l-7.8-8.1C81.8,294,79.1,294,77.4,295.6L77.4,295.6z"
      />
	</g>
	<g>
		<path
        class="st11"
		fill="#028283"
        d="M112.3,326.3l-5.6,1.3l2.2,2.2l16.9,16.8l0.1,0.1c2,2.2,2.4,4.5,1.7,6.3c3.3-1.3,5.5-5.8,1.7-9.8l-0.1-0.1
			l-5.1-5L112.3,326.3z"
      />
	</g>
	<g class="st12">
		<path class="st13" d="M88.4,308.2l-3.6,3.4l11.1,5.5l4.1-3.2L88.4,308.2z" />
	</g>
	<g>
		<path
        class="st9"
        d="M100.1,313.9l-4.1,3.2l-3.8,3c-9.7,7.5-1.7,14.9,4.1,12.4l6.5-3.9l4-0.9l5.6-1.3l11.8,11.8l5.1,5
			c3.2-1.2,7.7-4.6,12.6-12.5l-24.7-23.7l-4.4,3.5c-0.7,0.6-0.5,0.5-1.4,0.4c-3.3-0.1-7.6,0.2-10,2.1L100.1,313.9z"
      />
	</g>
	<g>
		<path
        class="st14"
        d="M100,325.9l-6.5,3.9c-1.8,0.8-3.7,0.6-5.4-0.2c1.4,2.7,5,4.1,8,2.8l6.5-3.9l4-0.9l5.5-1.3
			c-2.6-2.2-3-2.5-8.2-1.3L100,325.9z"
      />
	</g>
	<g>
		<path
        class="st14"
        d="M137.7,326.8c-4.3,7-8.4,10.5-11.5,12c-0.3,0.2-0.7,0.3-1,0.4l3.9,3.9c3.2-1.2,7.7-4.6,12.6-12.5
			L137.7,326.8z"
      />
	</g>
	<!-- <g>
		<path
        class="st15"
        d="M147.4,312.9L147.4,312.9L147.4,312.9z M143.8,322.8l-4.1,4.2c-0.5,0.5-1.2,0.5-1.7,0l3.7,3.5l1.5,1.4
			c0.5,0.5,1.2,0.4,1.7,0l4.1-4.2l3.7-3.9c1.6-1.7,1.6-4.4-0.1-6.1l-4.6-4.4l0.4,0.4l-1-0.9c1.7,1.6,1.7,4.3,0.1,6L143.8,322.8z"
      />
	</g>
	<g>
		<path
        class="st10"
        d="M71.1,301.6c1.7-1.6,4.4-1.6,6,0.1l7.8,8.1c0.5,0.5,0.4,1.2,0,1.7l3.6-3.4l2.8-2.7c0.5-0.5,0.5-1.2,0-1.7
			l-7.8-8.1c-1.6-1.7-4.4-1.8-6.1-0.1L71.1,301.6z"
      />
	</g> -->
	<g>
		<path
        class="st14"
        d="M69,348.9c0,3.8,4.5,7.2,8,4.1l2.5-2.6l1.5-1.6c1.5-1.7,1.3-4.1,0.2-5.8c0,1-0.3,2-1.1,2.9l-2.6,2.8
			l-1.3,1.4C73.5,352.4,70.5,351.2,69,348.9L69,348.9z"
      />
	</g>
	<g>
		<path
        class="st14"
        d="M75.5,357.5c0.9,3.1,5.2,5.5,8.1,2.5l0.7-0.7c0,0,0,0,0,0l4.2-4.4c0.2-0.2,0.3-0.3,0.4-0.5l1.4-1.4
			c2.5-2.6,1.6-5.7-0.6-7.3c0.4,1.4,0.1,3.1-1.3,4.5l-1.4,1.4c-0.2,0.1-0.3,0.3-0.4,0.5v0l-4.2,4.4c0,0,0,0,0,0l-0.7,0.7
			C79.8,359.2,77.2,358.9,75.5,357.5L75.5,357.5z"
      />
	</g>
	<g>
		<path
        class="st14"
        d="M91.5,365.5l3.1-2.9l0.9-0.9l0.6-0.5c2.4-2.3,1.7-5.5-0.3-7.2c0.4,1.5,0.1,3.2-1.3,4.6l-0.6,0.5l-1.6,1.5
			l-2.4,2.3l-0.1,0.1c-1.7,1.6-3.7,1.5-5.2,0.7c-0.4-0.2-0.7-0.5-1.1-0.8c0.4,1.4,1.4,2.6,2.7,3.3c1.6,0.8,3.5,0.9,5.2-0.7
			L91.5,365.5z"
      />
	</g>
	<g>
		<path
        class="st14"
        d="M101.3,368.9c2.3-2.5,1.8-5.1,0.2-6.7c0,1.1-0.5,2.3-1.6,3.4l-2.2,2.3c-2.7,2.9-5.7,2-7.4,0.1
			c0,3.5,4.7,7.5,8.7,3.3L101.3,368.9z"
      />
	</g>
	<g>
		<path
        d="M111.9,366.7c-0.4,0-0.8-0.1-1-0.4l-3.1-2.9c-0.6-0.6-0.7-1.6-0.1-2.2c0.6-0.6,1.6-0.7,2.2-0.1l3.1,2.9
			c0.6,0.6,0.7,1.6,0.1,2.2C112.8,366.6,112.3,366.7,111.9,366.7z"
      />
	</g>
	<path
      d="M153.6,316.7L130.1,294c-1.1-1.1-2.6-1.6-4.2-1.6c-1.6,0-3,0.7-4.1,1.8l-7.8,8.1c-1,1.1-1,2.8,0.1,3.9l0.6,0.6l-3.2,2.6
		c-0.1,0-0.2,0-0.3,0c-5-0.2-8.7,0.7-11,2.5l-0.4,0.3l-8.8-4.3l1.2-1.1c0.5-0.5,0.8-1.2,0.8-1.9c0-0.7-0.3-1.4-0.8-2l-7.8-8.1
		c-1.1-1.1-2.5-1.8-4.1-1.8c-1.6,0-3,0.5-4.2,1.6l-23.6,22.7c-2.3,2.2-2.4,5.9-0.2,8.2l7.8,8.1c0.5,0.6,1.2,0.8,2,0.8
		c0.7,0,1.4-0.3,1.9-0.8l0.9-0.9c0.7,4.2,1.8,8.4,4.4,11.3l-0.3,0.4c-2.8,3-1.9,7.1,0.3,9.4c1.2,1.3,2.7,1.9,4.2,2
		c-0.2,1.9,0.7,3.9,2.1,5.2c1.3,1.2,2.9,1.9,4.6,1.9c0.4,0,0.8,0,1.3-0.1c0.2,1.4,1,2.7,1.9,3.7c1.2,1.2,2.8,2,4.6,2
		c0.2,0,0.4,0,0.5,0c0,0.3,0.1,0.7,0.2,1c0.6,2.4,2.6,4.5,4.9,5.1c0.4,0.1,0.9,0.2,1.5,0.2c1.4,0,3.1-0.5,4.9-2.3l1.7-1.8l2.5,1.9
		c1.6,1.3,3.3,1.8,4.7,1.8c1.8,0,3.4-0.8,4.4-2c1-1.1,1.5-2.7,1.3-4.4c1.9,0.1,3.7-0.6,4.9-1.9c0.9-0.9,1.4-2.2,1.4-3.5
		c2,0.2,3.7-0.6,4.8-1.9c1.2-1.5,1.8-3.7,1.1-5.8c1.8-0.4,3.5-1.6,4.6-3.3c1.2-2,1.7-4.9-0.2-7.8c2.8-1.5,6.4-4.6,10.4-10.6l0.1,0.1
		c0.5,0.5,1.2,0.8,1.9,0.8c0.7,0,1.4-0.3,2-0.8l7.8-8.1C156,322.7,156,319,153.6,316.7L153.6,316.7z M71.5,346.5l2.7-2.9
		c1.1-1.2,2.3-1.7,3.5-1.4c1.2,0.3,2.3,1.4,2.7,2.7c0.2,0.6,0.4,1.9-0.6,2.9c0,0,0,0,0,0l-3.8,4c-1.6,1.4-3.2,0.8-4.2-0.2
		C70.5,350.4,69.9,348.2,71.5,346.5L71.5,346.5z M78,358.7c-0.2-0.2-2.2-2.2-0.5-4.1l0,0l6.8-7.2c0.8-0.9,1.7-1.2,2.4-1.2
		c0.3,0,0.5,0,0.7,0.1c1.2,0.3,2.3,1.3,2.6,2.4c0.3,1.1,0,2.2-1,3.1l-1.4,1.5c-0.1,0.1-0.1,0.2-0.2,0.2l-5.1,5.3
		C80.9,360.6,78.9,359.6,78,358.7L78,358.7z M85.9,364.2c-0.9-0.9-1.7-2.7-0.5-3.9c0,0,0,0,0,0l4.2-4.4c0,0,0,0,0.1-0.1c0,0,0,0,0,0
		l0.3-0.3c1-1,2.2-1.4,3.3-1.2c1.2,0.3,2.3,1.3,2.7,2.6c0.2,0.8,0.2,2-0.9,3.1l-0.5,0.5c0,0,0,0,0,0c0,0-0.1,0.1-0.1,0.1l-3.9,3.7
		c0,0,0,0,0,0c0,0-0.1,0.1-0.1,0.1C88.2,366.4,86.3,364.6,85.9,364.2L85.9,364.2z M98,370.2c-1.1,1.1-2.2,1.6-3.3,1.3
		c-1.2-0.3-2.4-1.5-2.7-2.8c-0.1-0.6-0.2-1.4,0.4-2c0,0,0.1-0.1,0.1-0.1l4-3.8c1.2-1,2.9-0.5,3.9,0.5c0.5,0.5,1.9,2.3-0.2,4.6
		L98,370.2z M129.2,349.9c-0.8,1.3-2.4,2.3-4.1,1.9l-5.9-5.5c-0.6-0.6-1.6-0.5-2.2,0.1c-0.6,0.6-0.5,1.6,0.1,2.2l6.2,5.7
		c0,0,0,0,0,0c0,0,0,0,0,0c1.5,1.4,1.4,3.2,0.5,4.2c-1,1.2-2.6,1.2-4.3-0.2l-6.1-5.7c-0.6-0.6-1.6-0.5-2.2,0.1
		c-0.6,0.6-0.5,1.6,0.1,2.2l6.1,5.7c1.1,1.2,1.2,2.3,0.3,3.2c-1,1.1-3.1,1.4-4.9-0.1c-0.6-0.5-1.6-0.5-2.1,0.1
		c-0.6,0.6-0.5,1.6,0.1,2.1c1.7,1.6,1.4,3.2,0.6,4.1c-0.9,1.1-2.8,1.4-4.9-0.2l-2.5-1.9c1.3-2.6,0.5-5.2-1.2-6.9
		c-1-1-2.3-1.7-3.7-1.9c0.2-1,0.2-2,0-3.1c-0.6-2.4-2.6-4.3-4.9-4.8c-0.3-0.1-0.6-0.1-0.9-0.1c0.3-1.1,0.3-2.2,0-3.4
		c-0.7-2.2-2.6-4-4.8-4.5c-1.7-0.4-3.4-0.1-4.9,0.9c0-0.1,0-0.1-0.1-0.2c-0.7-2.4-2.7-4.3-5-4.8c-2.3-0.5-4.6,0.3-6.4,2.3l-0.2,0.3
		c-2.2-2.6-3.1-6.6-3.8-11.7l6.5-6.3c0.6-0.6,0.6-1.6,0-2.2c-0.6-0.6-1.6-0.6-2.2,0l-7,6.7c-0.1,0-0.1,0.1-0.2,0.1l-2.8,2.7
		l-7.5-7.9c-1-1.1-1-2.8,0.1-3.9l23.6-22.7c0.5-0.5,1.2-0.8,2-0.8c0.7,0,1.4,0.3,1.9,0.8l7.5,7.9l-12.7,12.3c-0.6,0.6-0.6,1.6,0,2.2
		c0.6,0.6,1.6,0.6,2.2,0l9.5-9.1l8.4,4.2l-6,4.6c-7.1,5.5-5,10.5-4.2,11.9c1.4,2.4,4,3.8,6.7,3.8c1,0,2.1-0.2,3.1-0.6
		c0.1,0,0.1-0.1,0.2-0.1l6.3-3.8l8.5-1.9l16.3,16.2C130.6,346.8,129.7,349,129.2,349.9L129.2,349.9z M151.6,322.8l-7.5,7.9l-1.2-1.1
		c0,0-0.1-0.1-0.1-0.1l-10.6-10.2c-0.6-0.6-1.6-0.6-2.2,0c-0.6,0.6-0.6,1.6,0,2.2l9.8,9.4c-4.3,6.6-8,9.3-10.2,10.4l-16.1-16
		c0,0,0,0,0,0c0,0,0,0-0.1-0.1c0,0,0,0,0,0c0,0,0,0-0.1-0.1c0,0,0,0-0.1,0c0,0,0,0-0.1,0c0,0,0,0-0.1,0c0,0,0,0-0.1,0c0,0,0,0-0.1,0
		c0,0-0.1,0-0.1,0c0,0,0,0-0.1,0c0,0-0.1,0-0.1,0c0,0,0,0,0,0c0,0-0.1,0-0.1,0c0,0,0,0,0,0c0,0-0.1,0-0.1,0c0,0,0,0,0,0
		c0,0-0.1,0-0.1,0c0,0,0,0-0.1,0c0,0,0,0-0.1,0c0,0-0.1,0-0.1,0c0,0,0,0,0,0l-9.6,2.2c-0.2,0-0.3,0.1-0.5,0.2l-6.4,3.8
		c-2.1,0.9-4.7,0-5.9-1.9c-1.3-2.3-0.1-5.2,3.4-7.9l7.9-6.1c0,0,0,0,0,0l1.1-0.8c1.7-1.3,4.9-2,9-1.8c0.1,0,0.2,0,0.3,0
		c0.9,0.1,1.3-0.1,2-0.7l3.5-2.8l7.9,7.6c0.6,0.6,1.6,0.6,2.2,0c0.6-0.6,0.6-1.6,0-2.2l-10.5-10.1l7.5-7.9c0.5-0.5,1.2-0.8,1.9-0.8
		c0,0,0,0,0.1,0c0.7,0,1.4,0.3,1.9,0.8l23.6,22.7C152.6,320,152.6,321.7,151.6,322.8L151.6,322.8z"
    />
</g>
<g class="st1">
	<path
      class="icon-cold-color"
      fill="#028283"
      d="M127.8,488.4v4.5c0,1.6-1.1,2.9-2.6,3.2l-8.2,1.6c-0.6,2-1.4,4-2.4,5.8l4.6,6.9c0.9,1.3,0.7,3-0.4,4.1
		l-3.1,3.1c-1.1,1.1-2.8,1.3-4.1,0.4l-6.9-4.6c-1.8,1-3.7,1.8-5.8,2.4l-1.6,8.2c-0.3,1.5-1.6,2.6-3.2,2.6h-4.5
		c-1.6,0-2.9-1.1-3.2-2.6l-1.6-8.2c-2-0.6-4-1.4-5.8-2.4l-6.9,4.6c-1.3,0.9-3,0.7-4.1-0.4l-3.1-3.1c-1.1-1.1-1.3-2.8-0.4-4.1
		l4.6-6.9c-1-1.8-1.8-3.7-2.4-5.8l-8.2-1.6c-1.5-0.3-2.6-1.6-2.6-3.2v-4.5c0-1.6,1.1-2.9,2.6-3.2l8.2-1.6c0.6-2,1.4-4,2.4-5.8
		l-4.6-6.9c-0.9-1.3-0.7-3,0.4-4.1l3.1-3.1c1.1-1.1,2.8-1.3,4.1-0.4l6.9,4.6c1.8-1,3.7-1.8,5.8-2.4l1.6-8.2c0.3-1.5,1.6-2.6,3.2-2.6
		h4.5c1.6,0,2.9,1.1,3.2,2.6l1.6,8.2c2,0.6,4,1.4,5.8,2.4l6.9-4.6c1.3-0.9,3-0.7,4.1,0.4l3.1,3.1c1.1,1.1,1.3,2.8,0.4,4.1l-4.6,6.9
		c1,1.8,1.8,3.7,2.4,5.8l8.2,1.6C126.7,485.5,127.8,486.8,127.8,488.4z"
    />
	<path
      class="st17"
      d="M107.7,490.6c0,8.7-7.1,15.8-15.8,15.8s-15.8-7.1-15.8-15.8s7.1-15.8,15.8-15.8S107.7,481.9,107.7,490.6z"
    />
	<path
      class="st17"
      d="M99.7,490.6c0,4.3-3.5,7.9-7.9,7.9s-7.9-3.5-7.9-7.9c0-4.3,3.5-7.9,7.9-7.9S99.7,486.3,99.7,490.6z"
    />
	<path
      class="st17"
      d="M94.9,490.6c0,3.5-2.3,6.5-5.5,7.5c-3.2-1-5.5-4-5.5-7.5c0-3.5,2.3-6.5,5.5-7.5
		C92.7,484.1,94.9,487.1,94.9,490.6z"
    />
	<path
      class="icon-hot-color"
      fill="#fc6541"
      d="M150.5,524.1v2.9c0,1-0.7,1.9-1.7,2.1l-5.4,1.1c-0.4,1.3-0.9,2.6-1.6,3.8l3,4.5c0.6,0.9,0.5,2-0.3,2.7
		l-2.1,2.1c-0.7,0.7-1.9,0.8-2.7,0.3l-4.5-3c-1.2,0.7-2.4,1.2-3.8,1.6l-1.1,5.4c-0.2,1-1.1,1.7-2.1,1.7h-2.9c-1,0-1.9-0.7-2.1-1.7
		l-1.1-5.4c-1.3-0.4-2.6-0.9-3.8-1.6l-4.5,3c-0.9,0.6-2,0.5-2.7-0.3l-2.1-2.1c-0.7-0.7-0.8-1.9-0.3-2.7l3-4.5
		c-0.7-1.2-1.2-2.4-1.6-3.8l-5.4-1.1c-1-0.2-1.7-1.1-1.7-2.1v-2.9c0-1,0.7-1.9,1.7-2.1l5.4-1.1c0.4-1.3,0.9-2.6,1.6-3.8l-3-4.5
		c-0.6-0.9-0.5-2,0.3-2.7l2.1-2.1c0.7-0.7,1.9-0.8,2.7-0.3l4.5,3c1.2-0.7,2.4-1.2,3.8-1.6l1.1-5.4c0.2-1,1.1-1.7,2.1-1.7h2.9
		c1,0,1.9,0.7,2.1,1.7l1.1,5.4c1.3,0.4,2.6,0.9,3.8,1.6l4.5-3c0.9-0.6,2-0.5,2.7,0.3l2.1,2.1c0.7,0.7,0.8,1.9,0.3,2.7l-3,4.5
		c0.7,1.2,1.2,2.4,1.6,3.8l5.4,1.1C149.7,522.2,150.5,523.1,150.5,524.1z"
    />
	<path
      class="st17"
      d="M138.6,525.6c0,6.5-5.3,11.8-11.8,11.8c-6.5,0-11.8-5.3-11.8-11.8s5.3-11.8,11.8-11.8
		C133.4,513.7,138.6,519,138.6,525.6z"
    />
	<path
      class="st17"
      d="M133.9,525.6c0,3.9-3.2,7.1-7.1,7.1c-3.9,0-7.1-3.2-7.1-7.1s3.2-7.1,7.1-7.1
		C130.7,518.5,133.9,521.6,133.9,525.6z"
    />
	<path
      class="st17"
      d="M129.2,525.6c0,3.1-2,5.7-4.7,6.7c-2.8-1-4.7-3.6-4.7-6.7c0-3.1,2-5.7,4.7-6.7
		C127.2,519.9,129.2,522.5,129.2,525.6z"
    />
	<path
      d="M78.4,486c-0.5,1.5-0.8,3-0.8,4.6c0,7.9,6.4,14.3,14.3,14.3c3,0,5.9-0.9,8.3-2.7c0.7-0.5,1.7-0.3,2.2,0.3
		c0.5,0.7,0.3,1.7-0.3,2.2c-3,2.1-6.5,3.3-10.2,3.3c-9.6,0-17.3-7.8-17.3-17.3c0-1.9,0.3-3.8,0.9-5.6c0.3-0.8,1.2-1.2,2-1
		C78.2,484.3,78.7,485.2,78.4,486z M105.2,499.2c0.2,0.1,0.5,0.2,0.7,0.2c0.6,0,1.1-0.3,1.4-0.8c1.2-2.4,1.9-5.2,1.9-7.9
		c0-9.6-7.8-17.3-17.3-17.3c-4.5,0-8.8,1.7-12.1,4.9c-0.6,0.6-0.6,1.6,0,2.2s1.6,0.6,2.2,0c2.7-2.6,6.2-4,9.9-4
		c7.9,0,14.3,6.4,14.3,14.3c0,2.3-0.5,4.5-1.6,6.5C104.2,497.9,104.5,498.8,105.2,499.2z M104.5,513.6c-0.4-0.8-1.3-1.1-2.1-0.7
		c-1.3,0.6-2.6,1.1-3.9,1.5c-0.6,0.2-1,0.6-1.1,1.2l-1.6,8.2c-0.2,0.8-0.9,1.4-1.7,1.4h-4.5c-0.8,0-1.5-0.6-1.7-1.4l-1.6-8.2
		c-0.1-0.6-0.5-1-1.1-1.2c-1.9-0.5-3.7-1.3-5.4-2.2c-0.5-0.3-1.1-0.3-1.6,0.1l-6.9,4.6c-0.7,0.5-1.6,0.4-2.2-0.2l-3.1-3.1
		c-0.6-0.6-0.7-1.5-0.2-2.2l4.6-6.9c0.3-0.5,0.3-1.1,0.1-1.6c-1-1.7-1.7-3.5-2.2-5.4c-0.2-0.6-0.6-1-1.2-1.1l-8.2-1.6
		c-0.8-0.2-1.4-0.9-1.4-1.7v-4.5c0-0.8,0.6-1.5,1.4-1.7l8.2-1.6c0.6-0.1,1-0.5,1.2-1.1c0.5-1.9,1.3-3.7,2.2-5.4
		c0.3-0.5,0.3-1.1-0.1-1.6l-4.6-6.9c-0.5-0.7-0.4-1.6,0.2-2.2l3.1-3.1c0.6-0.6,1.5-0.7,2.2-0.2l6.9,4.6c0.5,0.3,1.1,0.3,1.6,0.1
		c1.7-1,3.5-1.7,5.4-2.2c0.6-0.2,1-0.6,1.1-1.2l1.6-8.2c0.2-0.8,0.9-1.4,1.7-1.4h4.5c0.8,0,1.5,0.6,1.7,1.4l1.6,8.2
		c0.1,0.6,0.5,1,1.1,1.2c1.9,0.5,3.7,1.3,5.4,2.2c0.5,0.3,1.1,0.3,1.6-0.1l6.9-4.6c0.7-0.5,1.6-0.4,2.2,0.2l3.1,3.1
		c0.6,0.6,0.7,1.5,0.2,2.2l-4.6,6.9c-0.3,0.5-0.3,1.1-0.1,1.6c1,1.7,1.7,3.5,2.2,5.4c0.2,0.6,0.6,1,1.2,1.1l8.2,1.6
		c0.8,0.2,1.4,0.9,1.4,1.7v4.5c0,0.8-0.6,1.5-1.4,1.7l-8.2,1.6c-0.6,0.1-1,0.5-1.2,1.1c-0.4,1.4-0.9,2.7-1.5,4
		c-0.4,0.8,0,1.7,0.7,2.1c0.8,0.4,1.7,0,2.1-0.7c0.6-1.2,1-2.4,1.4-3.6l7.2-1.4c2.2-0.4,3.9-2.4,3.9-4.7v-4.5c0-2.3-1.6-4.3-3.9-4.7
		l-7.2-1.4c-0.5-1.5-1.1-3-1.8-4.3l4.1-6.2c1.3-1.9,1-4.5-0.6-6.1l-3.1-3.1c-1.6-1.6-4.2-1.9-6.1-0.6l-6.2,4.1
		c-1.4-0.7-2.8-1.3-4.3-1.8l-1.4-7.2c-0.4-2.2-2.4-3.9-4.7-3.9h-4.5c-2.3,0-4.3,1.6-4.7,3.9l-1.4,7.2c-1.5,0.5-3,1.1-4.3,1.8
		l-6.1-4.1c-1.9-1.3-4.5-1-6.1,0.6l-3.1,3.1c-1.6,1.6-1.9,4.2-0.6,6.1l4.1,6.2c-0.7,1.4-1.3,2.8-1.8,4.3l-7.2,1.4
		c-2.2,0.4-3.9,2.4-3.9,4.7v4.5c0,2.3,1.6,4.3,3.9,4.7l7.2,1.4c0.5,1.5,1.1,3,1.8,4.3l-4.1,6.2c-1.3,1.9-1,4.5,0.6,6.1l3.1,3.1
		c1.6,1.6,4.2,1.9,6.1,0.6l6.2-4.1c1.4,0.7,2.8,1.3,4.3,1.8l1.4,7.2c0.4,2.2,2.4,3.9,4.7,3.9h4.5c2.3,0,4.3-1.6,4.7-3.9l1.4-7.2
		c1.2-0.4,2.4-0.8,3.5-1.4C104.5,515.3,104.8,514.4,104.5,513.6z M126.8,520c3.1,0,5.6,2.5,5.6,5.6c0,0.9,0.7,1.5,1.5,1.5
		c0.9,0,1.5-0.7,1.5-1.5c0-4.8-3.9-8.6-8.6-8.6s-8.6,3.9-8.6,8.6c0,4.8,3.9,8.6,8.6,8.6c1.9,0,3.8-0.6,5.3-1.8
		c0.7-0.5,0.8-1.5,0.3-2.2c-0.5-0.7-1.5-0.8-2.2-0.3c-1,0.8-2.2,1.2-3.4,1.2c-3.1,0-5.6-2.5-5.6-5.6
		C121.3,522.5,123.8,520,126.8,520z M91.9,500c-5.2,0-9.4-4.2-9.4-9.4c0-5.2,4.2-9.4,9.4-9.4s9.4,4.2,9.4,9.4
		C101.3,495.8,97,500,91.9,500z M91.9,496.9c3.5,0,6.3-2.8,6.3-6.3c0-3.5-2.8-6.3-6.3-6.3s-6.3,2.8-6.3,6.3
		C85.6,494.1,88.4,496.9,91.9,496.9z M149,520.5l-4.5-0.9c-0.3-0.8-0.6-1.6-1-2.4l2.5-3.8c1-1.5,0.8-3.4-0.5-4.7l-2.1-2.1
		c-1.2-1.2-3.2-1.4-4.7-0.5l-3.8,2.5c-0.8-0.4-1.6-0.7-2.4-1l-0.9-4.5c-0.3-1.7-1.9-3-3.6-3h-2.9c-1.8,0-3.3,1.2-3.6,3l-0.9,4.5
		c-0.8,0.3-1.6,0.6-2.4,1l-3.8-2.5c-1.5-1-3.4-0.8-4.7,0.5l-2.1,2.1c-1.2,1.2-1.4,3.2-0.5,4.7l2.5,3.8c-0.5,1-0.9,2.1-1.3,3.3
		c-0.2,0.8,0.2,1.7,1.1,1.9c0.8,0.2,1.7-0.2,1.9-1.1c0.3-1.2,0.8-2.4,1.4-3.4c0.3-0.5,0.3-1.1-0.1-1.6l-3-4.5
		c-0.2-0.2-0.1-0.6,0.1-0.8l2.1-2.1c0.2-0.2,0.5-0.2,0.8-0.1l4.5,3c0.5,0.3,1.1,0.3,1.6,0.1c1.1-0.6,2.2-1.1,3.4-1.4
		c0.6-0.2,1-0.6,1.1-1.2l1.1-5.4c0.1-0.3,0.3-0.5,0.6-0.5h2.9c0.3,0,0.5,0.2,0.6,0.5l1.1,5.4c0.1,0.6,0.5,1,1.1,1.2
		c1.2,0.3,2.4,0.8,3.4,1.4c0.5,0.3,1.1,0.3,1.6-0.1l4.5-3c0.2-0.2,0.6-0.1,0.8,0.1l2.1,2.1c0.2,0.2,0.2,0.5,0.1,0.8l-3,4.5
		c-0.3,0.5-0.3,1.1-0.1,1.6c0.6,1.1,1.1,2.2,1.4,3.4c0.2,0.6,0.6,1,1.2,1.1l5.4,1.1c0.3,0.1,0.5,0.3,0.5,0.6v2.9
		c0,0.3-0.2,0.5-0.5,0.6l-5.4,1.1c-0.6,0.1-1,0.5-1.2,1.1c-0.3,1.2-0.8,2.4-1.4,3.4c-0.3,0.5-0.3,1.1,0.1,1.6l3,4.5
		c0.2,0.2,0.1,0.6-0.1,0.8l-2.1,2.1c-0.2,0.2-0.5,0.2-0.8,0.1l-4.5-3c-0.5-0.3-1.1-0.3-1.6-0.1c-1.1,0.6-2.2,1.1-3.4,1.4
		c-0.6,0.2-1,0.6-1.1,1.2l-1.1,5.4c-0.1,0.3-0.3,0.5-0.6,0.5h-2.9c-0.3,0-0.5-0.2-0.6-0.5l-1.1-5.4c-0.1-0.6-0.5-1-1.1-1.2
		c-1.2-0.3-2.4-0.8-3.4-1.4c-0.5-0.3-1.1-0.3-1.6,0.1l-4.5,3c-0.2,0.2-0.6,0.1-0.8-0.1l-2.1-2.1c-0.2-0.2-0.2-0.5-0.1-0.8l3-4.5
		c0.3-0.5,0.3-1.1,0.1-1.6c-0.6-1.1-1.1-2.2-1.4-3.4c-0.2-0.6-0.6-1-1.2-1.1l-5.4-1.1c-0.3-0.1-0.5-0.3-0.5-0.6v-2.9
		c0-0.3,0.2-0.5,0.5-0.6l0.3-0.1c0.8-0.2,1.4-1,1.2-1.8c-0.2-0.8-1-1.4-1.8-1.2l-0.3,0.1c-1.7,0.3-3,1.9-3,3.6v2.9
		c0,1.8,1.2,3.3,3,3.6l4.5,0.9c0.3,0.8,0.6,1.6,1,2.4l-2.5,3.8c-1,1.5-0.8,3.4,0.5,4.7l2.1,2.1c1.2,1.2,3.2,1.4,4.7,0.5l3.8-2.5
		c0.8,0.4,1.6,0.7,2.4,1l0.9,4.5c0.3,1.7,1.9,3,3.6,3h2.9c1.8,0,3.3-1.2,3.6-3l0.9-4.5c0.8-0.3,1.6-0.6,2.4-1l3.8,2.5
		c1.5,1,3.4,0.8,4.7-0.5l2.1-2.1c1.2-1.2,1.4-3.2,0.5-4.7l-2.5-3.8c0.4-0.8,0.7-1.6,1-2.4l4.5-0.9c1.7-0.3,3-1.9,3-3.6v-2.9
		C152,522.4,150.8,520.8,149,520.5z"
    />
</g>
<g>
	<g id="texte_picto_categorie">
		<path
        d="M464.4,101.8c2.8-0.5,6.8-0.9,12.3-0.9c5.6,0,9.7,1.1,12.4,3.3c2.6,2,4.3,5.4,4.3,9.4c0,4-1.3,7.3-3.7,9.6
			c-3.1,2.9-7.8,4.3-13.1,4.3c-1.2,0-2.3-0.1-3.1-0.2v14.5h-9.1V101.8z M473.5,120.1c0.8,0.2,1.7,0.2,3,0.2c4.9,0,7.9-2.5,7.9-6.6
			c0-3.7-2.5-5.9-7.2-5.9c-1.8,0-3.1,0.1-3.7,0.3V120.1z"
      />
		<path
        d="M499,122c0-4.3-0.1-7.2-0.2-9.7h7.8l0.3,5.4h0.2c1.5-4.3,5.1-6.1,7.9-6.1c0.8,0,1.3,0,2,0.2v8.6
			c-0.7-0.1-1.4-0.3-2.5-0.3c-3.4,0-5.6,1.8-6.3,4.6c-0.1,0.6-0.2,1.3-0.2,2v14.9H499V122z"
      />
		<path
        d="M550.7,126.7c0,10.7-7.6,15.6-15.5,15.6c-8.5,0-15.2-5.6-15.2-15.1c0-9.5,6.3-15.6,15.7-15.6
			C544.8,111.6,550.7,117.8,550.7,126.7z M529.5,127c0,5,2.1,8.8,6,8.8c3.6,0,5.8-3.6,5.8-8.9c0-4.3-1.7-8.8-5.8-8.8
			C531.2,118.2,529.5,122.6,529.5,127z"
      />
		<path
        d="M550.4,147.1c2.4-0.2,4.2-0.8,5.4-1.9c1.3-1.4,1.8-3.7,1.8-9.6v-23.3h9.1v25.5c0,6.4-1.4,10.3-4.1,12.8
			c-2.7,2.5-7,3.6-11.3,3.6L550.4,147.1z M566.9,104.1c0,2.5-1.9,4.6-4.9,4.6c-2.9,0-4.8-2-4.8-4.6c0-2.6,1.9-4.6,4.8-4.6
			C565.1,99.6,566.9,101.5,566.9,104.1z"
      />
		<path
        d="M580.9,129.9c0.3,3.8,4,5.6,8.3,5.6c3.1,0,5.6-0.4,8.1-1.2l1.2,6.2c-3,1.2-6.7,1.9-10.6,1.9
			c-9.9,0-15.7-5.8-15.7-14.9c0-7.5,4.7-15.7,14.8-15.7c9.5,0,13.1,7.4,13.1,14.7c0,1.6-0.2,2.9-0.3,3.6H580.9z M591.6,123.7
			c0-2.2-1-6-5.1-6c-3.9,0-5.4,3.5-5.7,6H591.6z"
      />
		<path
        d="M615.7,103.9v8.4h6.6v6.7h-6.6v10.6c0,3.5,0.9,5.2,3.6,5.2c1.2,0,2.1-0.1,2.7-0.3l0.1,6.9
			c-1.2,0.4-3.4,0.8-5.9,0.8c-3,0-5.4-1-6.9-2.5c-1.7-1.7-2.5-4.5-2.5-8.7v-12h-3.9v-6.7h3.9V106L615.7,103.9z"
      />
	</g>
</g>
<g>
	<g id="texte_posture">
		<path
        class="st18"
        d="M452.5,905.6h9.1v25.6c0,11.5-5.5,15.5-14.4,15.5c-2.1,0-4.9-0.3-6.7-1l1-7.4c1.2,0.4,2.9,0.7,4.7,0.7
			c3.8,0,6.3-1.7,6.3-8V905.6z"
      />
		<path
        class="st18"
        d="M476,934.3c0.3,3.8,4,5.6,8.3,5.6c3.1,0,5.6-0.4,8.1-1.2l1.2,6.2c-3,1.2-6.7,1.9-10.6,1.9
			c-9.9,0-15.7-5.8-15.7-14.9c0-7.5,4.7-15.7,14.8-15.7c9.5,0,13.1,7.4,13.1,14.7c0,1.6-0.2,2.9-0.3,3.6H476z M486.7,928
			c0-2.2-1-6-5.1-6c-3.9,0-5.4,3.5-5.7,6H486.7z"
      />
		<path
        class="st18"
        d="M512.7,926.5c0-3.9-0.1-7.1-0.2-9.9h7.9l0.4,4.1h0.1c2.2-3.1,5.5-4.8,9.8-4.8c6.4,0,12.2,5.6,12.2,15
			c0,10.7-6.8,15.7-13.4,15.7c-3.5,0-6.3-1.4-7.6-3.3h-0.1v14.6h-9.1V926.5z M521.9,933.5c0,0.7,0.1,1.3,0.2,1.9
			c0.6,2.4,2.7,4.3,5.3,4.3c3.9,0,6.3-3.3,6.3-8.3c0-4.7-2.1-8.2-6.2-8.2c-2.6,0-4.9,2-5.5,4.6c-0.1,0.5-0.2,1.1-0.2,1.6V933.5z"
      />
		<path
        class="st18"
        d="M558,908.5c0,2.5-1.9,4.6-4.9,4.6c-2.9,0-4.8-2-4.8-4.6c0-2.6,1.9-4.6,4.8-4.6
			C556.1,903.9,558,905.9,558,908.5z M548.6,946v-29.4h9.1V946H548.6z"
      />
		<path class="st18" d="M565.1,903.4h9.1V946h-9.1V903.4z" />
		<path
        class="st18"
        d="M610.5,931.1c0,10.7-7.6,15.6-15.5,15.6c-8.5,0-15.2-5.6-15.2-15.1c0-9.5,6.3-15.6,15.7-15.6
			C604.5,916,610.5,922.2,610.5,931.1z M589.3,931.4c0,5,2.1,8.8,6,8.8c3.6,0,5.8-3.6,5.8-8.9c0-4.3-1.7-8.8-5.8-8.8
			C590.9,922.5,589.3,927,589.3,931.4z"
      />
		<path
        class="st18"
        d="M626.4,908.3v8.4h6.6v6.7h-6.6V934c0,3.5,0.9,5.2,3.6,5.2c1.2,0,2.1-0.1,2.7-0.3l0.1,6.9
			c-1.2,0.4-3.4,0.8-5.9,0.8c-3,0-5.4-1-6.9-2.5c-1.7-1.7-2.5-4.5-2.5-8.7v-12h-3.9v-6.7h3.9v-6.3L626.4,908.3z"
      />
		<path
        class="st18"
        d="M645.2,934.3c0.3,3.8,4,5.6,8.3,5.6c3.1,0,5.6-0.4,8.1-1.2l1.2,6.2c-3,1.2-6.7,1.9-10.6,1.9
			c-9.9,0-15.7-5.8-15.7-14.9c0-7.5,4.7-15.7,14.8-15.7c9.5,0,13.1,7.4,13.1,14.7c0,1.6-0.2,2.9-0.3,3.6H645.2z M655.9,928
			c0-2.2-1-6-5.1-6c-3.9,0-5.4,3.5-5.7,6H655.9z"
      />
	</g>
</g>
<g id="fond_categorie">
<path
    d="M737.1,810.3H350.5c-49.1,0-89-39.8-89-89V334.8c0-49.1,39.8-89,89-89h112.7c2.7,0,5-1.9,5.6-4.6l1.8-9.4
	c5.3-27.3,28.8-47.5,56.6-48.3c0.5,0,18.5,0,19,0c29.8-0.5,55.5,21.1,59.9,50.6l1.1,7.2c0.4,2.6,2.6,4.5,5.2,4.5h124.7
	c49.1,0,89,39.8,89,89v122.1c0,2.1-1.6,3.9-3.7,4.1l-4.2,0.5c-48.1,5-60,33-60,67.5v0c0,34.3,15.4,52.1,58.8,68.9l4.6,0.7
	c2.6,0.4,4.5,2.6,4.5,5.3v117.5C826.1,770.5,786.2,810.3,737.1,810.3z"
  />
</g>  
<g id="picto_titre_badge">
	<path
      d="M664.5,440.6c-1.1-10.2-9.1-18.2-19-18.9c-8.7-0.6-17.4-1.1-25.9-1.5c-15.1-0.7-30.4-0.9-45.6-0.8
		c1-22.3,0.3-44.7-2-66.8c-1-9.9-8.8-17.6-18.4-18.3c-32.9-2.4-66.3-2.9-99.2-1.4c-8.2,0.4-16.6,0.8-24.9,1.4
		c-9.6,0.7-17.4,8.4-18.4,18.3c-3.3,31-3.3,62.5,0,93.5c1.1,9.9,8.8,17.6,18.4,18.3l1.9,0.1c2.8,0.2,4.9,2.6,4.9,5.4v18.6
		c0,4.4,2.4,8.3,6.2,10.3c1.6,0.8,3.3,1.2,4.9,1.2c2.4,0,4.7-0.8,6.7-2.4c3.8-3,7.3-6,10.6-9c1.6-1.4,1.7-3.9,0.4-5.5
		c-1.4-1.6-3.8-1.8-5.3-0.4c-3.2,2.9-6.6,5.8-10.2,8.6c-1.1,0.9-2.5,1-3.7,0.4c-1.2-0.6-2-1.9-2-3.3V470c0-7-5.3-12.8-12-13.2
		l-1.9-0.1c-6-0.4-10.8-5.2-11.4-11.4c-3.2-30.5-3.2-61.4,0-91.8c0.7-6.1,5.5-10.9,11.4-11.3c8.3-0.6,16.6-1.1,24.7-1.4
		c32.6-1.4,65.7-0.9,98.4,1.4c6,0.4,10.8,5.2,11.4,11.3c3.2,30.5,3.2,61.4,0,91.9c-0.1,1.3-0.4,2.5-0.9,3.6
		c-1.8,4.4-5.9,7.4-10.5,7.7c-21.8,1.6-44,2.3-66,2.2c0,0-0.1,0-0.1,0c-4.2,0-8.1,2.1-10.5,5.7c-1.7,2.5-3.7,5.1-6.1,7.8
		c-1.4,1.6-1.3,4.1,0.3,5.5c1.5,1.5,3.9,1.3,5.4-0.3c2.6-2.9,4.8-5.8,6.7-8.6c1-1.4,2.6-2.3,4.3-2.3h0c2.8,0,5.6,0,8.4,0
		c-1.2,23.6-0.5,47.6,2,71.2c0.2,2.1,0.7,4.1,1.5,6c3,7.4,9.8,12.3,17.5,12.8c22.9,1.7,46.2,2.4,69.3,2.3h0c1.9,0,3.6,0.9,4.6,2.5
		c7.8,11.6,20.4,22.7,29.6,29.9c2,1.6,4.5,2.4,6.9,2.4c1.7,0,3.5-0.4,5.1-1.2c3.9-2,6.3-6.1,6.3-10.6v-19.4c0-3,2.3-5.6,5.3-5.8
		l0.1,0c0.6,0,1.3-0.1,1.9-0.1c9.9-0.7,18-8.7,19-18.9c0.1-1.1,0.2-2.1,0.3-3.2c0.2-2.2-1.3-4.1-3.4-4.3c-2.1-0.2-3.9,1.3-4.2,3.5
		c-0.1,1-0.2,2.1-0.3,3.1c-0.7,6.5-5.7,11.5-12.1,12c-0.6,0-1.3,0.1-1.9,0.1l-0.1,0c-6.9,0.5-12.3,6.5-12.3,13.6V582
		c0,1.5-0.8,2.9-2.1,3.5c-1.3,0.7-2.8,0.5-4-0.4c-8.8-6.9-20.7-17.4-28-28.1c-2.5-3.7-6.5-5.8-10.8-5.8c0,0-0.1,0-0.1,0
		c-22.9,0.1-46-0.7-68.7-2.3c-4.9-0.4-9.1-3.5-11.1-8.1c-0.5-1.2-0.8-2.5-1-3.8c-2.5-23.4-3.1-47-2-70.4c16.9-0.2,33.9-1,50.6-2.2
		c7.5-0.5,14-5.3,16.9-12.4c0.8-1.9,1.3-3.8,1.5-5.9c0.7-6.3,1.2-12.6,1.6-18.9c15.2-0.1,30.5,0.1,45.7,0.8
		c8.4,0.4,17.1,0.9,25.7,1.5c6.3,0.5,11.3,5.5,12,11.9c2.7,25.6,3.2,51.4,1.6,77c-0.1,2.2,1.4,4,3.5,4.2c0.1,0,0.2,0,0.3,0
		c2,0,3.6-1.6,3.8-3.7C667.8,492.9,667.2,466.6,664.5,440.6L664.5,440.6z"
    />
	<path
      d="M629.5,496.9c0.1-3.1-1.1-6-3.2-8.2c-0.4-0.4-0.8-0.8-1.2-1.1c1.1-1.8,1.7-3.9,1.7-6.2c0-3.1-1.2-6-3.3-8.2
		c-2.1-2.2-4.9-3.4-7.9-3.4h-14.9l5.6-12.4c3.2-7,0.3-15.4-6.5-18.7c-1.8-0.9-3.8-1.3-5.8-1.3c-5.2,0-10.1,3.2-12.3,8.1l-3.5,7.6
		c-1.8,3.9-4.5,7-8,9.1c-3.4,2-6,5-7.7,8.6c-1.2-0.6-2.5-0.9-3.9-0.9h-11.4c-5.3,0-9.6,4.4-9.6,9.9v47.6c0,5.5,4.3,9.9,9.6,9.9h11.4
		c1.8,0,3.5-0.5,4.9-1.4c2.7,1.8,5.8,2.7,9.1,2.7H613c6.2,0,11.2-5.2,11.2-11.5c0-1.4-0.2-2.8-0.7-4.1c0,0,0-0.1,0-0.1
		c-0.3-0.7-0.6-1.3-0.9-1.9c2.6-2.1,4.4-5.4,4.4-9.1c0-2.2-0.6-4.3-1.7-6.1C627.7,503.7,629.4,500.5,629.5,496.9L629.5,496.9z
		 M547.3,529.6c-1.1,0-2-0.9-2-2.1v-47.6c0-1.1,0.9-2.1,2-2.1h11.4c1.1,0,2,0.9,2,2.1v47.6c0,1.1-0.9,2.1-2,2.1H547.3z M618.3,500.4
		h-2.7c-2.1,0-3.8,1.8-3.8,3.9s1.7,3.9,3.8,3.9c1,0,1.9,0.4,2.5,1.1c0.7,0.7,1.1,1.6,1.1,2.6c0,2.1-1.6,3.7-3.6,3.7H613
		c-2.1,0-3.8,1.8-3.8,3.9s1.7,3.9,3.8,3.9c1,0,1.9,0.4,2.5,1.1c0.3,0.4,0.6,0.8,0.8,1.2c0,0,0,0,0,0c0.2,0.4,0.2,0.9,0.2,1.4
		c0,2.1-1.6,3.7-3.6,3.7h-40.3c-1.7,0-3.3-0.5-4.7-1.3c0.1-0.7,0.2-1.4,0.2-2.1c0,0,0-47.7,0-47.7c0-1.8,0.3-3.5,1-5.2
		c1-2.4,2.7-4.3,4.9-5.6c4.8-2.9,8.6-7.2,11-12.5l3.5-7.6c1-2.2,3.1-3.6,5.4-3.6c0.9,0,1.7,0.2,2.5,0.6c3,1.5,4.3,5.2,2.9,8.2
		l-8.1,17.8c-0.5,1.2-0.5,2.6,0.2,3.7c0.1,0.1,0.1,0.2,0.1,0.2c0.7,1.1,1.9,1.8,3.2,1.8h20.8c1,0,1.9,0.4,2.5,1.1
		c0.7,0.7,1.1,1.6,1.1,2.6c0,2.1-1.6,3.7-3.6,3.7c-2.1,0-3.8,1.8-3.8,3.9c0,2.2,1.7,3.9,3.8,3.9h2.5c1,0,2,0.4,2.7,1.2
		c0.7,0.7,1,1.6,1,2.6C621.9,498.8,620.2,500.4,618.3,500.4L618.3,500.4z"
    />
	<path
      d="M526.4,382.5c0-8-3.8-14.5-8.4-14.5c-4.6,0-8.4,6.5-8.4,14.5c0,8,3.8,14.5,8.4,14.5
		C522.6,396.9,526.4,390.4,526.4,382.5z"
    />
	<path
      d="M473.3,382.5c0-8-3.8-14.5-8.4-14.5c-4.6,0-8.4,6.5-8.4,14.5c0,8,3.8,14.5,8.4,14.5
		C469.5,396.9,473.3,390.4,473.3,382.5z"
    />
	<path
      d="M491.4,434c13.6,0,25.8-8.4,31.1-21.3c0.8-2-0.1-4.3-2-5.1c-1.9-0.8-4.2,0.1-5,2.1
		c-4.1,10-13.5,16.5-24.1,16.5c-10.5,0-20-6.5-24.1-16.5c-0.8-2-3-2.9-5-2.1c-1.9,0.8-2.8,3.1-2,5.1
		C465.6,425.7,477.8,434,491.4,434L491.4,434z"
    />
</g>
<g>
	<g id="texte_titre_badge">
		<path
        d="M335.7,686.7h-10.4v-7.3h29.6v7.3h-10.5v31.1h-8.7V686.7z"
      />
		<path d="M368.2,679.4v38.4h-8.7v-38.4H368.2z" />
		<path
        d="M383.2,686.7h-10.4v-7.3h29.6v7.3h-10.5v31.1h-8.7V686.7z"
      />
		<path
        d="M407,679.9c2.8-0.5,6.9-0.8,11.5-0.8c5.7,0,9.7,0.9,12.4,3c2.3,1.8,3.6,4.5,3.6,8.1c0,4.9-3.5,8.3-6.8,9.4
			v0.2c2.7,1.1,4.2,3.6,5.1,7.2c1.2,4.3,2.3,9.4,3.1,10.8h-8.9c-0.6-1.1-1.5-4.2-2.6-9c-1.1-4.8-2.7-6.1-6.3-6.1h-2.6v15.1H407
			V679.9z M415.6,696.5h3.4c4.3,0,6.9-2.2,6.9-5.5c0-3.5-2.4-5.3-6.4-5.3c-2.1,0-3.3,0.1-3.9,0.3V696.5z"
      />
		<path
        d="M463.7,701.6h-14.1v9.1h15.8v7.1h-24.5v-38.4h23.7v7.1h-15v8h14.1V701.6z"
      />
		<path
        d="M482.8,679.9c3.2-0.5,7.4-0.8,11.7-0.8c7.3,0,12.1,1.3,15.7,4.1c4,3,6.5,7.7,6.5,14.5
			c0,7.4-2.7,12.5-6.4,15.6c-4,3.4-10.2,5-17.7,5c-4.5,0-7.7-0.3-9.9-0.6V679.9z M491.5,711.3c0.8,0.1,2,0.2,3,0.2
			c7.9,0.1,13-4.3,13-13.5c0-8-4.7-12.2-12.1-12.2c-1.9,0-3.2,0.2-3.9,0.3V711.3z"
      />
		<path
        d="M531.1,679.4v22.1c0,6.6,2.6,10,7,10c4.6,0,7.1-3.2,7.1-10v-22.1h8.7V701c0,11.9-6,17.5-16,17.5
			c-9.7,0-15.4-5.4-15.4-17.6v-21.5H531.1z"
      />
		<path
        d="M572.9,679.9c2.3-0.4,6.9-0.8,11.2-0.8c5.3,0,8.6,0.5,11.4,2.2c2.7,1.4,4.6,4,4.6,7.6c0,3.4-2,6.6-6.3,8.2
			v0.1c4.4,1.2,7.6,4.5,7.6,9.4c0,3.5-1.6,6.3-4,8.2c-2.8,2.3-7.5,3.5-15.1,3.5c-4.3,0-7.4-0.3-9.4-0.6V679.9z M581.5,694.7h2.8
			c4.6,0,7-1.9,7-4.8c0-2.9-2.2-4.5-6.1-4.5c-1.9,0-3,0.1-3.7,0.3V694.7z M581.5,711.7c0.8,0.1,1.9,0.2,3.3,0.2
			c3.9,0,7.4-1.5,7.4-5.6c0-3.8-3.4-5.4-7.8-5.4h-3V711.7z"
      />
		<path
        d="M616.2,708l-2.7,9.9h-9l11.7-38.4h11.4l12,38.4h-9.4l-3-9.9H616.2z M625.9,701.5l-2.4-8.2
			c-0.7-2.3-1.3-5.2-1.9-7.4h-0.1c-0.6,2.3-1.1,5.2-1.8,7.4l-2.3,8.2H625.9z"
      />
		<path
        d="M644.7,679.9c3.2-0.5,7.4-0.8,11.7-0.8c7.3,0,12.1,1.3,15.7,4.1c4,3,6.5,7.7,6.5,14.5
			c0,7.4-2.7,12.5-6.4,15.6c-4,3.4-10.2,5-17.7,5c-4.5,0-7.7-0.3-9.9-0.6V679.9z M653.3,711.3c0.8,0.1,2,0.2,3,0.2
			c7.9,0.1,13-4.3,13-13.5c0-8-4.7-12.2-12.1-12.2c-1.9,0-3.2,0.2-3.9,0.3V711.3z"
      />
		<path
        d="M716.4,716.1c-2.7,0.9-7.8,2.2-12.8,2.2c-7,0-12.1-1.8-15.6-5.2c-3.5-3.3-5.5-8.3-5.4-14
			c0-12.8,9.4-20.1,21.9-20.1c5,0,8.8,0.9,10.7,1.8l-1.8,7c-2.1-0.9-4.7-1.6-8.9-1.6c-7.2,0-12.8,4.1-12.8,12.4
			c0,7.9,5,12.6,12.1,12.6c2,0,3.6-0.2,4.2-0.5v-8.1h-5.9v-6.8h14.3V716.1z"
      />
		<path
        d="M746,701.6h-14.1v9.1h15.8v7.1h-24.5v-38.4h23.7v7.1h-15v8H746V701.6z"
      />
	</g>
</g>
<path
    class="st20"
    d="M729.7,798.3H357.9c-47.3,0-85.6-38.3-85.6-85.6V341c0-47.3,38.3-85.6,85.6-85.6h113.4c2.6,0,4.9-1.8,5.4-4.4
	l1.8-9c5.1-26.3,22.7-47.7,49.5-48.4c0.5,0,17.8,0,18.3,0c28.7-0.5,48.3,22.3,52.6,50.7l1,6.9c0.4,2.5,2.5,4.3,5,4.3h124.9
	c47.3,0,85.6,38.3,85.6,85.6v110.5c0,2-1.5,3.7-3.5,4l-4,0.5c-46.3,4.8-57.7,38.8-57.7,71.9v0c0,33,14.8,59.1,56.6,75.2l4.4,1.7
	c2.5,0.4,4.3,1.5,4.3,4.1v104C815.2,760,776.9,798.3,729.7,798.3z"
  />
</svg>
